<svg width="1440" height="330" viewBox="0 0 1440 330" fill="none" xmlns="http://www.w3.org/2000/svg">
<g clip-path="url(#clip0)">
<path d="M-141.392 496.679C-139.641 492.98 -137.804 489.237 -135.883 485.455L71.4226 63.1249L375.438 175.705C408.996 182.593 443.12 194.87 477.5 213.5L375.438 175.705C144.019 128.204 -60.4644 336.948 -135.883 485.455L-141.392 496.679Z" fill="#721C20"/>
<path d="M175.194 146.306C-149.611 180.343 -178.583 635.925 -236.463 687.191L28.8184 -453C489.483 -309.921 1076.09 -113.347 1612.87 30.4809C1695.16 52.5298 1573.05 220.446 1467.83 248.341C552.5 491 500 112.268 175.194 146.306Z" fill="#941014"/>
</g>
<defs>
<clipPath id="clip0">
<rect width="1440" height="330" fill="white"/>
</clipPath>
</defs>
</svg>
