<svg width="22" height="22" viewBox="0 0 22 22" fill="none" xmlns="http://www.w3.org/2000/svg">
<path fill-rule="evenodd" clip-rule="evenodd" d="M1.66667 0.5H5.75C6.39167 0.5 6.91667 1.025 6.91667 1.66667C6.91667 3.125 7.15 4.525 7.58167 5.83167C7.71 6.24 7.61667 6.695 7.29 7.02167L4.72333 9.58833C6.40333 12.89 9.11 15.585 12.4117 17.2767L14.9783 14.71C15.2117 14.4883 15.5033 14.3717 15.8067 14.3717C15.9233 14.3717 16.0517 14.3833 16.1683 14.43C17.475 14.8617 18.8867 15.095 20.3333 15.095C20.975 15.095 21.5 15.62 21.5 16.2617V20.3333C21.5 20.975 20.975 21.5 20.3333 21.5C9.37833 21.5 0.5 12.6217 0.5 1.66667C0.5 1.025 1.025 0.5 1.66667 0.5ZM4.63 2.83333C4.7 3.87167 4.875 4.88667 5.155 5.855L3.755 7.255C3.27667 5.855 2.97334 4.37333 2.86834 2.83333H4.63ZM16.1333 16.8567C17.125 17.1367 18.14 17.3117 19.1667 17.3817V19.12C17.6267 19.015 16.145 18.7117 14.7333 18.245L16.1333 16.8567Z" fill="#E0E0E0"/>
</svg>