<svg width="14" height="28" viewBox="0 0 14 28" fill="none" xmlns="http://www.w3.org/2000/svg">
<path d="M3.29112 5.42274C3.29112 6.12835 3.29112 9.27778 3.29112 9.27778H0.466797V13.9917H3.29112V27.9999H9.09287V13.9921H12.9861C12.9861 13.9921 13.3507 11.7318 13.5275 9.2604C13.0208 9.2604 9.11481 9.2604 9.11481 9.2604C9.11481 9.2604 9.11481 6.51797 9.11481 6.03728C9.11481 5.55555 9.74738 4.90755 10.3726 4.90755C10.9966 4.90755 12.3137 4.90755 13.5336 4.90755C13.5336 4.26574 13.5336 2.04814 13.5336 6.1052e-05C11.9051 6.1052e-05 10.0524 6.1052e-05 9.2357 6.1052e-05C3.14771 -0.000264443 3.29112 4.71837 3.29112 5.42274Z" fill="white"/>
</svg>
