<svg width="371" height="330" viewBox="0 0 371 330" fill="none" xmlns="http://www.w3.org/2000/svg">
<path d="M213.016 130.075C212.244 130.075 211.481 130.21 210.768 130.473C210.055 130.735 209.408 131.12 208.862 131.605C208.317 132.091 207.884 132.667 207.589 133.3C207.294 133.934 207.142 134.614 207.142 135.3V158.262L185.5 132.687C184.961 131.909 184.212 131.263 183.321 130.807C182.431 130.351 181.426 130.099 180.399 130.075C179.627 130.075 178.863 130.21 178.151 130.473C177.438 130.735 176.791 131.12 176.245 131.605C175.7 132.091 175.267 132.667 174.972 133.3C174.677 133.934 174.525 134.614 174.525 135.3V174.35C174.525 175.036 174.677 175.716 174.972 176.35C175.267 176.983 175.7 177.559 176.245 178.045C176.791 178.53 177.438 178.915 178.151 179.177C178.863 179.44 179.627 179.575 180.399 179.575C181.17 179.575 181.934 179.44 182.647 179.177C183.359 178.915 184.007 178.53 184.552 178.045C185.098 177.559 185.531 176.983 185.826 176.35C186.121 175.716 186.273 175.036 186.273 174.35V151.25L207.76 177.512C208.307 178.245 209.129 178.781 210.079 179.025C210.791 179.167 211.53 179.167 212.243 179.025C212.921 179.244 213.644 179.333 214.363 179.286C215.082 179.238 215.782 179.056 216.417 178.75L217.963 177.788C219.048 176.792 219.657 175.461 219.663 174.075V135.3C219.67 134.552 219.497 133.811 219.155 133.128C218.812 132.445 218.309 131.835 217.679 131.339C217.049 130.844 216.306 130.475 215.502 130.257C214.697 130.038 213.85 129.977 213.016 130.075ZM142.217 168.713H125.831V135.3C125.831 133.914 125.212 132.585 124.11 131.605C123.009 130.625 121.515 130.075 119.957 130.075C118.399 130.075 116.905 130.625 115.803 131.605C114.701 132.585 114.083 133.914 114.083 135.3V174.35C114.083 175.736 114.701 177.065 115.803 178.045C116.905 179.025 118.399 179.575 119.957 179.575H142.217C143.789 179.575 145.3 179.029 146.426 178.053C147.552 177.077 148.205 175.748 148.245 174.35C148.287 173.623 148.163 172.896 147.878 172.213C147.594 171.531 147.157 170.907 146.593 170.379C146.029 169.852 145.35 169.432 144.597 169.145C143.845 168.859 143.035 168.712 142.217 168.713ZM159.375 130.075C157.803 130.075 156.292 130.621 155.166 131.597C154.04 132.573 153.387 133.902 153.347 135.3V174.35C153.387 175.748 154.04 177.077 155.166 178.053C156.292 179.029 157.803 179.575 159.375 179.575C160.933 179.575 162.427 179.025 163.529 178.045C164.631 177.065 165.25 175.736 165.25 174.35V135.3C165.25 133.914 164.631 132.585 163.529 131.605C162.427 130.625 160.933 130.075 159.375 130.075ZM276.859 27.5H94.1413C77.3856 27.5363 61.3279 33.473 49.4798 44.0117C37.6317 54.5504 30.9575 68.8336 30.9167 83.7375V246.262C30.9575 261.166 37.6317 275.45 49.4798 285.988C61.3279 296.527 77.3856 302.464 94.1413 302.5H276.859C293.614 302.464 309.672 296.527 321.52 285.988C333.368 275.45 340.043 261.166 340.083 246.262V83.7375C340.043 68.8336 333.368 54.5504 321.52 44.0117C309.672 33.473 293.614 27.5363 276.859 27.5ZM281.651 196.35C281.042 197.169 280.371 197.95 279.641 198.688C275.955 202.723 271.811 206.409 267.275 209.688C236.358 235.4 184.418 266.2 177.462 261.387C170.505 256.575 187.355 237.187 169.269 233.887C167.986 234.031 166.687 234.031 165.404 233.887C112.227 227.287 72.6542 194.15 72.6542 154.412C72.6542 109.725 123.512 73.5625 186.118 73.5625C248.725 73.5625 299.582 109.725 299.582 154.412C299.046 169.782 292.733 184.548 281.651 196.35ZM255.217 130.213H231.875C230.317 130.213 228.823 130.763 227.721 131.743C226.62 132.723 226.001 134.052 226.001 135.438V174.487C226.001 175.174 226.153 175.853 226.448 176.487C226.743 177.121 227.176 177.697 227.721 178.182C228.267 178.667 228.914 179.052 229.627 179.315C230.34 179.577 231.104 179.712 231.875 179.712H254.753C255.525 179.712 256.289 179.577 257.001 179.315C257.714 179.052 258.362 178.667 258.907 178.182C259.452 177.697 259.885 177.121 260.18 176.487C260.476 175.853 260.628 175.174 260.628 174.487C260.628 173.102 260.009 171.773 258.907 170.793C257.805 169.813 256.311 169.263 254.753 169.263H238.831V161.012H255.217C256.789 160.977 258.283 160.396 259.38 159.394C260.478 158.392 261.092 157.049 261.091 155.65C261.091 154.264 260.472 152.935 259.371 151.955C258.269 150.975 256.775 150.425 255.217 150.425H238.831V142.037H255.217C256.775 142.037 258.269 141.487 259.371 140.507C260.472 139.527 261.091 138.198 261.091 136.812C261.334 136.022 261.365 135.192 261.181 134.389C260.996 133.586 260.603 132.833 260.031 132.191C259.459 131.549 258.725 131.035 257.889 130.691C257.053 130.347 256.138 130.183 255.217 130.213Z" fill="white"/>
</svg>
