<svg width="84" height="84" viewBox="0 0 84 84" fill="none" xmlns="http://www.w3.org/2000/svg">
  <circle cx="42" cy="42" r="41" fill="#F2F2F2" stroke="#F2F2F2" stroke-width="2" />
  <path
    d="M37.9263 53.004L45.5499 42.8836L45.5106 42.8531C46.5725 41.1661 46.0741 38.8322 44.3146 37.5068C42.555 36.1819 40.1744 36.35 38.8476 37.8344L38.8052 37.8046L31.207 47.8932C32.1029 49.3488 34.1806 51.9811 37.9263 53.004"
    fill="#C03A42" />
  <path
    d="M30.4662 48.8771L23.0648 58.7045L23.0916 58.7245C21.8112 60.425 22.2703 62.9306 24.1186 64.3222C25.9669 65.7148 28.5023 65.4644 29.7817 63.7645L29.8082 63.7845L37.1207 54.0737C35.3991 53.4875 32.1759 52.0184 30.4662 48.8771"
    fill="#C03A42" />
  <path
    d="M49.439 40.5031L41.8171 30.3823L41.8564 30.3521C40.7942 28.6654 41.2929 26.3309 43.0511 25.0064C44.8089 23.6803 47.1912 23.847 48.5194 25.3331L48.5604 25.3036L56.1583 35.3912C55.2641 36.8461 53.1847 39.4801 49.439 40.5031Z"
    fill="#C03A42" />
  <path
    d="M50.2432 41.572L57.5574 51.2827L57.5838 51.2621C58.8646 52.9616 61.4 53.212 63.2483 51.8205C65.095 50.4286 65.5558 47.9239 64.274 46.2234L64.3021 46.2041L56.9008 36.3767C55.1907 39.5166 51.9647 40.9858 50.2432 41.572"
    fill="#C03A42" />
  <path
    d="M18.8008 28.7112C18.8008 33.7072 22.7 37.7809 27.6191 38.0828V19.3385C22.7 19.6408 18.8008 23.7155 18.8008 28.7112"
    fill="#C03A42" />
  <path
    d="M37.6056 28.7111C37.6056 23.8144 33.8613 19.7963 29.0801 19.3534V38.0675C33.8613 37.625 37.6056 33.6069 37.6056 28.7111"
    fill="#C03A42" />
</svg>