<svg width="84" height="84" viewBox="0 0 84 84" fill="none" xmlns="http://www.w3.org/2000/svg">
  <circle cx="42" cy="42" r="41" fill="#F2F2F2" stroke="#F2F2F2" stroke-width="2" />
  <path
    d="M40.6823 26.2246L19.0114 36.1201C18.4663 36.3684 18.4663 37.1431 19.0114 37.3921L40.6823 47.2876C41.3367 47.5864 42.0893 47.5864 42.7437 47.2876L64.4147 37.3921C64.9597 37.1431 64.9597 36.3684 64.4147 36.1201L42.7437 26.2246C42.0893 25.9251 41.3367 25.9251 40.6823 26.2246Z"
    fill="#C03A42" />
  <path
    d="M41.5971 59C32.0669 59 24.8799 55.7567 24.8799 51.4558V40.2128L40.1396 47.1809C40.637 47.4083 41.1667 47.5229 41.7134 47.5229C42.2595 47.5229 42.7897 47.4083 43.2877 47.1809L58.3143 40.3189V51.4558C58.3143 55.7567 51.1279 59 41.5971 59Z"
    fill="#F2F2F2" />
  <path
    d="M43.7925 48.2862C43.1346 48.5862 42.4354 48.7387 41.7135 48.7387C40.9915 48.7387 40.2917 48.5862 39.635 48.2862L26.0947 42.1041V51.4557C26.0947 54.9508 33.0356 57.7847 41.5966 57.7847C50.1589 57.7847 57.0991 54.9508 57.0991 51.4557V42.2102L43.7925 48.2862Z"
    fill="#C03A42" />
</svg>