<svg width="84" height="84" viewBox="0 0 84 84" fill="none" xmlns="http://www.w3.org/2000/svg">
  <circle cx="42" cy="42" r="41" fill="#F2F2F2" stroke="#F2F2F2" stroke-width="2" />
  <path
    d="M48.4549 48.1024C40.7912 48.1024 34.5783 41.8878 34.5783 34.2237C34.5783 26.5632 40.7912 20.3503 48.4549 20.3503C56.119 20.3503 62.3319 26.5632 62.3319 34.2237C62.3319 41.8878 56.119 48.1024 48.4549 48.1024ZM48.4549 18.6791C39.868 18.6791 32.9097 25.6406 32.9097 34.2237C32.9097 38.3183 34.5014 42.0297 37.0869 44.8044L35.0109 47.2242C33.6672 46.9145 32.0918 47.4119 30.983 48.647L21.4189 59.2884C19.8839 60.9983 19.8272 63.454 21.2922 64.7714C22.759 66.0903 25.1963 65.7734 26.733 64.0614L36.2957 53.4193C37.5368 52.0387 37.7944 50.1785 37.0795 48.8177L39.0186 46.5611C41.6371 48.5654 44.9007 49.7715 48.4549 49.7715C57.038 49.7715 63.9995 42.8138 63.9995 34.2237C63.9995 25.6406 57.038 18.6791 48.4549 18.6791Z"
    fill="#C03A42" />
  <path
    d="M57.5317 30.3669C54.8706 26.2616 51.2159 23.5153 46.1853 24.7714C44.0411 25.3072 41.9005 26.6377 40.3163 28.1741C40.1396 28.3479 40.4873 29.054 40.3163 29.2173C41.9523 27.6348 44.0252 26.4852 46.1853 25.8145C51.0988 24.2888 55.0018 27.5106 57.5317 31.41C57.3756 31.1688 57.6949 30.6152 57.5317 30.3669Z"
    fill="#C03A42" />
</svg>