<svg width="84" height="84" viewBox="0 0 84 84" fill="none" xmlns="http://www.w3.org/2000/svg">
  <circle cx="42" cy="42" r="41" fill="#F2F2F2" stroke="#F2F2F2" stroke-width="2" />
  <path
    d="M60.6938 26.0384L57.678 23.9527L60.8899 19.2979L63.5043 21.1063L64 20.3862L53.9105 13.4104L53.4145 14.1284L56.4439 16.2241L53.2325 20.8791L50.6043 19.0618L50.1086 19.7806L60.1981 26.757L60.6938 26.0384Z"
    fill="#C03A42" />
  <path d="M40.1821 52.6146L40.1914 52.6005L32.7408 47.4482L32.4014 55.0692L33.2015 55.6229L40.1821 52.6146Z"
    fill="#C03A42" />
  <path d="M22.0001 71.0259L33.0068 55.7076L32.4234 55.3037L22.0001 71.0259Z" fill="#C03A42" />
  <path
    d="M42.5313 49.2109L39.7127 47.2619L39.9376 46.937L42.7565 48.8861L43.4299 47.9087L40.611 45.9597L40.8362 45.6348L43.6548 47.5839L44.3258 46.6093L41.5068 44.6603L41.732 44.3355L44.5501 46.2845L45.223 45.31L42.4041 43.361L42.6306 43.0361L45.4484 44.9823L46.1199 44.0106L43.3013 42.0616L43.5256 41.734L46.3439 43.683L47.0169 42.7085L44.1996 40.7597L44.4242 40.4349L47.2423 42.3836L47.9138 41.4091L45.0963 39.4601L45.3198 39.1344L48.1384 41.0837L48.8107 40.1081L45.9938 38.1593L46.2184 37.8345L49.0367 39.7827L49.7077 38.8087L46.8893 36.8597L47.1139 36.5337L49.9325 38.4828L50.6049 37.5077L47.788 35.5595L48.0111 35.2335L50.8292 37.1825L51.5018 36.2086L48.6835 34.2596L48.9081 33.9339L51.7267 35.8821L52.3988 34.907L49.5818 32.9588L49.805 32.6325L52.6234 34.5824L53.296 33.6073L50.4776 31.6589L50.7025 31.3335L53.5206 33.2814L54.1932 32.3071L51.376 30.3584L51.598 30.0327L54.4164 31.9817L55.0904 31.0064L52.2712 29.0582L52.4961 28.7331L55.3147 30.6813L55.9871 29.7067L53.1687 27.7574L53.3933 27.4326L56.2105 29.3816L58.0459 26.7219L50.5795 21.5581L33.2211 46.7195L40.6881 51.883L42.5313 49.2109Z"
    fill="#C03A42" />
</svg>