<svg width="84" height="84" viewBox="0 0 84 84" fill="none" xmlns="http://www.w3.org/2000/svg">
  <circle cx="42" cy="42" r="41" fill="#F2F2F2" stroke="#F2F2F2" stroke-width="2" />
  <path
    d="M30.625 20C29.1332 20 27.7024 20.5926 26.6475 21.6475C25.5926 22.7024 25 24.1332 25 25.625V63.125C25 63.6223 25.1975 64.0992 25.5492 64.4508C25.9008 64.8025 26.3777 65 26.875 65H32.5V55.625C32.5 55.1277 32.6975 54.6508 33.0492 54.2992C33.4008 53.9475 33.8777 53.75 34.375 53.75H49.375C49.8723 53.75 50.3492 53.9475 50.7008 54.2992C51.0525 54.6508 51.25 55.1277 51.25 55.625V65H56.875C57.3723 65 57.8492 64.8025 58.2008 64.4508C58.5525 64.0992 58.75 63.6223 58.75 63.125V44.375C58.75 42.8832 58.1574 41.4524 57.1025 40.3975C56.0476 39.3426 54.6168 38.75 53.125 38.75H51.25V25.625C51.25 24.1332 50.6574 22.7024 49.6025 21.6475C48.5476 20.5926 47.1168 20 45.625 20H30.625ZM36.25 29.375C36.25 29.8723 36.0525 30.3492 35.7008 30.7008C35.3492 31.0525 34.8723 31.25 34.375 31.25C33.8777 31.25 33.4008 31.0525 33.0492 30.7008C32.6975 30.3492 32.5 29.8723 32.5 29.375C32.5 28.8777 32.6975 28.4008 33.0492 28.0492C33.4008 27.6975 33.8777 27.5 34.375 27.5C34.8723 27.5 35.3492 27.6975 35.7008 28.0492C36.0525 28.4008 36.25 28.8777 36.25 29.375ZM36.25 38.75C36.25 39.2473 36.0525 39.7242 35.7008 40.0758C35.3492 40.4275 34.8723 40.625 34.375 40.625C33.8777 40.625 33.4008 40.4275 33.0492 40.0758C32.6975 39.7242 32.5 39.2473 32.5 38.75C32.5 38.2527 32.6975 37.7758 33.0492 37.4242C33.4008 37.0725 33.8777 36.875 34.375 36.875C34.8723 36.875 35.3492 37.0725 35.7008 37.4242C36.0525 37.7758 36.25 38.2527 36.25 38.75ZM36.25 48.125C36.25 48.6223 36.0525 49.0992 35.7008 49.4508C35.3492 49.8025 34.8723 50 34.375 50C33.8777 50 33.4008 49.8025 33.0492 49.4508C32.6975 49.0992 32.5 48.6223 32.5 48.125C32.5 47.6277 32.6975 47.1508 33.0492 46.7992C33.4008 46.4475 33.8777 46.25 34.375 46.25C34.8723 46.25 35.3492 46.4475 35.7008 46.7992C36.0525 47.1508 36.25 47.6277 36.25 48.125ZM43.75 29.375C43.75 29.8723 43.5525 30.3492 43.2008 30.7008C42.8492 31.0525 42.3723 31.25 41.875 31.25C41.3777 31.25 40.9008 31.0525 40.5492 30.7008C40.1975 30.3492 40 29.8723 40 29.375C40 28.8777 40.1975 28.4008 40.5492 28.0492C40.9008 27.6975 41.3777 27.5 41.875 27.5C42.3723 27.5 42.8492 27.6975 43.2008 28.0492C43.5525 28.4008 43.75 28.8777 43.75 29.375ZM43.75 38.75C43.75 39.2473 43.5525 39.7242 43.2008 40.0758C42.8492 40.4275 42.3723 40.625 41.875 40.625C41.3777 40.625 40.9008 40.4275 40.5492 40.0758C40.1975 39.7242 40 39.2473 40 38.75C40 38.2527 40.1975 37.7758 40.5492 37.4242C40.9008 37.0725 41.3777 36.875 41.875 36.875C42.3723 36.875 42.8492 37.0725 43.2008 37.4242C43.5525 37.7758 43.75 38.2527 43.75 38.75ZM43.75 48.125C43.75 48.6223 43.5525 49.0992 43.2008 49.4508C42.8492 49.8025 42.3723 50 41.875 50C41.3777 50 40.9008 49.8025 40.5492 49.4508C40.1975 49.0992 40 48.6223 40 48.125C40 47.6277 40.1975 47.1508 40.5492 46.7992C40.9008 46.4475 41.3777 46.25 41.875 46.25C42.3723 46.25 42.8492 46.4475 43.2008 46.7992C43.5525 47.1508 43.75 47.6277 43.75 48.125ZM51.25 48.125C51.25 48.6223 51.0525 49.0992 50.7008 49.4508C50.3492 49.8025 49.8723 50 49.375 50C48.8777 50 48.4008 49.8025 48.0492 49.4508C47.6975 49.0992 47.5 48.6223 47.5 48.125C47.5 47.6277 47.6975 47.1508 48.0492 46.7992C48.4008 46.4475 48.8777 46.25 49.375 46.25C49.8723 46.25 50.3492 46.4475 50.7008 46.7992C51.0525 47.1508 51.25 47.6277 51.25 48.125ZM47.5 65V57.5H43.7613V65H47.5ZM40.0113 65V57.5H36.25V65H40.0113Z"
    fill="#C03A42" />
</svg>