<svg width="84" height="84" viewBox="0 0 84 84" fill="none" xmlns="http://www.w3.org/2000/svg">
  <circle cx="42" cy="42" r="41" fill="#F2F2F2" stroke="#F2F2F2" stroke-width="2" />
  <path
    d="M47.1901 26.1017L47.9864 28.5611H50.5631L48.4785 30.0811L49.2747 32.5406L47.1901 31.0205L45.1055 32.5406L45.9017 30.0811L43.8171 28.5611H46.3939L47.1901 26.1017Z"
    fill="#C03A42" />
  <path
    d="M50.9482 43.8983L51.4316 45.3915H52.9961L51.7304 46.3144L52.2138 47.8076L50.9482 46.8848L49.6825 47.8076L50.166 46.3144L48.9003 45.3915H50.4647L50.9482 43.8983Z"
    fill="#C03A42" />
  <path
    d="M61.2496 34.8304L61.6382 36.0309H62.8959L61.8784 36.7728L62.2671 37.9732L61.2496 37.2313L60.2321 37.9732L60.6208 36.7728L59.6033 36.0309H60.861L61.2496 34.8304Z"
    fill="#C03A42" />
  <path fill-rule="evenodd" clip-rule="evenodd"
    d="M46.7362 20.4167C38.5942 22.1972 32.4974 29.473 32.4974 38.178C32.4974 48.2174 40.6068 56.3559 50.6102 56.3559C55.4026 56.3559 59.7604 54.488 63 51.4379C59.5546 59.4176 51.6365 65 42.4193 65C30.0374 65 20 54.9264 20 42.5C20 30.0736 30.0374 20 42.4193 20C43.8959 20 45.3392 20.1433 46.7362 20.4167Z"
    fill="#C03A42" />
</svg>