<svg width="1440" height="1127" viewBox="0 0 1440 1127" fill="none" xmlns="http://www.w3.org/2000/svg">
<path d="M844.399 60.0667C821.599 73.8 797.466 88.3333 790.666 92.3333L778.399 99.6667V124.733V149.8L788.133 143.267C793.333 139.667 817.733 124.6 842.133 109.933L886.399 83.1333V122.733V162.333L848.666 185L811.066 207.667L790.133 244.333L769.199 281L769.466 320.333L769.733 359.667L790.399 371.267C805.199 379.533 811.599 382.467 813.066 381.533C814.133 380.867 840.266 365.133 871.066 346.467L927.066 312.6L927.466 287.8L927.733 263L916.799 270.067C902.133 279.4 812.533 333.4 812.133 333.133C811.999 333 811.733 315.533 811.733 294.333L811.599 255.8L849.199 233.133L886.799 210.333L907.866 173.133L928.933 136.067L929.066 97.8C929.066 62.7333 928.933 59.2667 926.799 57.4C923.866 54.8667 888.399 35 886.799 35C886.266 35 867.066 46.2 844.399 60.0667Z" fill="white"/>
<path d="M643.466 182.867L589.066 215.667V240.733V265.8L599.199 258.867C604.799 255.133 629.066 240.067 653.199 225.533L697.066 199V238.733L696.933 278.333L659.333 301L621.733 323.667L600.799 360.867L579.733 397.933L579.999 436.6L580.399 475.267L600.399 486.467C611.466 492.6 621.066 497.667 621.866 497.667C622.533 497.667 649.333 481.933 681.199 462.6L739.066 427.667L739.466 403.267C739.599 389.933 739.466 379 739.066 379C738.799 379 734.133 381.8 728.799 385.133C723.599 388.467 697.466 404.333 670.799 420.467L622.399 449.533V410.6V371.667L659.999 349L697.466 326.333L718.666 289.133L739.733 252.067V213V173.8L721.466 163.533C711.333 157.8 701.866 152.467 700.399 151.667C697.999 150.2 691.466 153.8 643.466 182.867Z" fill="white"/>
<path d="M505.733 266.867L476.399 285.267V589.133V893L505.599 909.267C521.733 918.333 535.466 925.667 536.266 925.667C537.066 925.667 560.533 911.667 588.399 894.6L639.066 863.667L639.466 965.667L639.733 1067.8L669.066 1084.2C685.866 1093.67 699.466 1100.33 700.799 1100.07C701.999 1099.67 716.533 1091.13 733.066 1081C749.599 1070.87 780.133 1052.07 801.066 1039.27C821.999 1026.47 845.466 1012.07 853.333 1007.13L867.733 998.333L897.733 944.867L927.733 891.4V722.867V554.333L899.199 536.733C883.599 527 869.866 518.733 868.799 518.333C867.199 517.667 824.266 542.6 816.799 548.6C815.599 549.533 801.333 574.067 785.199 603L755.733 655.533V688.467V721.267L730.799 736.6C716.933 745 704.399 752.6 702.799 753.533L699.733 755.133V649.933V544.733L722.799 530.733C735.333 523 753.866 511.8 763.733 505.667C773.599 499.667 795.599 486.2 812.399 475.933C829.333 465.533 851.199 452.2 861.066 446.067C870.933 440.067 890.266 428.333 903.999 420.067L928.933 405L929.066 369.133V333.4L926.133 335.267C922.933 337.267 792.399 417.267 733.733 453L700.399 473.4L670.133 527L639.733 580.733L639.466 686.733L639.066 792.733L587.999 823.933C559.866 841 536.666 855 536.266 855C535.999 855 535.599 718.6 535.466 551.8L535.066 248.6L505.733 266.867ZM867.733 757.933V927.667L863.999 929.8C861.999 931 833.733 948.333 801.066 968.333C717.199 1019.8 701.066 1029.67 700.399 1029.67C699.999 1029.67 699.733 983.933 699.733 927.933L699.866 826.333L727.466 809.533L755.066 792.867L785.333 738.867L815.599 685L815.733 652.333V619.667L841.466 604.067C855.466 595.4 867.199 588.333 867.466 588.333C867.599 588.333 867.733 664.733 867.733 757.933Z" fill="white"/>
</svg>
