<svg xmlns="http://www.w3.org/2000/svg" width="1766" height="1788" viewBox="0 0 1766 1788" version="1.1"><path d="M 1150 0.752 C 1150 1.166, 1186.787 38.287, 1231.750 83.244 L 1313.500 164.983 1353.335 165.241 L 1393.169 165.500 1271.598 286 L 1150.027 406.500 1150.013 449.250 L 1150 492 1354.500 492 L 1559 492 1559 431 L 1559 370 1479.467 370 L 1399.934 370 1394.717 372.524 C 1390.247 374.688, 1401.630 362.988, 1474.254 290.774 L 1559.008 206.500 1559.004 165.904 L 1559 125.309 1498.250 62.731 L 1437.500 0.153 1293.750 0.076 C 1214.688 0.034, 1150 0.339, 1150 0.752 M 1150.167 533.964 C 1150.350 534.494, 1187.175 572.038, 1232 617.395 L 1313.500 699.862 1353.750 699.931 L 1394 700 1394 748.756 L 1394 797.512 1361.500 830 L 1329 862.489 1361.500 895 L 1394 927.511 1394 996.756 L 1394 1066 1292.250 1065.987 L 1190.500 1065.975 1108.750 1148.210 C 1063.787 1193.439, 1027 1230.570, 1027 1230.722 C 1027 1230.875, 1117.832 1231, 1228.850 1231 L 1430.700 1231 1494.819 1170.250 L 1558.938 1109.500 1558.969 1016.994 L 1559 924.488 1528 893.500 L 1497 862.512 1528 831.500 L 1559 800.488 1558.994 728.494 L 1558.989 656.500 1497.911 594.750 L 1436.833 533 1293.333 533 C 1201.684 533, 1149.954 533.348, 1150.167 533.964" stroke="none" fill="#040404" fill-rule="evenodd"/><path d="M 167.750 83.122 L 88 166.309 88 719.407 L 88 1272.505 167.752 1352.252 L 247.505 1432 801.026 1432 L 1354.548 1432 1436.024 1352.883 C 1480.836 1309.369, 1517.650 1273.369, 1517.833 1272.883 C 1518.026 1272.373, 1249.940 1272, 883.084 1272 L 248.002 1272 247.751 635.967 L 247.500 -0.066 167.750 83.122 M 439 0.856 C 439 1.914, 399.630 39.476, 336.750 98.409 L 289 143.163 289 625.828 L 289 1108.494 350.247 1169.747 L 411.494 1231 637.499 1231 L 863.505 1231 944.725 1149.750 C 1025.068 1069.378, 1026.836 1067.522, 1108.414 978 L 1190.883 887.500 1190.942 799.954 L 1191 712.408 1109.253 624.204 L 1027.506 536 863.554 536 L 699.602 536 712.051 548.716 C 718.898 555.710, 755.351 592.610, 793.058 630.716 L 861.615 700 943.808 700 L 1026 700 1026 883 L 1026 1066 741.500 1066 L 457 1066 457.008 1045.750 C 457.012 1034.612, 456.302 832.073, 455.430 595.661 C 454.558 359.250, 453.992 165.693, 454.172 165.534 C 454.352 165.375, 467.100 165.612, 482.500 166.060 C 523.891 167.265, 780.673 167.185, 999 165.900 C 1104.325 165.280, 1190.706 164.580, 1190.957 164.346 C 1191.209 164.111, 1154.535 127.037, 1109.459 81.959 L 1027.505 -0 733.252 -0 C 570.806 -0, 439 0.383, 439 0.856 M 1530.602 1456.750 C 1525.581 1480.549, 1526.399 1478.411, 1523.177 1476.169 C 1518.701 1473.054, 1514.108 1472, 1505.007 1472 C 1484.192 1472, 1468.659 1483.854, 1463.495 1503.680 C 1460.581 1514.869, 1461.963 1523.260, 1467.855 1530.144 C 1473.408 1536.631, 1479.579 1538.983, 1491 1538.966 C 1500.464 1538.953, 1501.410 1538.718, 1513.801 1533.314 C 1514.765 1532.894, 1514.931 1533.426, 1514.442 1535.374 L 1513.783 1538 1525.824 1538 C 1536.430 1538, 1537.926 1537.791, 1538.377 1536.250 C 1539.237 1533.307, 1559 1441.076, 1559 1440.004 C 1559 1439.386, 1554.254 1439, 1546.673 1439 L 1534.346 1439 1530.602 1456.750 M 625.651 1473.019 C 602.528 1478.861, 585.382 1495.161, 579.386 1517 C 576.908 1526.024, 576.908 1546.976, 579.386 1556 C 583.915 1572.496, 595.656 1587.155, 610 1594.223 C 621.527 1599.902, 631.876 1601.987, 648.500 1601.980 C 665.639 1601.972, 677.774 1599.707, 689.070 1594.406 L 697 1590.685 697 1558.342 L 697 1526 671 1526 L 645 1526 645 1537.500 L 645 1549 655 1549 L 665 1549 665 1559.051 L 665 1569.102 661.285 1570.654 C 658.479 1571.827, 654.993 1572.112, 647.035 1571.821 C 634.723 1571.371, 627.817 1568.817, 621.310 1562.310 C 615.148 1556.148, 612.728 1550.041, 612.212 1539.354 C 611.691 1528.565, 613.298 1522.517, 618.491 1515.715 C 625.775 1506.176, 636.353 1502, 653.234 1502 C 666.417 1502, 676.133 1503.994, 685.330 1508.588 C 689.086 1510.465, 692.360 1512, 692.606 1512 C 692.851 1512, 692.928 1505.151, 692.776 1496.780 L 692.500 1481.561 688.500 1479.278 C 686.300 1478.023, 680.900 1475.801, 676.500 1474.341 C 669.296 1471.950, 666.758 1471.654, 651 1471.361 C 636.124 1471.084, 632.323 1471.333, 625.651 1473.019 M 1162.224 1472.964 C 1154.288 1475.100, 1142.948 1480.153, 1141.107 1482.372 C 1140.310 1483.331, 1140.034 1488.630, 1140.224 1499.324 L 1140.500 1514.880 1145.971 1511.429 C 1154.947 1505.767, 1161.353 1503.795, 1172.550 1503.247 C 1181.344 1502.817, 1183.108 1503.015, 1186.663 1504.828 C 1191.540 1507.316, 1194 1511.884, 1194 1518.451 C 1194 1528.226, 1188.809 1534.549, 1159.461 1560.525 L 1135 1582.174 1135 1591.587 L 1135 1601 1184.500 1601 L 1234 1601 1234 1587.518 L 1234 1574.036 1210.419 1573.768 L 1186.838 1573.500 1199.437 1562.174 C 1218.302 1545.216, 1226.295 1534.362, 1228.876 1522.201 C 1233.400 1500.878, 1223.561 1481.717, 1204.081 1473.912 C 1195.946 1470.653, 1172.755 1470.128, 1162.224 1472.964 M 1270 1471.693 C 1264.257 1472.658, 1252.580 1476.174, 1248.927 1478.037 L 1245 1480.041 1245 1492.965 L 1245 1505.889 1250.340 1503.445 C 1262.861 1497.712, 1282.374 1495.234, 1292.084 1498.143 C 1303.897 1501.683, 1304.402 1514.759, 1292.897 1519.196 C 1289.592 1520.470, 1285.208 1520.905, 1275.250 1520.946 L 1262 1521 1262 1534 L 1262 1547 1269.250 1547.027 C 1289.644 1547.103, 1301.288 1549.948, 1303.803 1555.467 C 1305.459 1559.102, 1305.299 1564.520, 1303.429 1568.137 C 1298.555 1577.563, 1271.256 1578.725, 1249.255 1570.444 C 1245.684 1569.100, 1242.590 1568, 1242.381 1568 C 1242.171 1568, 1242 1574.014, 1242 1581.364 L 1242 1594.728 1246.250 1596.310 C 1258.336 1600.809, 1262.956 1601.441, 1284 1601.471 C 1300.605 1601.494, 1305.735 1601.162, 1311 1599.723 C 1324.235 1596.104, 1334.008 1587.461, 1337.532 1576.260 C 1340.015 1568.364, 1339.766 1556.650, 1336.975 1550.164 C 1334.758 1545.011, 1328.118 1537.922, 1323.565 1535.848 L 1321.134 1534.740 1325.853 1530.120 C 1334.208 1521.941, 1337.407 1511.243, 1335.022 1499.455 C 1332.168 1485.355, 1321.945 1475.792, 1306.144 1472.443 C 1299.961 1471.132, 1276.260 1470.640, 1270 1471.693 M 95 1536.500 L 95 1601 139.500 1601 L 184 1601 184 1587.500 L 184 1574 156 1574 L 128 1574 128 1523 L 128 1472 111.500 1472 L 95 1472 95 1536.500 M 213.073 1533.264 C 199.638 1566.944, 188.044 1595.963, 187.309 1597.750 L 185.973 1601 203.315 1601 L 220.657 1601 225.711 1588.250 L 230.765 1575.500 254.089 1575.500 L 277.413 1575.500 282.457 1588.242 L 287.500 1600.984 304.742 1600.992 L 321.984 1601 320.527 1597.250 C 319.726 1595.188, 310.108 1571, 299.154 1543.500 C 288.200 1516, 277.350 1488.662, 275.043 1482.750 L 270.848 1472 254.174 1472.014 L 237.500 1472.027 213.073 1533.264 M 334 1536.500 L 334 1601 350.500 1601 L 367 1601 367 1581 L 367 1561 375.773 1561 L 384.546 1561 394.851 1581 L 405.156 1601 422.444 1601 L 439.733 1601 431.741 1585.250 C 427.346 1576.588, 422.295 1566.709, 420.516 1563.298 L 417.282 1557.096 422.512 1553.623 C 432.728 1546.840, 438.254 1537.633, 440.225 1524.112 C 443.040 1504.800, 435.502 1486.653, 421.180 1478.260 C 411.440 1472.552, 406.821 1472, 368.772 1472 L 334 1472 334 1536.500 M 453 1536.476 L 453 1601 469.500 1601 L 486 1601 486 1563.310 L 486 1525.621 509.250 1563.290 L 532.500 1600.960 549.250 1600.980 L 566 1601 566 1536.500 L 566 1472 549.012 1472 L 532.024 1472 531.762 1508.944 L 531.500 1545.888 508.984 1509.194 L 486.468 1472.500 469.734 1472.226 L 453 1471.952 453 1536.476 M 709 1536.500 L 709 1601 755 1601 L 801 1601 801 1587.500 L 801 1574 771.500 1574 L 742 1574 742 1562 L 742 1550 763.500 1550 L 785 1550 785 1537 L 785 1524 763.500 1524 L 742 1524 742 1511.500 L 742 1499 771.500 1499 L 801 1499 801 1485.500 L 801 1472 755 1472 L 709 1472 709 1536.500 M 836.073 1533.264 C 822.638 1566.944, 811.044 1595.963, 810.309 1597.750 L 808.973 1601 826.315 1601 L 843.657 1601 848.711 1588.250 L 853.765 1575.500 877.089 1575.500 L 900.413 1575.500 905.457 1588.242 L 910.500 1600.984 927.742 1600.992 L 944.984 1601 943.527 1597.250 C 942.726 1595.188, 933.108 1571, 922.154 1543.500 C 911.200 1516, 900.350 1488.662, 898.043 1482.750 L 893.848 1472 877.174 1472.014 L 860.500 1472.027 836.073 1533.264 M 957 1536.500 L 957 1601 973.500 1601 L 990 1601 990 1581 L 990 1561 998.773 1561 L 1007.546 1561 1017.851 1581 L 1028.156 1601 1045.444 1601 L 1062.733 1601 1054.741 1585.250 C 1050.346 1576.588, 1045.295 1566.709, 1043.516 1563.298 L 1040.282 1557.096 1045.512 1553.623 C 1055.728 1546.840, 1061.254 1537.633, 1063.225 1524.112 C 1066.040 1504.800, 1058.502 1486.653, 1044.180 1478.260 C 1034.440 1472.552, 1029.821 1472, 991.772 1472 L 957 1472 957 1536.500 M 1417.485 1474.250 C 1417 1475.588, 1404 1536.513, 1404 1537.445 C 1404 1537.750, 1409.576 1538, 1416.391 1538 L 1428.783 1538 1430.286 1531.250 C 1431.112 1527.537, 1432.809 1519.550, 1434.055 1513.500 C 1435.777 1505.147, 1436.929 1501.839, 1438.845 1499.753 C 1441.970 1496.351, 1449.769 1493.352, 1457.877 1492.434 C 1463.026 1491.852, 1464.107 1491.393, 1464.513 1489.619 C 1467.394 1477.044, 1467.972 1474.376, 1467.985 1473.606 C 1467.993 1473.107, 1464.612 1472.968, 1460.340 1473.291 C 1454.698 1473.717, 1451.112 1474.647, 1446.728 1476.820 L 1440.776 1479.770 1441.325 1476.385 L 1441.874 1473 1429.906 1473 C 1421.239 1473, 1417.812 1473.345, 1417.485 1474.250 M 1499.500 1492.890 C 1494.659 1495.124, 1491.612 1498.290, 1489.548 1503.232 C 1486.457 1510.629, 1487.916 1516.231, 1493.548 1518.585 C 1500.383 1521.440, 1509.043 1519.763, 1514.932 1514.442 C 1517.992 1511.678, 1518.968 1509.864, 1519.993 1505.034 C 1521.121 1499.716, 1521.072 1498.759, 1519.554 1496.441 C 1516.082 1491.143, 1506.834 1489.505, 1499.500 1492.890 M 367 1516.500 L 367 1534.308 380.589 1533.694 C 395.978 1532.999, 400.028 1531.670, 403.737 1526.102 C 406.559 1521.865, 406.847 1512.588, 404.322 1507.266 C 401.687 1501.713, 396.662 1500.032, 380.507 1499.302 L 367 1498.692 367 1516.500 M 990 1516.500 L 990 1534.308 1003.589 1533.694 C 1018.978 1532.999, 1023.028 1531.670, 1026.737 1526.102 C 1029.559 1521.865, 1029.847 1512.588, 1027.322 1507.266 C 1024.687 1501.713, 1019.662 1500.032, 1003.507 1499.302 L 990 1498.692 990 1516.500 M 253.379 1510.500 C 252.946 1511.600, 249.602 1520.600, 245.948 1530.500 L 239.303 1548.500 246.652 1548.792 C 250.693 1548.953, 257.314 1548.953, 261.365 1548.792 L 268.730 1548.500 261.448 1528.500 C 255.915 1513.303, 253.977 1508.980, 253.379 1510.500 M 876.379 1510.500 C 875.946 1511.600, 872.602 1520.600, 868.948 1530.500 L 862.303 1548.500 869.652 1548.792 C 873.693 1548.953, 880.314 1548.953, 884.365 1548.792 L 891.730 1548.500 884.448 1528.500 C 878.915 1513.303, 876.977 1508.980, 876.379 1510.500" stroke="none" fill="#941c1c" fill-rule="evenodd"/></svg>