<svg xmlns="http://www.w3.org/2000/svg" viewBox="0 0 281.48 300.72"><defs><style>.cls-1{fill:#9e0b0f;}</style></defs><g id="_480_logo" data-name="480 logo"><path d="M268.68,179.68v12.79c0,55.85-46,101.8-101.8,101.8-50.36,0-92.67-37.37-100.5-85.67H0L62,0H90.88L37.52,179.68H65.9c6.37-49.9,49.47-89,101-89a101.69,101.69,0,0,1,47.28,11.65l-16,23.69A73.46,73.46,0,0,0,94.57,179.68h67.25L142.24,208.6h-47a73.44,73.44,0,0,0,143.32-.12l-.23.12H165.09l19.58-28.92Z"/><polygon class="cls-1" points="51.16 0 16.79 115.71 14.47 115.71 48.84 0 51.16 0"/><path class="cls-1" d="M204.52,300.72l-.73-2.1a112.55,112.55,0,0,0,75.46-106.15,113.93,113.93,0,0,0-.71-12.67l2.21-.25a116,116,0,0,1,.73,12.92A114.78,114.78,0,0,1,204.52,300.72Z"/></g></svg>