<svg xmlns="http://www.w3.org/2000/svg" viewBox="0 0 298.31 333.99"><defs><style>.cls-1{fill:#fff;}</style></defs><g id="_480_inverse_logo" data-name="480 inverse logo"><path class="cls-1" d="M285.51,179.68v12.79c0,55.85-45.95,101.8-101.8,101.8-50.36,0-92.67-37.37-100.5-85.67H16.83L78.79,0h28.93L54.35,179.68H82.73c6.37-49.9,49.47-89,101-89A101.69,101.69,0,0,1,231,102.32L215,126A73.46,73.46,0,0,0,111.4,179.68h67.25L159.07,208.6h-47a73.44,73.44,0,0,0,143.32-.12l-.23.12H181.92l19.58-28.92Z"/><polygon class="cls-1" points="67.99 0 33.62 115.71 31.3 115.71 65.67 0 67.99 0"/><path class="cls-1" d="M221.35,300.72l-.73-2.1a112.55,112.55,0,0,0,75.46-106.15,113.93,113.93,0,0,0-.71-12.67l2.21-.25a116,116,0,0,1,.73,12.92A114.78,114.78,0,0,1,221.35,300.72Z"/><g id="title"><path class="cls-1" d="M0,320.86a.41.41,0,0,1,.11-.28.41.41,0,0,1,.31-.12H3.19a.48.48,0,0,1,.29.11.39.39,0,0,1,.14.29v9.76H8.76a.41.41,0,0,1,.29.1.38.38,0,0,1,.13.3v2.36a.45.45,0,0,1-.11.28.41.41,0,0,1-.31.13H.41c-.27,0-.41-.13-.41-.39Z"/><path class="cls-1" d="M20.33,320.82a.22.22,0,0,1,.06-.12.43.43,0,0,1,.12-.11.65.65,0,0,1,.16-.09l.16,0h2.39a.4.4,0,0,1,.28.1.8.8,0,0,1,.16.16l.24.51,4.91,12.15a.25.25,0,0,1,0,.29.5.5,0,0,1-.36.11H25.74a.54.54,0,0,1-.33-.08.44.44,0,0,1-.18-.25l-.37-.91c-.12-.3-.24-.61-.35-.91h-5l-.36.91-.36.91a.47.47,0,0,1-.48.33H15.58a.46.46,0,0,1-.29-.09c-.08-.06-.09-.15,0-.27Zm1.7,3.84q-.18.45-.36,1l-.36,1.06L21,327.78c-.12.35-.24.67-.36,1h2.87Z"/><path class="cls-1" d="M36.11,320.88a.44.44,0,0,1,.11-.3.42.42,0,0,1,.31-.11h6a4.69,4.69,0,0,1,1.8.35,4.84,4.84,0,0,1,1.47.93,4.41,4.41,0,0,1,1,1.39,4,4,0,0,1,.36,1.69A3.71,3.71,0,0,1,47,326a3.87,3.87,0,0,1-.48,1,4.32,4.32,0,0,1-.73.87,4.4,4.4,0,0,1-.93.67l2.4,4.34c0,.09.1.19.17.3a.56.56,0,0,1,.1.3.26.26,0,0,1-.09.21.4.4,0,0,1-.27.08H44a.45.45,0,0,1-.28-.09.41.41,0,0,1-.17-.24l-2.27-4.1H39.73v4.05c0,.25-.14.38-.43.38H36.53a.45.45,0,0,1-.3-.09.36.36,0,0,1-.12-.29Zm7.33,4a1.75,1.75,0,0,0-.4-1,1.77,1.77,0,0,0-.44-.37,1.67,1.67,0,0,0-.58-.2l-.5,0H39.73v3.29h2l.29,0a1.41,1.41,0,0,0,.59-.18,1.45,1.45,0,0,0,.44-.37,1.73,1.73,0,0,0,.37-1.05Z"/><path class="cls-1" d="M54.72,320.87a.38.38,0,0,1,.41-.4h3.06a.7.7,0,0,1,.27.06.71.71,0,0,1,.24.22l2.36,3.62c.78,1.19,1.57,2.4,2.36,3.63v-7.19a.44.44,0,0,1,.16-.25.39.39,0,0,1,.26-.09H66.5a.59.59,0,0,1,.33.1.35.35,0,0,1,.13.3v12.57a.34.34,0,0,1-.11.27.57.57,0,0,1-.31.08h-3a.33.33,0,0,1-.22-.08,2.08,2.08,0,0,1-.2-.21q-1.23-2-2.46-3.91l-2.46-3.9v7.71a.4.4,0,0,1-.1.29.42.42,0,0,1-.33.1H55.13a.4.4,0,0,1-.31-.11.39.39,0,0,1-.1-.27Z"/><path class="cls-1" d="M84.2,324.23a4,4,0,0,0-1-.5,3.66,3.66,0,0,0-1.16-.18,3.46,3.46,0,0,0-1.42.28,3.35,3.35,0,0,0-1.11.77,3.6,3.6,0,0,0-.73,1.13,3.77,3.77,0,0,0-.26,1.39,3.72,3.72,0,0,0,.26,1.38,3.56,3.56,0,0,0,.73,1.12,3.32,3.32,0,0,0,1.11.76,3.46,3.46,0,0,0,1.42.28,4.73,4.73,0,0,0,.65,0l.69-.12v-2.35a.38.38,0,0,1,.41-.4h2.54a.53.53,0,0,1,.3.11.33.33,0,0,1,.16.29v4.34a.44.44,0,0,1-.27.39,4.93,4.93,0,0,1-1,.5,8.08,8.08,0,0,1-1.12.34,8.93,8.93,0,0,1-1.17.2,9.25,9.25,0,0,1-1.16.07,7.44,7.44,0,0,1-1.9-.24,8.05,8.05,0,0,1-1.71-.69A7,7,0,0,1,77,332a6.77,6.77,0,0,1-1.12-1.38,6.63,6.63,0,0,1-.72-1.63,6.79,6.79,0,0,1,0-3.65,6.87,6.87,0,0,1,.72-1.64,7.17,7.17,0,0,1,1.12-1.4,6.91,6.91,0,0,1,1.44-1.07,7.12,7.12,0,0,1,1.71-.69,7.44,7.44,0,0,1,1.9-.25,7.22,7.22,0,0,1,4,1.17.62.62,0,0,1,.24.24.28.28,0,0,1,0,.33l-1.51,2.1a.71.71,0,0,1-.24.2A.42.42,0,0,1,84.2,324.23Z"/><path class="cls-1" d="M94.91,320.88a.44.44,0,0,1,.11-.3.41.41,0,0,1,.3-.11h9.28a.42.42,0,0,1,.32.12.43.43,0,0,1,.11.31v2.22a.48.48,0,0,1-.11.29.42.42,0,0,1-.33.14H98.53v2.22h4.68a.55.55,0,0,1,.29.08.32.32,0,0,1,.12.27v1.94a.37.37,0,0,1-.11.24.35.35,0,0,1-.3.12H98.53v2.29h6.28a.38.38,0,0,1,.43.42v2.25a.23.23,0,0,1-.08.16c0,.17-.15.25-.38.25H95.32a.49.49,0,0,1-.3-.09.38.38,0,0,1-.11-.29Z"/><path class="cls-1" d="M116.94,320.82a.22.22,0,0,1,.06-.12.43.43,0,0,1,.12-.11.65.65,0,0,1,.16-.09l.16,0h2.4a.39.39,0,0,1,.27.1,1.36,1.36,0,0,1,.17.16l.23.51,4.91,12.15a.25.25,0,0,1,0,.29.47.47,0,0,1-.35.11h-2.69a.54.54,0,0,1-.33-.08.44.44,0,0,1-.18-.25l-.37-.91c-.12-.3-.23-.61-.35-.91h-5l-.36.91-.36.91a.47.47,0,0,1-.48.33h-2.76a.48.48,0,0,1-.29-.09c-.08-.06-.09-.15,0-.27Zm1.7,3.84q-.18.45-.36,1l-.36,1.06-.36,1.07c-.12.35-.24.67-.36,1h2.87Z"/><path class="cls-1" d="M132.72,320.88a.44.44,0,0,1,.11-.3.42.42,0,0,1,.31-.11h6a4.69,4.69,0,0,1,1.8.35,4.84,4.84,0,0,1,1.47.93,4.41,4.41,0,0,1,1,1.39,4.1,4.1,0,0,1,.19,2.85,4.24,4.24,0,0,1-.49,1,4.32,4.32,0,0,1-.73.87,4.4,4.4,0,0,1-.93.67l2.4,4.34c.05.09.1.19.17.3a.56.56,0,0,1,.1.3.26.26,0,0,1-.09.21.4.4,0,0,1-.27.08h-3.21a.47.47,0,0,1-.28-.09.41.41,0,0,1-.17-.24l-2.27-4.1h-1.52v4.05c0,.25-.14.38-.43.38h-2.77a.45.45,0,0,1-.3-.09.36.36,0,0,1-.12-.29Zm7.33,4a1.71,1.71,0,0,0-.1-.54,1.92,1.92,0,0,0-.29-.5,2,2,0,0,0-.45-.37,1.67,1.67,0,0,0-.58-.2l-.49,0h-1.8v3.29h2l.29,0a1.41,1.41,0,0,0,.58-.18,1.34,1.34,0,0,0,.44-.37,1.58,1.58,0,0,0,.37-1.05Z"/><path class="cls-1" d="M177.79,321.44a.59.59,0,0,1,.24.23.35.35,0,0,1,0,.34l-1.58,2.16a.34.34,0,0,1-.22.17.4.4,0,0,1-.28-.07,3.51,3.51,0,0,0-1-.52,3.78,3.78,0,0,0-2.58.1,3.35,3.35,0,0,0-1.11.77,3.49,3.49,0,0,0-.73,1.13,3.72,3.72,0,0,0-.26,1.38,3.63,3.63,0,0,0,.26,1.37,3.56,3.56,0,0,0,.73,1.12,3.32,3.32,0,0,0,1.11.76,3.46,3.46,0,0,0,1.42.28,3.67,3.67,0,0,0,2.19-.7.52.52,0,0,1,.28-.08.41.41,0,0,1,.23.16l1.6,2.21a.33.33,0,0,1,0,.33.52.52,0,0,1-.24.22,7.3,7.3,0,0,1-4,1.19,7.44,7.44,0,0,1-1.9-.24,8.05,8.05,0,0,1-1.71-.69,7,7,0,0,1-1.44-1.08,6.45,6.45,0,0,1-1.12-1.38,6.63,6.63,0,0,1-.72-1.63,6.79,6.79,0,0,1,0-3.65,7,7,0,0,1,3.28-4.11,7.12,7.12,0,0,1,1.71-.69,7.44,7.44,0,0,1,1.9-.25,7.34,7.34,0,0,1,2.12.3A7.24,7.24,0,0,1,177.79,321.44Z"/><path class="cls-1" d="M189.78,320.82a.22.22,0,0,1,.06-.12.43.43,0,0,1,.12-.11.65.65,0,0,1,.16-.09l.16,0h2.4a.39.39,0,0,1,.27.1,1.36,1.36,0,0,1,.17.16l.23.51,4.91,12.15a.25.25,0,0,1,0,.29.47.47,0,0,1-.35.11h-2.69a.54.54,0,0,1-.33-.08.44.44,0,0,1-.18-.25l-.37-.91c-.11-.3-.23-.61-.35-.91h-5l-.36.91-.36.91a.47.47,0,0,1-.48.33H185a.49.49,0,0,1-.3-.09c-.08-.06-.09-.15,0-.27Zm1.7,3.84q-.18.45-.36,1l-.36,1.06-.36,1.07c-.12.35-.24.67-.36,1h2.87Z"/><path class="cls-1" d="M206.32,320.87a.46.46,0,0,1,.13-.28.42.42,0,0,1,.32-.12H210a.43.43,0,0,1,.45.34L213,329l2.56-8.15a.48.48,0,0,1,.48-.34h3.2a.48.48,0,0,1,.3.11.43.43,0,0,1,.16.29q.33,3.15.67,6.26c.22,2.07.45,4.16.67,6.27v0c0,.23-.14.35-.42.35H218q-.43,0-.45-.39l-.82-6.94-2.1,7a.52.52,0,0,1-.14.22.31.31,0,0,1-.22.12h-2.46a.35.35,0,0,1-.24-.12.37.37,0,0,1-.14-.22l-2.1-7-.82,6.92c0,.26-.16.39-.46.39h-2.64c-.27,0-.41-.13-.41-.39Z"/><path class="cls-1" d="M228.76,320.88a.49.49,0,0,1,.1-.3.43.43,0,0,1,.31-.11h6a4.39,4.39,0,0,1,1.22.17,4.16,4.16,0,0,1,1.9,1.19,4.28,4.28,0,0,1,.65.9,4.11,4.11,0,0,1,.41,1,4.45,4.45,0,0,1,.14,1.08,4.3,4.3,0,0,1-1.17,2.95,4.23,4.23,0,0,1-1.34,1,4.19,4.19,0,0,1-1.74.39h-2.84v4.27c0,.25-.14.38-.43.38h-2.78a.49.49,0,0,1-.3-.09.38.38,0,0,1-.11-.29Zm7,3.93a1.7,1.7,0,0,0-.09-.54,1.47,1.47,0,0,0-.29-.48,1.41,1.41,0,0,0-.45-.34,1.34,1.34,0,0,0-.61-.14h-2v3h2a1.33,1.33,0,0,0,.61-.13,1.57,1.57,0,0,0,.46-.34,1.47,1.47,0,0,0,.28-.47A1.77,1.77,0,0,0,235.8,324.81Z"/><path class="cls-1" d="M260.12,331.3v2.35H250.5v-1.86l4.91-4.55a5.27,5.27,0,0,0,1.06-1.25,2.27,2.27,0,0,0,.27-1,1.36,1.36,0,0,0-.52-1.15,2.42,2.42,0,0,0-1.52-.4,3.52,3.52,0,0,0-1.51.31,3,3,0,0,0-1.12.93l-2.15-1.35a5,5,0,0,1,2.06-1.7,7,7,0,0,1,3-.61,6.36,6.36,0,0,1,2.49.45,3.76,3.76,0,0,1,1.65,1.28,3.29,3.29,0,0,1,.59,2,4.18,4.18,0,0,1-.44,1.91,7.33,7.33,0,0,1-1.69,2l-2.92,2.7Z"/><path class="cls-1" d="M263.94,333.1a5.18,5.18,0,0,1-1.94-2.21,8.93,8.93,0,0,1,0-6.93,5.15,5.15,0,0,1,1.94-2.22,5.59,5.59,0,0,1,5.63,0,5.15,5.15,0,0,1,1.94,2.22,8.93,8.93,0,0,1,0,6.93,5.36,5.36,0,0,1-7.57,2.21Zm4.64-2.65a7.26,7.26,0,0,0,0-6.05,2.07,2.07,0,0,0-1.83-1,2,2,0,0,0-1.8,1,7.16,7.16,0,0,0,0,6.05,2.07,2.07,0,0,0,1.8,1A2.1,2.1,0,0,0,268.58,330.45Z"/><path class="cls-1" d="M275.28,318.36a.22.22,0,0,1,.08-.18.26.26,0,0,1,.19-.07h6.17a.33.33,0,0,1,.19.06.26.26,0,0,1,.09.19v1.41a.28.28,0,0,1-.07.19.24.24,0,0,1-.21.1h-2v6.23a.27.27,0,0,1-.08.18.22.22,0,0,1-.19.08h-1.69a.27.27,0,0,1-.18-.07.24.24,0,0,1-.08-.19v-6.23h-2a.27.27,0,0,1-.27-.29Z"/><path class="cls-1" d="M283.41,318.36a.31.31,0,0,1,.07-.18.23.23,0,0,1,.18-.07h1.7a.27.27,0,0,1,.18.07.23.23,0,0,1,.09.18v2.7h2.85v-2.7a.24.24,0,0,1,.07-.18.25.25,0,0,1,.19-.07h1.68a.46.46,0,0,1,.2.05.23.23,0,0,1,.08.19v7.95a.22.22,0,0,1-.07.19.32.32,0,0,1-.2.06h-1.69a.29.29,0,0,1-.19-.06.22.22,0,0,1-.07-.19v-3.23h-2.85v3.23a.26.26,0,0,1-.08.19.33.33,0,0,1-.21.06h-1.68c-.16,0-.25-.07-.25-.22Z"/></g></g></svg>