<svg xmlns="http://www.w3.org/2000/svg" width="1470" height="1432" viewBox="0 0 1470 1432" version="1.1"><path d="" stroke="none" fill="#080404" fill-rule="evenodd"/><path d="M 79.263 82.790 L 0.026 165.500 0.013 719.498 L -0 1273.495 79.248 1352.748 L 158.495 1432 712.193 1432 L 1265.891 1432 1347.975 1352.250 L 1430.060 1272.500 795.030 1272.249 L 160 1271.998 160 635.999 C 160 286.200, 159.662 0.018, 159.250 0.040 C 158.838 0.062, 122.843 37.300, 79.263 82.790 M 337.453 13.790 C 322.481 28.403, 273.007 75.139, 228.246 116.952 L 201 142.404 201 625.955 L 201 1109.506 261.753 1170.253 L 322.506 1231 548.505 1231 L 774.504 1231 858.187 1147.250 C 941.387 1063.983, 942.332 1062.992, 1021.924 975.500 L 1101.978 887.500 1101.989 799.773 L 1102 712.046 1020.397 624.023 L 938.793 536 774.670 536 L 610.547 536 638.535 564.250 C 653.928 579.788, 690.535 616.688, 719.884 646.250 L 773.245 700 855.623 700 L 938 700 938 883 L 938 1066 653 1066 L 368 1066 367.966 981.250 C 367.948 934.638, 367.311 732.025, 366.551 531 C 365.791 329.975, 365.244 165.444, 365.335 165.376 C 365.426 165.308, 378.325 165.616, 394 166.061 C 436.295 167.261, 691.234 167.181, 909.500 165.898 C 1015.100 165.278, 1101.706 164.579, 1101.957 164.345 C 1102.209 164.110, 1065.535 127.037, 1020.459 81.959 L 938.505 0 645.002 0.040 L 351.500 0.081 337.453 13.790 M 1142.989 82.489 L 1225.473 164.977 1264.840 165.239 L 1304.208 165.500 1182.720 286 L 1061.231 406.500 1061.116 449.250 L 1061 492 1265.500 492 L 1470 492 1470 431 L 1470 370 1390.967 370 L 1311.934 370 1306.867 372.567 C 1304.081 373.979, 1301.610 374.944, 1301.377 374.710 C 1301.144 374.477, 1338.937 336.760, 1385.362 290.893 L 1469.770 207.500 1469.885 166.213 L 1470 124.926 1409.250 62.484 L 1348.500 0.042 1204.502 0.021 L 1060.505 0 1142.989 82.489 M 1061 533.619 C 1061 533.959, 1097.958 571.534, 1143.130 617.119 L 1225.259 700 1265.027 700 L 1304.796 700 1305.218 748.750 L 1305.640 797.500 1273.076 830.250 L 1240.511 863 1273.256 895.756 L 1306 928.511 1306 997.256 L 1306 1066 1203.911 1066 L 1101.822 1066 1019.947 1148.250 C 974.915 1193.487, 938.055 1230.612, 938.036 1230.750 C 938.016 1230.888, 1028.912 1231, 1140.027 1231 L 1342.053 1231 1406.027 1170.288 L 1470 1109.575 1470 1017.032 L 1470 924.488 1439.500 894 C 1422.725 877.232, 1409 863.057, 1409 862.500 C 1409 861.943, 1422.725 847.768, 1439.500 831 L 1470 800.512 1470 728.169 L 1470 655.825 1409.250 594.534 L 1348.500 533.242 1204.750 533.121 C 1125.688 533.054, 1061 533.278, 1061 533.619" stroke="none" fill="#040404" fill-rule="evenodd"/></svg>