<?xml version="1.0" encoding="UTF-8"?>
<svg id="Layer_1" xmlns="http://www.w3.org/2000/svg" viewBox="0 0 2048 2048">
  <defs>
    <style>
      .cls-1 {
        fill: #fff;
      }
    </style>
  </defs>
  <g>
    <path class="cls-1" d="M602.95,415.65c118.83-72.83,246.93-154.18,365.79-226.96,3.01-1.84,5.94-5.45,10-3.15,4.09,2.31,2.48,6.67,2.39,10.21-2.75,117.36-3.68,234.75-4.87,352.13-.11,11.19-3.4,18.04-13.64,23.89-71.87,41.11-143.31,82.98-214.99,124.43-4.13,2.39-5.2,4.88-5,9.43,4.08,93.58,7.93,187.17,11.96,280.75,1.76,40.94,3.84,81.87,5.62,122.8.19,4.44.9,6.75,6.12,7.99,46.17,11.03,92.24,22.47,138.3,33.92,4.75,1.18,6.47.57,6.21-4.96-1.99-43.59-3.66-87.2-5.48-130.8-1.34-32.17-2.75-64.34-4.12-96.51-.09-2.05-.01-4.1-.01-7.9-39.14,27.07-76.65,53.11-114.34,78.91-3.62,2.48-6.86,8.12-12.09,5.47-5.31-2.69-2.73-8.67-2.85-13.15-1.78-67.05-3.24-134.1-5.16-201.15-.24-8.3,1.22-12.95,9.35-17.79,37.66-22.36,74.53-46.03,111.68-69.23,27.92-17.43,55.84-34.87,83.78-52.26,2.34-1.46,4.49-4.45,7.74-2.48,3.14,1.9,1.76,5.33,1.8,8.08,1.26,96.35,2.38,192.71,3.65,289.06,1.8,136.54,3.72,273.09,5.57,409.63.15,11.29-3.07,13.37-13.09,8.38-99.9-49.75-199.6-99.9-299.92-148.79-12.21-5.95-15.1-12.4-15.87-24.62-3.48-54.94-8.09-109.81-12.2-164.7-3.46-46.15-6.71-92.32-10.2-138.47-3.97-52.51-8.17-105-12.15-157.51-2.94-38.72-5.58-77.47-8.54-116.19-3.62-47.46-7.43-94.91-11.15-142.36"/>
    <path class="cls-1" d="M1139.8,1428.59c20.85-15.16,41.22-29.97,61.6-44.77,111.79-81.23,223.6-162.45,335.37-243.72,12.68-9.22,25.1-18.79,37.68-28.14,6.56-4.88,8.9-3.92,9.89,4.32.47,3.94.5,8.01.1,11.95-2.16,20.98-1.33,42.02-1.09,63.03.07,5.97-1.94,9.79-6.3,13.58-76.64,66.74-153.16,133.62-229.72,200.45-93.99,82.05-188,164.08-282.01,246.12-3.88,3.39-7.84,6.68-11.76,10.02-1.08.92-2.29,1.45-3.62.78-2.32-1.17-2.28-3.35-2.15-5.53.78-12.48,1.46-24.96,2.35-37.43,3.63-50.94,7.27-101.87,11.01-152.8,4.57-62.33,9.33-124.64,13.83-186.98,4.02-55.71,7.7-111.44,11.71-167.15,4.5-62.6,9.28-125.18,13.8-187.78,3.49-48.28,6.71-96.58,10.18-144.86,3.89-54.11,7.84-108.22,12.04-162.31.37-4.74-1.09-6.45-5.17-8.06-34.98-13.82-69.62-28.55-104.96-41.34-9.22-3.33-10.34-7.14-10.27-15.35.96-109.66,1.47-219.33,2.52-328.99.11-11.66.86-23.35.03-34.98-.36-4.99,2.48-7.1,5.62-8.52,2.69-1.22,5.45.13,7.68,1.56,112.63,72.25,225.21,144.59,337.89,216.76,6.49,4.16,7.42,10.51,5.98,16.06-11.86,46.01-18.58,93.06-29.22,139.33-21.35,92.77-41.39,185.84-61.94,278.8-22.04,99.7-44.01,199.42-66.05,299.12-21.64,97.88-43.34,195.75-64.99,293.63-.16.73-.02,1.53-.02,3.19Z"/>
    <path class="cls-1" d="M578.26,480.61c4.01,66.11,7.78,132.23,11.83,198.33,4.12,67.16,8.47,134.31,12.73,201.47,4.8,75.66,9.6,151.31,14.41,226.97,2.07,32.65,4.21,65.29,6.19,97.95.23,3.78,1.27,6.07,4.95,8.02,76.65,40.61,150.91,85.54,227.57,126.16,42.2,22.36,85.55,42.16,129.31,61.15,5.39,2.34,8.25,5.3,9.05,11.54,7.15,55.32,14.66,110.59,22.09,165.87,3.96,29.49,7.94,58.97,12,88.44,1.12,8.11.66,8.15-7.03,7.16-4.01-.52-6.94-2.28-10.05-4.13-126.99-75.48-249.62-157.66-371.26-241.37-51.64-35.53-104.19-69.72-154.75-106.82-7.36-5.4-11.13-11.93-11.99-20.42-5.51-54.48-10.71-108.99-16.32-163.46-4.35-42.29-9.37-84.52-13.68-126.82-4.18-40.99-8.05-82.02-11.69-123.06-4.27-48.2-8.26-96.42-12.14-144.65-2.5-31.01-4.82-62.04-6.78-93.1-1.9-30.23-4.35-60.36-10.52-90.08-.86-4.15-.67-8.56-1.87-12.58-2.11-7.12.49-11.16,6.62-14.85,48.15-29.09,96.14-58.44,144.16-87.74,6.32-3.86,13.03-7.1,18.62-12.11,1.71-1.53,3.66-3.3,6.33-1.55,2.33,1.53,2.6,3.81,2.43,6.3-.24,3.45-.43,6.9-.7,11.27"/>
    <path class="cls-1" d="M1323.31,1259.29c17.19-50.38,31.55-87.3,48.82-137.65,8.74-25.46,16.25-50.2,25.41-76.96-22.53,8.12-38.31,13.8-59.6,21.49-28.65,10.35-57.29,20.73-85.96,31.01-2.36.85-4.9,3.02-7.44.83-2.73-2.35-1.2-5.3-.59-8.14,22.65-105.79,45.24-211.6,67.89-317.39,19.32-90.25,38.04-180.63,58.52-270.61,5.07-22.28,11.8-44.25,15.67-66.87.99-5.75,4.15-7.11,9.05-3.94,27.65,17.87,55.34,35.67,82.85,53.75,4.86,3.19,6.78,7.68,5.46,14.37-17.48,88.49-34.58,177.06-51.8,265.6-9.93,51.04-19.93,102.07-29.88,153.11-.19.99-.19,2.02-.36,3.97,11.59-3.8,22.11-7.41,32.75-10.65,4.02-1.22,6.21-3.17,6.88-7.51,7.96-51.68,16.04-103.35,24.13-155.01,8.71-55.61,17.46-111.21,26.22-166.81,3.39-21.5,6.83-42.99,10.3-64.48,1.63-10.09,4.52-11.48,12.82-6.27,22.7,14.26,45.32,28.66,68.16,42.7,4.53,2.79,5.79,6.02,5.6,11.05-6.67,171.57-1.94,335.68-3.51,507.29"/>
  </g>
  <g>
    <path class="cls-1" d="M535.77,1846.24v22.09h-69.34v-109.11h23.37v87.01h45.97Z"/>
    <path class="cls-1" d="M610.91,1852.62h-40.56l-5.02,15.72h-25.3l38.44-109.11h24.34l38.63,109.11h-25.3l-5.21-15.72ZM604.35,1830.29l-13.71-42.59-13.52,42.59h27.24Z"/>
    <path class="cls-1" d="M731.45,1864.92v3.42h-25.5l-16.81-34.62h-15.84v34.62h-23.76v-109.11h48.1c30.91,0,33.61,25.51,33.61,37.13,0,9.34-1.74,27.56-18.54,34.85l18.74,33.71ZM694.56,1811.84c9.66,0,13.13-5.47,13.13-15.49s-3.48-15.03-13.13-15.03h-21.25v30.52h21.25Z"/>
    <path class="cls-1" d="M832.28,1759.22v109.11h-21.05l-42.88-66.06v66.06h-23.56v-109.11h21.05l43.08,66.06v-66.06h23.37Z"/>
    <path class="cls-1" d="M931.18,1810.93v44.87c-5.02,6.15-19.51,13.44-36.12,13.44-36.12,0-49.06-27.56-49.06-54.67s14.68-56.26,49.06-56.26c12.56,0,24.72,5.24,34.77,17.31l-14.87,17.31c-6.38-7.29-13.71-9.11-19.9-9.11-18.16,0-25.11,16.63-25.11,30.75,0,11.84,5.02,29.84,25.11,29.84,4.44,0,9.08-1.14,12.75-2.73v-30.75h23.37Z"/>
    <path class="cls-1" d="M967.31,1781.32v21.41h45.39v22.09h-45.39v21.41h51.19v22.09h-74.56v-109.11h74.56v22.09h-51.19Z"/>
    <path class="cls-1" d="M1094.41,1852.62h-40.56l-5.02,15.72h-25.3l38.44-109.11h24.34l38.63,109.11h-25.3l-5.21-15.72ZM1087.84,1830.29l-13.71-42.59-13.52,42.59h27.24Z"/>
    <path class="cls-1" d="M1214.95,1864.92v3.42h-25.5l-16.81-34.62h-15.84v34.62h-23.76v-109.11h48.1c30.91,0,33.61,25.51,33.61,37.13,0,9.34-1.74,27.56-18.54,34.85l18.74,33.71ZM1178.05,1811.84c9.66,0,13.13-5.47,13.13-15.49s-3.48-15.03-13.13-15.03h-21.25v30.52h21.25Z"/>
    <path class="cls-1" d="M1302.45,1845.1h46.75v23.23h-72.44v-15.72c0-34.4,49.06-44.19,49.06-60.82,0-9.79-10.24-9.57-15.07-9.57-8.5,0-17.38,4.55-23.95,12.76l-12.75-16.4c8.89-13.67,20.67-20.27,37.09-20.27,23.95,0,38.83,11.39,38.83,33.48,0,28.7-33.03,37.13-47.52,53.3Z"/>
    <path class="cls-1" d="M1439.02,1828.02v22.09h-12.75v18.22h-23.18v-18.22h-44.04v-15.49l49.64-75.4h17.58v68.79h12.75ZM1385.32,1829.38h18.16v-28.02l-18.16,28.02Z"/>
    <path class="cls-1" d="M1503.15,1842.14l11.4,17.08c-5.6,5.92-13.13,10.02-23.76,10.02-27.82,0-31.1-18.68-31.1-42.37v-25.28h-13.71v-18.45h13.71v-20.96h22.21v20.96h20.09v18.45h-20.09v28.93c0,10.71,1.54,16.86,9.46,16.86,3.67,0,7.92-1.82,11.78-5.24Z"/>
    <path class="cls-1" d="M1598.96,1824.14v44.19h-22.79v-44.19c0-11.85-2.51-20.04-12.17-20.04-10.82,0-18.35,12.07-18.35,24.14v40.09h-22.79v-116.85h22.79v42.82c5.41-8.66,13.33-12.07,22.21-12.07,21.83,0,31.1,17.54,31.1,41.91Z"/>
  </g>
</svg>