<svg xmlns="http://www.w3.org/2000/svg" width="1473" height="1675" viewBox="0 0 1473 1675" version="1.1"><path d="M 81.263 82.790 L 2.026 165.500 2.038 719.500 L 2.050 1273.500 81.611 1353.250 L 161.172 1433 714.535 1433 L 1267.897 1433 1349.982 1352.750 L 1432.066 1272.500 797.033 1272.249 L 162 1271.998 162 635.999 C 162 286.200, 161.662 0.018, 161.250 0.040 C 160.838 0.062, 124.843 37.300, 81.263 82.790 M 339.453 13.790 C 324.481 28.403, 275.007 75.139, 230.246 116.952 L 203 142.404 203 625.955 L 203 1109.506 263.753 1170.253 L 324.506 1231 550.505 1231 L 776.504 1231 860.187 1147.250 C 943.387 1063.983, 944.332 1062.992, 1023.924 975.500 L 1103.978 887.500 1103.989 799.773 L 1104 712.046 1022.397 624.023 L 940.793 536 776.670 536 L 612.547 536 640.535 564.250 C 655.928 579.788, 692.535 616.688, 721.884 646.250 L 775.245 700 857.623 700 L 940 700 940 883 L 940 1066 655 1066 L 370 1066 369.966 981.250 C 369.948 934.638, 369.311 732.025, 368.551 531 C 367.791 329.975, 367.244 165.444, 367.335 165.376 C 367.426 165.308, 380.325 165.616, 396 166.061 C 438.295 167.261, 693.234 167.181, 911.500 165.898 C 1017.100 165.278, 1103.706 164.579, 1103.957 164.345 C 1104.209 164.110, 1067.535 127.037, 1022.459 81.959 L 940.505 0 647.002 0.040 L 353.500 0.081 339.453 13.790 M 1144.989 82.489 L 1227.473 164.977 1266.840 165.239 L 1306.208 165.500 1184.720 286 L 1063.231 406.500 1063.116 449.250 L 1063 492 1267.500 492 L 1472 492 1472 431 L 1472 370 1392.967 370 L 1313.934 370 1308.867 372.567 C 1306.081 373.979, 1303.610 374.944, 1303.377 374.710 C 1303.144 374.477, 1340.937 336.760, 1387.362 290.893 L 1471.770 207.500 1471.885 166.213 L 1472 124.926 1411.250 62.484 L 1350.500 0.042 1206.502 0.021 L 1062.505 0 1144.989 82.489 M 1063 533.619 C 1063 533.959, 1099.958 571.534, 1145.130 617.119 L 1227.259 700 1267.027 700 L 1306.796 700 1307.218 748.750 L 1307.640 797.500 1275.076 830.250 L 1242.511 863 1275.256 895.756 L 1308 928.511 1308 997.256 L 1308 1066 1205.911 1066 L 1103.822 1066 1021.947 1148.250 C 976.915 1193.487, 940.055 1230.612, 940.036 1230.750 C 940.016 1230.888, 1030.912 1231, 1142.027 1231 L 1344.053 1231 1408.027 1170.288 L 1472 1109.575 1472 1017.032 L 1472 924.488 1441.500 894 C 1424.725 877.232, 1411 863.057, 1411 862.500 C 1411 861.943, 1424.725 847.768, 1441.500 831 L 1472 800.512 1472 728.169 L 1472 655.825 1411.250 594.534 L 1350.500 533.242 1206.750 533.121 C 1127.688 533.054, 1063 533.278, 1063 533.619 M 1444.602 1456.750 C 1439.581 1480.549, 1440.399 1478.411, 1437.177 1476.169 C 1432.701 1473.054, 1428.108 1472, 1419.007 1472 C 1398.192 1472, 1382.659 1483.854, 1377.495 1503.680 C 1374.581 1514.869, 1375.963 1523.260, 1381.855 1530.144 C 1387.408 1536.631, 1393.579 1538.983, 1405 1538.966 C 1414.464 1538.953, 1415.410 1538.718, 1427.801 1533.314 C 1428.765 1532.894, 1428.931 1533.426, 1428.442 1535.374 L 1427.783 1538 1439.824 1538 C 1450.430 1538, 1451.926 1537.791, 1452.377 1536.250 C 1453.237 1533.307, 1473 1441.076, 1473 1440.004 C 1473 1439.386, 1468.254 1439, 1460.673 1439 L 1448.346 1439 1444.602 1456.750 M 539.651 1474.019 C 516.528 1479.861, 499.382 1496.161, 493.386 1518 C 490.908 1527.024, 490.908 1547.976, 493.386 1557 C 497.915 1573.496, 509.656 1588.155, 524 1595.223 C 535.527 1600.902, 545.876 1602.987, 562.500 1602.980 C 579.639 1602.972, 591.774 1600.707, 603.070 1595.406 L 611 1591.685 611 1559.342 L 611 1527 585 1527 L 559 1527 559 1538.500 L 559 1550 569 1550 L 579 1550 579 1560.051 L 579 1570.102 575.285 1571.654 C 572.479 1572.827, 568.993 1573.112, 561.035 1572.821 C 548.723 1572.371, 541.817 1569.817, 535.310 1563.310 C 529.148 1557.148, 526.728 1551.041, 526.212 1540.354 C 525.691 1529.565, 527.298 1523.517, 532.491 1516.715 C 539.775 1507.176, 550.353 1503, 567.234 1503 C 580.417 1503, 590.133 1504.994, 599.330 1509.588 C 603.086 1511.465, 606.360 1513, 606.606 1513 C 606.851 1513, 606.928 1506.151, 606.776 1497.780 L 606.500 1482.561 602.500 1480.278 C 600.300 1479.023, 594.900 1476.801, 590.500 1475.341 C 583.296 1472.950, 580.758 1472.654, 565 1472.361 C 550.124 1472.084, 546.323 1472.333, 539.651 1474.019 M 1076.224 1473.964 C 1068.288 1476.100, 1056.948 1481.153, 1055.107 1483.372 C 1054.310 1484.331, 1054.034 1489.630, 1054.224 1500.324 L 1054.500 1515.880 1059.971 1512.429 C 1068.947 1506.767, 1075.353 1504.795, 1086.550 1504.247 C 1095.344 1503.817, 1097.108 1504.015, 1100.663 1505.828 C 1105.540 1508.316, 1108 1512.884, 1108 1519.451 C 1108 1529.226, 1102.809 1535.549, 1073.461 1561.525 L 1049 1583.174 1049 1592.587 L 1049 1602 1098.500 1602 L 1148 1602 1148 1588.518 L 1148 1575.036 1124.419 1574.768 L 1100.838 1574.500 1113.437 1563.174 C 1132.302 1546.216, 1140.295 1535.362, 1142.876 1523.201 C 1147.400 1501.878, 1137.561 1482.717, 1118.081 1474.912 C 1109.946 1471.653, 1086.755 1471.128, 1076.224 1473.964 M 1184 1472.693 C 1178.257 1473.658, 1166.580 1477.174, 1162.927 1479.037 L 1159 1481.041 1159 1493.965 L 1159 1506.889 1164.340 1504.445 C 1176.861 1498.712, 1196.374 1496.234, 1206.084 1499.143 C 1217.897 1502.683, 1218.402 1515.759, 1206.897 1520.196 C 1203.592 1521.470, 1199.208 1521.905, 1189.250 1521.946 L 1176 1522 1176 1535 L 1176 1548 1183.250 1548.027 C 1203.644 1548.103, 1215.288 1550.948, 1217.803 1556.467 C 1219.459 1560.102, 1219.299 1565.520, 1217.429 1569.137 C 1212.555 1578.563, 1185.256 1579.725, 1163.255 1571.444 C 1159.684 1570.100, 1156.590 1569, 1156.381 1569 C 1156.171 1569, 1156 1575.014, 1156 1582.364 L 1156 1595.728 1160.250 1597.310 C 1172.336 1601.809, 1176.956 1602.441, 1198 1602.471 C 1214.605 1602.494, 1219.735 1602.162, 1225 1600.723 C 1238.235 1597.104, 1248.008 1588.461, 1251.532 1577.260 C 1254.015 1569.364, 1253.766 1557.650, 1250.975 1551.164 C 1248.758 1546.011, 1242.118 1538.922, 1237.565 1536.848 L 1235.134 1535.740 1239.853 1531.120 C 1248.208 1522.941, 1251.407 1512.243, 1249.022 1500.455 C 1246.168 1486.355, 1235.945 1476.792, 1220.144 1473.443 C 1213.961 1472.132, 1190.260 1471.640, 1184 1472.693 M 9 1537.500 L 9 1602 53.500 1602 L 98 1602 98 1588.500 L 98 1575 70 1575 L 42 1575 42 1524 L 42 1473 25.500 1473 L 9 1473 9 1537.500 M 127.073 1534.264 C 113.638 1567.944, 102.044 1596.963, 101.309 1598.750 L 99.973 1602 117.315 1602 L 134.657 1602 139.711 1589.250 L 144.765 1576.500 168.089 1576.500 L 191.413 1576.500 196.457 1589.242 L 201.500 1601.984 218.742 1601.992 L 235.984 1602 234.527 1598.250 C 233.726 1596.188, 224.108 1572, 213.154 1544.500 C 202.200 1517, 191.350 1489.662, 189.043 1483.750 L 184.848 1473 168.174 1473.014 L 151.500 1473.027 127.073 1534.264 M 248 1537.500 L 248 1602 264.500 1602 L 281 1602 281 1582 L 281 1562 289.773 1562 L 298.546 1562 308.851 1582 L 319.156 1602 336.444 1602 L 353.733 1602 345.741 1586.250 C 341.346 1577.588, 336.295 1567.709, 334.516 1564.298 L 331.282 1558.096 336.512 1554.623 C 346.728 1547.840, 352.254 1538.633, 354.225 1525.112 C 357.040 1505.800, 349.502 1487.653, 335.180 1479.260 C 325.440 1473.552, 320.821 1473, 282.772 1473 L 248 1473 248 1537.500 M 366 1537.476 L 366 1602 382.500 1602 L 399 1602 399 1564.310 L 399 1526.621 422.250 1564.290 L 445.500 1601.960 462.250 1601.980 L 479 1602 479 1537.500 L 479 1473 462.012 1473 L 445.024 1473 444.762 1509.944 L 444.500 1546.888 421.984 1510.194 L 399.468 1473.500 382.734 1473.226 L 366 1472.952 366 1537.476 M 623 1537.500 L 623 1602 669 1602 L 715 1602 715 1588.500 L 715 1575 685.500 1575 L 656 1575 656 1563 L 656 1551 677.500 1551 L 699 1551 699 1538 L 699 1525 677.500 1525 L 656 1525 656 1512.500 L 656 1500 685.500 1500 L 715 1500 715 1486.500 L 715 1473 669 1473 L 623 1473 623 1537.500 M 750.073 1534.264 C 736.638 1567.944, 725.044 1596.963, 724.309 1598.750 L 722.973 1602 740.315 1602 L 757.657 1602 762.711 1589.250 L 767.765 1576.500 791.089 1576.500 L 814.413 1576.500 819.457 1589.242 L 824.500 1601.984 841.742 1601.992 L 858.984 1602 857.527 1598.250 C 856.726 1596.188, 847.108 1572, 836.154 1544.500 C 825.200 1517, 814.350 1489.662, 812.043 1483.750 L 807.848 1473 791.174 1473.014 L 774.500 1473.027 750.073 1534.264 M 871 1537.500 L 871 1602 887.500 1602 L 904 1602 904 1582 L 904 1562 912.773 1562 L 921.546 1562 931.851 1582 L 942.156 1602 959.444 1602 L 976.733 1602 968.741 1586.250 C 964.346 1577.588, 959.295 1567.709, 957.516 1564.298 L 954.282 1558.096 959.512 1554.623 C 969.728 1547.840, 975.254 1538.633, 977.225 1525.112 C 980.040 1505.800, 972.502 1487.653, 958.180 1479.260 C 948.440 1473.552, 943.821 1473, 905.772 1473 L 871 1473 871 1537.500 M 1330.485 1474.250 C 1330 1475.588, 1317 1536.513, 1317 1537.445 C 1317 1537.750, 1322.576 1538, 1329.391 1538 L 1341.783 1538 1343.286 1531.250 C 1344.112 1527.537, 1345.809 1519.550, 1347.055 1513.500 C 1348.777 1505.147, 1349.929 1501.839, 1351.845 1499.753 C 1354.970 1496.351, 1362.769 1493.352, 1370.877 1492.434 C 1376.026 1491.852, 1377.107 1491.393, 1377.513 1489.619 C 1380.394 1477.044, 1380.972 1474.376, 1380.985 1473.606 C 1380.993 1473.107, 1377.612 1472.968, 1373.340 1473.291 C 1367.698 1473.717, 1364.112 1474.647, 1359.728 1476.820 L 1353.776 1479.770 1354.325 1476.385 L 1354.874 1473 1342.906 1473 C 1334.239 1473, 1330.812 1473.345, 1330.485 1474.250 M 1413.500 1492.890 C 1408.659 1495.124, 1405.612 1498.290, 1403.548 1503.232 C 1400.457 1510.629, 1401.916 1516.231, 1407.548 1518.585 C 1414.383 1521.440, 1423.043 1519.763, 1428.932 1514.442 C 1431.992 1511.678, 1432.968 1509.864, 1433.993 1505.034 C 1435.121 1499.716, 1435.072 1498.759, 1433.554 1496.441 C 1430.082 1491.143, 1420.834 1489.505, 1413.500 1492.890 M 281 1517.500 L 281 1535.308 294.589 1534.694 C 309.978 1533.999, 314.028 1532.670, 317.737 1527.102 C 320.559 1522.865, 320.847 1513.588, 318.322 1508.266 C 315.687 1502.713, 310.662 1501.032, 294.507 1500.302 L 281 1499.692 281 1517.500 M 904 1517.500 L 904 1535.308 917.589 1534.694 C 932.978 1533.999, 937.028 1532.670, 940.737 1527.102 C 943.559 1522.865, 943.847 1513.588, 941.322 1508.266 C 938.687 1502.713, 933.662 1501.032, 917.507 1500.302 L 904 1499.692 904 1517.500 M 167.379 1511.500 C 166.946 1512.600, 163.602 1521.600, 159.948 1531.500 L 153.303 1549.500 160.652 1549.792 C 164.693 1549.953, 171.314 1549.953, 175.365 1549.792 L 182.730 1549.500 175.448 1529.500 C 169.915 1514.303, 167.977 1509.980, 167.379 1511.500 M 790.379 1511.500 C 789.946 1512.600, 786.602 1521.600, 782.948 1531.500 L 776.303 1549.500 783.652 1549.792 C 787.693 1549.953, 794.314 1549.953, 798.365 1549.792 L 805.730 1549.500 798.448 1529.500 C 792.915 1514.303, 790.977 1509.980, 790.379 1511.500" stroke="none" fill="#fffcfc" fill-rule="evenodd"/><path d="" stroke="none" fill="#fcfcfc" fill-rule="evenodd"/></svg>