<svg width="102" height="80" viewBox="0 0 102 80" fill="none" xmlns="http://www.w3.org/2000/svg">
  <g clip-path="url(#clip0_2548:13652)">
    <path
      d="M101.657 46.9858L95.1382 55.7287L91.5572 60.5382L83.6191 71.1811L77.1858 79.8096H66.381L72.8144 71.1811L84.3334 55.7287H51.5811L58.1001 46.9858H101.657Z"
      fill="white" />
    <path
      d="M70.062 71.1808L63.6286 79.8094H3.25244L8.16673 73.2236L9.68577 71.1808L10.1715 70.5332L17.3096 60.957L51.9239 14.5236L52.1763 14.1855H63.1191L60.862 17.2141L22.4477 68.7427L20.6286 71.1808H70.062Z"
      fill="white" />
    <path
      d="M90.3 41.3903L78.7333 38.4951C77.5866 34.2341 75.5943 30.2473 72.875 26.7721C70.1557 23.2969 66.765 20.4043 62.9048 18.2665L65.9381 14.1951L67.5571 12.0237H51.0857L49.4667 14.1951L49.419 14.2618C49.0333 14.2332 48.6429 14.2094 48.2524 14.1951C47.8619 14.1808 47.4333 14.1951 47.019 14.1951C46.6048 14.1951 46.1952 14.1951 45.7857 14.1951C43.3335 14.286 40.8992 14.6518 38.5286 15.2856C32.9648 16.78 27.8917 19.7109 23.818 23.7846C19.7444 27.8582 16.8134 32.9313 15.319 38.4951C13.8396 44.0604 13.8396 49.9156 15.319 55.4808C15.6095 56.557 15.9476 57.6142 16.3381 58.6427L8.97143 68.5332C6.15558 63.6088 4.33535 58.1789 3.61428 52.5523L0.252381 51.6951C0.0840916 50.064 -0.000146226 48.4253 1.90537e-07 46.7856C1.90537e-07 45.257 0.0714247 43.7427 0.219044 42.2523L3.6 41.4046C4.08989 37.5058 5.10713 33.6915 6.62381 30.0665L4.09047 27.6189C5.38124 24.7505 6.95744 22.0193 8.79524 19.4665L12.1905 20.4189C13.9268 18.1441 15.8805 16.0437 18.0238 14.1475C18.8174 13.465 19.6333 12.8062 20.4714 12.1713L20.4286 12.0237L19.519 8.7713C22.0741 6.93449 24.8087 5.36138 27.681 4.07606L30.1238 6.59987C33.7461 5.08966 37.5574 4.08037 41.4524 3.59987L42.2952 0.233204C43.7762 0.0903466 45.281 0.0141602 46.8 0.0141602C48.4558 0.0146695 50.1105 0.102086 51.7571 0.276059L52.5905 3.60939C54.0159 3.79352 55.419 4.0459 56.8 4.36653C57.5619 4.53796 58.319 4.73797 59.0714 4.95225C60.7041 5.42508 62.3083 5.99108 63.8762 6.64749L66.2238 4.21892C67.2968 4.71098 68.3476 5.23956 69.3762 5.80464C70.0397 6.16972 70.6921 6.55067 71.3333 6.94749C72.4 7.60464 73.4365 8.30305 74.4429 9.04273L73.5905 12.0237L73.5238 12.257C74.3333 12.8761 75.1143 13.5237 75.8762 14.1951C77.224 15.3845 78.4963 16.6569 79.6857 18.0046C80.3952 18.8094 81.0762 19.6332 81.7238 20.4856L84.8667 19.5856C86.735 22.1948 88.3306 24.9888 89.6286 27.9237L87.3047 30.1761C88.8004 33.7633 89.8078 37.5351 90.3 41.3903Z"
      fill="white" />
  </g>
  <defs>
    <clipPath id="clip0_2548:13652">
      <rect width="101.905" height="80" fill="white" />
    </clipPath>
  </defs>
</svg>