<?xml version="1.0" encoding="UTF-8"?>
<svg version="1.1" xmlns="http://www.w3.org/2000/svg" width="2048" height="2048">
<path d="M0 0 C2 2 2 2 2.24093628 4.23014832 C2.2360318 5.17537857 2.23112732 6.12060883 2.22607422 7.09448242 C2.22423126 8.19472244 2.22238831 9.29496246 2.2204895 10.42854309 C2.20702484 11.66255356 2.19356018 12.89656403 2.1796875 14.16796875 C2.17154222 15.50709247 2.16389953 16.84621933 2.15670776 18.18534851 C2.04211561 35.16103445 1.66158848 52.13530733 1.32552624 69.10766888 C0.52820359 109.43981863 -0.0887005 149.77197257 -0.54296875 190.109375 C-0.55945198 191.57176845 -0.55945198 191.57176845 -0.5762682 193.06370521 C-0.80810786 213.67496583 -1.02905792 234.28633768 -1.24330902 254.89778805 C-1.45260818 275.03092015 -1.67319545 295.16386096 -1.91937256 315.29657894 C-1.97971295 320.2504802 -2.03564076 325.20441065 -2.08953857 330.15838623 C-2.15421701 335.99190994 -2.23285365 341.82504145 -2.32555962 347.65818596 C-2.35530787 349.65515457 -2.38033086 351.65220069 -2.40001106 353.6492939 C-2.42696753 356.29647583 -2.4715666 358.94276092 -2.52124023 361.58959961 C-2.52465109 362.32457861 -2.52806194 363.05955761 -2.53157616 363.8168087 C-2.68094565 369.96181277 -4.02423861 376.02129724 -7.45727539 381.19702148 C-12.30726186 385.7663496 -17.5821373 388.9211211 -23.4375 392.0625 C-25.50611872 393.2014731 -27.57379891 394.34215214 -29.640625 395.484375 C-30.69701172 396.06509766 -31.75339844 396.64582031 -32.84179688 397.24414062 C-37.83684779 400.0212283 -42.76110364 402.91590236 -47.6875 405.8125 C-56.42534831 410.93364889 -65.20015906 415.98647469 -74 421 C-83.71991774 426.53887796 -93.40650128 432.13146351 -103.0625 437.78125 C-110.35900169 442.04883255 -117.6750282 446.28148956 -125 450.5 C-133.34802448 455.30844723 -141.68248303 460.13897095 -150 465 C-158.3175184 469.86102988 -166.65209706 474.69134014 -175 479.5 C-184.41386912 484.92439526 -193.8276527 490.3492478 -203.19384766 495.85571289 C-208.20567163 498.80194881 -213.2365359 501.69895116 -218.3203125 504.51953125 C-219.33706055 505.09364746 -220.35380859 505.66776367 -221.40136719 506.25927734 C-223.33220494 507.34898003 -225.27259373 508.42199137 -227.22363281 509.47509766 C-228.08569336 509.96671387 -228.94775391 510.45833008 -229.8359375 510.96484375 C-230.59438965 511.3837085 -231.3528418 511.80257324 -232.13427734 512.23413086 C-235.3846767 515.31056877 -235.93099177 519.22430718 -236.09897208 523.54671109 C-236.05005655 526.6500104 -235.92412735 529.74198949 -235.77389526 532.84205627 C-235.7253402 534.03284206 -235.67678513 535.22362784 -235.62675869 536.45049804 C-235.49004144 539.74659951 -235.34306752 543.04195104 -235.19170856 546.33739316 C-235.03058719 549.9002857 -234.88276649 553.46373344 -234.73329163 557.02713013 C-234.43761237 564.02651051 -234.12976754 571.02530611 -233.81804113 578.02398808 C-233.45188249 586.25720078 -233.09862498 594.49095263 -232.74598517 602.72475361 C-232.11189549 617.52157595 -231.46732825 632.31792298 -230.81640625 647.11401367 C-230.19360563 661.27131254 -229.57608285 675.42882484 -228.96582031 689.58666992 C-228.92869162 690.44794938 -228.89156293 691.30922883 -228.85330912 692.19660766 C-228.70380617 695.66501798 -228.55433572 699.13342969 -228.40490733 702.60184322 C-225.92660381 760.12243812 -223.42724605 817.64240219 -220.75746775 875.15447497 C-220.67508059 876.9292892 -220.59279918 878.70410833 -220.51062918 880.47893262 C-220.28638981 885.32199264 -220.06069724 890.16497995 -219.83230734 895.00784612 C-219.73677827 897.03630437 -219.64220198 899.06480743 -219.54768753 901.09331322 C-219.43278851 903.50395592 -219.3111458 905.91428939 -219.18182755 908.32420158 C-219.0491025 911.00735122 -218.94853294 913.68239072 -218.87295151 916.36703682 C-218.81707599 917.82470599 -218.76087123 919.28236257 -218.70431519 920.74000549 C-218.66450468 922.0562922 -218.62469418 923.37257891 -218.58367729 924.72875309 C-218.30361308 928.01463438 -218.30361308 928.01463438 -216.25509262 929.86491585 C-213.89994588 931.0503615 -211.77567998 931.79598694 -209.21420288 932.42134094 C-208.2534082 932.66080444 -207.29261353 932.90026794 -206.30270386 933.14698792 C-205.25454498 933.39794724 -204.20638611 933.64890656 -203.12646484 933.9074707 C-201.46185211 934.31795151 -201.46185211 934.31795151 -199.76361084 934.73672485 C-196.08156039 935.64221915 -192.39634893 936.5340737 -188.7109375 937.42578125 C-186.13315694 938.05652745 -183.55556141 938.68798764 -180.97817993 939.32035828 C-175.55744341 940.64879493 -170.13504924 941.97026695 -164.71142578 943.28686523 C-157.15774726 945.12055364 -149.60717476 946.96676905 -142.05718684 948.81558478 C-136.10907435 950.27159155 -130.16003582 951.72380875 -124.2109375 953.17578125 C-122.9796751 953.47636255 -121.7484127 953.77694386 -120.47983932 954.08663368 C-103.68134835 958.18298784 -86.8574057 962.15314975 -70 966 C-70.66882676 943.00943352 -71.59652425 920.03339581 -72.58729744 897.05475235 C-72.85416131 890.86438184 -73.11803797 884.67388596 -73.38145447 878.48336792 C-74.12974164 860.90754218 -74.88146145 843.33186477 -75.63696289 825.75634766 C-76.05678195 815.98933989 -76.47398502 806.2222238 -76.88840669 796.4549855 C-77.14891693 790.31869555 -77.41257925 784.18255229 -77.67870152 778.04650331 C-77.84380921 774.22176914 -78.00585438 770.39690955 -78.16708183 766.57201004 C-78.24160503 764.81815754 -78.31733508 763.06435578 -78.39445496 761.31061554 C-78.88222838 750.19910144 -79.0919625 739.1222377 -79 728 C-80.0352179 728.70982025 -81.07043579 729.4196405 -82.13702393 730.15097046 C-83.01048903 730.7498813 -83.01048903 730.7498813 -83.90159988 731.36089134 C-91.39457559 736.49985992 -98.85811101 741.68025183 -106.3125 746.875 C-114.1165088 752.31231873 -121.94460109 757.71158548 -129.80273438 763.0703125 C-136.97546923 767.96817998 -144.09884141 772.93579725 -151.22241211 777.90478516 C-157.97230693 782.60650224 -164.75742204 787.25359281 -171.5625 791.875 C-185.14434574 800.94584904 -185.14434574 800.94584904 -198.17578125 810.76953125 C-200 812 -200 812 -203.0625 811.9375 C-206.57311891 810.81708971 -207.26213744 810.20646612 -209 807 C-209.20509915 804.24284625 -209.23228329 801.70500475 -209.1328125 798.95581055 C-209.10113434 797.13348772 -209.0745172 795.31107297 -209.05175781 793.48861694 C-209.03858521 792.46327724 -209.0254126 791.43793755 -209.01184082 790.38152695 C-208.98895918 783.84693788 -209.19038769 777.31604175 -209.3671875 770.78442383 C-209.40687778 769.27104313 -209.44645715 767.75765953 -209.4859314 766.24427319 C-209.56953794 763.06028578 -209.65464743 759.87634281 -209.74078369 756.69242287 C-209.87859603 751.59269907 -210.0116753 746.49285775 -210.14404297 741.39299011 C-210.49727944 727.80786937 -210.85497177 714.22286756 -211.21847534 700.63801754 C-213.18482183 627.1373931 -213.18482183 627.1373931 -213.35247803 605.40457726 C-213.36720549 603.71724154 -213.38830435 602.02994629 -213.41656494 600.34278297 C-213.45134859 598.1326228 -213.46060961 595.92401739 -213.4609375 593.71362305 C-213.46915527 592.54171921 -213.47737305 591.36981537 -213.48583984 590.16239929 C-212.70371122 585.07141498 -210.25852098 581.97606883 -206.25 578.8671875 C-205.1775 578.20976563 -204.105 577.55234375 -203 576.875 C-202.09193604 576.31159912 -202.09193604 576.31159912 -201.16552734 575.73681641 C-199.1197584 574.47501188 -197.06181193 573.23540252 -195 572 C-194.2668457 571.55914063 -193.53369141 571.11828125 -192.77832031 570.6640625 C-189.54879818 568.72388289 -186.31699736 566.78760841 -183.08105469 564.8581543 C-173.32500907 559.03016245 -163.70934595 552.98084851 -154.08642578 546.93652344 C-149.97420002 544.35637989 -145.85572142 541.78631006 -141.73730469 539.21606445 C-133.64482533 534.16506689 -125.56119781 529.10078351 -117.5 524 C-107.39022331 517.6029628 -97.24250173 511.26708994 -87.09375 504.93212891 C-84.01981065 503.01237228 -80.94718124 501.09053742 -77.875 499.16796875 C-68.42947865 493.25778195 -58.977827 487.35826746 -49.5 481.5 C-41.77950321 476.7277332 -34.07255714 471.93418585 -26.375 467.125 C-25.40369141 466.51849609 -24.43238281 465.91199219 -23.43164062 465.28710938 C-22.49255859 464.69994141 -21.55347656 464.11277344 -20.5859375 463.5078125 C-19.20680176 462.65171387 -19.20680176 462.65171387 -17.79980469 461.77832031 C-15.85139772 460.54077267 -13.9262219 459.26619884 -12.02050781 457.96386719 C-11.05725586 457.31321289 -10.09400391 456.66255859 -9.1015625 455.9921875 C-8.24127441 455.39519043 -7.38098633 454.79819336 -6.49462891 454.18310547 C-3.48536066 452.75592657 -2.11409824 452.95970821 1 454 C2.96967208 455.96967208 2.23141436 459.81650937 2.27822876 462.51202393 C2.29602756 463.32839939 2.31382637 464.14477485 2.33216453 464.98588896 C2.39176646 467.81244966 2.44340655 470.63909593 2.49462891 473.46582031 C2.53556069 475.55292525 2.57656704 477.64002872 2.61763954 479.72713089 C3.2221068 511.42679349 3.57846378 543.13131234 3.9762679 574.83407021 C4.10061062 584.73568368 4.22747646 594.63726446 4.35446186 604.53884433 C4.58496193 622.5152783 4.8138407 640.49173251 5.04165649 658.46820068 C5.55666072 699.10269443 6.07618816 739.73713042 6.59697511 780.37155043 C6.68082302 786.91394891 6.76460285 793.45634826 6.84833196 799.99874827 C7.51881038 852.38347071 8.20228466 904.76794634 8.94005489 957.15176773 C8.99562337 961.09939658 9.05103242 965.04702764 9.10639191 968.99465942 C9.4004968 989.9608244 9.6947124 1010.92698759 10.00335693 1031.89294434 C10.35322656 1055.6783919 10.68712497 1079.4637947 10.94745636 1103.25041199 C10.98233984 1106.43423893 11.01883534 1109.61804118 11.05669403 1112.80183411 C11.16287769 1121.79396111 11.24825687 1130.78579175 11.29791832 1139.77841568 C11.31321396 1142.43480351 11.33905917 1145.09043842 11.37009621 1147.74676132 C11.40995237 1151.2976892 11.42485885 1154.84780409 11.43237305 1158.39892578 C11.45766744 1159.94411833 11.45766744 1159.94411833 11.48347282 1161.52052689 C11.4586651 1168.21366791 11.4586651 1168.21366791 9.41047668 1171.72506714 C5.95134987 1173.55464486 3.79226185 1172.76947002 0 1172 C-3.13969421 1170.73637581 -3.13969421 1170.73637581 -6.3815918 1169.10647583 C-6.98387761 1168.8071162 -7.58616343 1168.50775657 -8.20670033 1168.19932544 C-10.20907968 1167.20106528 -12.20399447 1166.18874512 -14.19921875 1165.17626953 C-15.64031353 1164.45419697 -17.08185408 1163.73301348 -18.52380371 1163.01264954 C-22.43425863 1161.05600519 -26.33844833 1159.0871461 -30.2416954 1157.11617136 C-34.3511627 1155.04386848 -38.4665172 1152.98332483 -42.58129883 1150.92160034 C-50.39516841 1147.00431075 -58.20406199 1143.07721078 -66.01105976 1139.14624679 C-77.38754227 1133.41845191 -88.77076812 1127.70408733 -100.15473938 1121.99119377 C-101.41945084 1121.3565049 -101.41945084 1121.3565049 -102.70971203 1120.70899403 C-104.39503268 1119.86322789 -106.08036646 1119.01748792 -107.76571369 1118.17177474 C-112.63479401 1115.72802449 -117.50223605 1113.28105013 -122.36827755 1110.83125484 C-136.59989221 1103.66720725 -150.83425675 1096.52925698 -165.2311554 1089.70119667 C-173.51515882 1085.77122907 -181.7226839 1081.69757151 -189.91485596 1077.58015442 C-192.48435732 1076.28878986 -195.05526281 1075.0002551 -197.62646484 1073.71228027 C-204.00221188 1070.51786026 -210.37571819 1067.31898008 -216.74926758 1064.12017822 C-223.0400081 1060.96319781 -229.33165394 1057.80803351 -235.625 1054.65625 C-236.4897098 1054.22318668 -237.35441959 1053.79012337 -238.24533272 1053.34393692 C-250.66995004 1047.12541074 -263.14272549 1041.02985741 -275.70379639 1035.09094238 C-281.2374443 1032.46186759 -286.73617442 1029.76156532 -292.22290039 1027.03613281 C-293.47801801 1026.4144873 -294.73493985 1025.79647458 -295.9934082 1025.18164062 C-297.88630517 1024.25653164 -299.77366959 1023.32091105 -301.66015625 1022.3828125 C-302.73918213 1021.85059082 -303.81820801 1021.31836914 -304.92993164 1020.77001953 C-312.19412741 1016.58191462 -315.28866276 1012.86786108 -318 1005 C-318.65891587 1001.77008823 -318.93133242 998.56985088 -319.14778137 995.2835083 C-319.25740557 993.91940665 -319.25740557 993.91940665 -319.3692444 992.52774739 C-319.59429739 989.68607689 -319.79755436 986.84335912 -320 984 C-320.13605604 982.2579329 -320.27374513 980.51599246 -320.41318321 978.77419281 C-320.84339955 973.33903478 -321.24023876 967.90166086 -321.63549805 962.46386719 C-321.78739494 960.39833786 -321.93951235 958.33282475 -322.0918293 956.26732635 C-322.41747411 951.84631888 -322.74180398 947.42521777 -323.06507301 943.00403595 C-323.58654068 935.87358163 -324.11135597 928.74337611 -324.6368866 921.61322021 C-324.72680266 920.3932394 -324.81671872 919.17325858 -324.90935951 917.91630864 C-325.09319337 915.42222115 -325.27704067 912.92813466 -325.46090114 910.43404913 C-325.74186331 906.62166203 -326.02255827 902.80925533 -326.30320835 898.99684525 C-328.20172345 873.21572504 -330.12745122 847.43665956 -332.0591023 821.65800357 C-332.33302643 818.00234376 -332.60687346 814.34667818 -332.88070488 810.69101143 C-333.99836249 795.7711928 -335.1170722 780.85145321 -336.23628616 765.93175125 C-336.72427232 759.42655627 -337.21207184 752.9213473 -337.69982415 746.41613477 C-342.71191976 679.57041574 -347.74860909 612.72673259 -352.88206083 545.89021665 C-353.46227973 538.33570676 -354.04200996 530.78115949 -354.62109375 523.2265625 C-354.72163748 521.91491056 -354.82218121 520.60325863 -354.92577171 519.25185966 C-356.42969027 499.61540634 -357.89971511 479.97659428 -359.34765625 460.3359375 C-359.44312996 459.04122465 -359.53860367 457.7465118 -359.63697052 456.41256523 C-360.01883514 451.23329568 -360.40052828 446.05401351 -360.78212738 440.87472439 C-364.01573014 396.98707525 -367.37450974 353.112243 -370.9375 309.25 C-371.0340815 308.05937328 -371.13066299 306.86874657 -371.2301712 305.64204025 C-371.78276545 298.83116677 -372.33753052 292.02047618 -372.8957119 285.21005821 C-373.06270922 283.17202418 -373.22935506 281.13396131 -373.39559364 279.09586525 C-373.62546266 276.28156038 -373.85691949 273.4673941 -374.08959961 270.65332031 C-374.16271142 269.76833705 -374.23582323 268.88335379 -374.31115055 267.97155285 C-374.69441124 263.40431991 -375.10709263 258.84158419 -375.55935669 254.28063965 C-375.65209397 253.34184338 -375.74483126 252.4030471 -375.84037876 251.43580246 C-376.01703422 249.66784299 -376.19755624 247.90026321 -376.38294125 246.13319778 C-377.88010203 231.21319783 -377.88010203 231.21319783 -375.62084961 228.09887695 C-374.97124268 227.73238037 -374.32163574 227.36588379 -373.65234375 226.98828125 C-372.91411377 226.54830811 -372.17588379 226.10833496 -371.4152832 225.6550293 C-370.59761475 225.21199463 -369.77994629 224.76895996 -368.9375 224.3125 C-368.08696045 223.81468018 -367.2364209 223.31686035 -366.36010742 222.80395508 C-364.53025233 221.73334983 -362.69275697 220.67571805 -360.84863281 219.62988281 C-356.10811535 216.91753326 -351.46879175 214.04113709 -346.8125 211.1875 C-344.85699569 210.00093143 -342.90126368 208.81473805 -340.9453125 207.62890625 C-333.98907768 203.39641569 -327.09087619 199.07292313 -320.19262695 194.74682617 C-312.81843143 190.12612395 -305.41617563 185.55297906 -298 181 C-286.61950216 174.01060942 -275.28492008 166.95029364 -263.96777344 159.85888672 C-258.98095443 156.73535596 -253.99027306 153.61800825 -249 150.5 C-246.99998172 149.25002926 -244.99998171 148.00002926 -243 146.75 C-225 135.5 -225 135.5 -207 124.25 C-206.01016113 123.63133057 -205.02032227 123.01266113 -204.00048828 122.37524414 C-201.99893381 121.12431331 -199.99730611 119.87349965 -197.99560547 118.62280273 C-193.01878404 115.51299731 -188.04322032 112.40121669 -183.0703125 109.28515625 C-171.53291797 102.05922867 -159.9617128 94.89176181 -148.35986328 87.76977539 C-142.04569693 83.88890781 -135.75642725 79.97321817 -129.5 76 C-121.03944036 70.62702147 -112.50661922 65.37548916 -103.96484375 60.1328125 C-96.62166671 55.6224928 -89.30209221 51.07650167 -82 46.5 C-71.46048459 39.89624774 -60.87421178 33.37058827 -50.27734375 26.859375 C-45.35465704 23.83443717 -40.43582584 20.80339132 -35.52270508 17.76293945 C-33.78285323 16.6866217 -32.04183808 15.61218169 -30.29956055 14.53979492 C-26.29374416 12.06893578 -22.31785766 9.56689227 -18.390625 6.97265625 C-17.66762207 6.50134277 -16.94461914 6.0300293 -16.19970703 5.54443359 C-14.86890733 4.67404236 -13.54609106 3.79124707 -12.23388672 2.89306641 C-8.02537967 0.15747938 -4.98852819 -0.60671289 0 0 Z " fill="#FFFFFF" transform="translate(989,300)"/>
<path d="M0 0 C2.83351936 1.38912652 5.46605138 3.05458712 8.125 4.75 C8.9099585 5.24024658 9.69491699 5.73049316 10.50366211 6.2355957 C17.92190997 10.89134763 25.25681922 15.6782996 32.5859375 20.47265625 C38.59389415 24.39733443 44.6397127 28.26208458 50.6875 32.125 C57.6368393 36.56527692 64.58188353 41.01121101 71.5 45.5 C82.63215346 52.72037573 93.82039838 59.85341975 105 67 C129.37659535 82.582782 129.37659535 82.582782 140.48828125 89.78955078 C150.96076922 96.57514229 161.48604579 103.27893604 172 110 C196.37659535 125.582782 196.37659535 125.582782 207.48828125 132.78955078 C217.96076922 139.57514229 228.48604579 146.27893604 239 153 C263.32830434 168.55191189 263.32830434 168.55191189 272.6875 174.625 C278.93702666 178.67960795 285.2128282 182.69152939 291.5 186.6875 C302.74830301 193.83812196 313.99535766 200.99030676 325.20361328 208.20361328 C326.9703924 209.33858453 328.73932433 210.47021775 330.51123047 211.59716797 C332.63904929 212.95074113 334.75818294 214.31681119 336.875 215.6875 C337.76626587 216.24775879 337.76626587 216.24775879 338.67553711 216.81933594 C342.21684949 219.13952442 344.10950478 221.23093865 346 225 C347.33893207 233.40634246 345.21271272 241.62833005 343.11833572 249.73070335 C342.16113601 253.45250009 341.26122377 257.18808328 340.36230469 260.92431641 C340.16861864 261.72845443 339.97493259 262.53259245 339.77537727 263.36109829 C337.40534946 273.32470237 335.44273528 283.36837007 333.4765625 293.41796875 C333.0852346 295.4112516 332.69389742 297.40453263 332.30255127 299.39781189 C331.49406379 303.52120117 330.687712 307.64500339 329.88208008 311.76895142 C323.53504188 344.22022551 316.97464922 376.6010939 309.5 408.8125 C309.1424137 410.3546037 308.78482908 411.89670779 308.42724609 413.43881226 C308.24758678 414.2133994 308.06792747 414.98798655 307.88282394 415.78604603 C306.93950929 419.85331831 305.9968233 423.92073574 305.0546875 427.98828125 C304.86141624 428.82210264 304.66814499 429.65592403 304.46901703 430.51501274 C298.62119012 455.77028099 293.08965085 481.0967311 287.5231781 506.41514969 C286.62238947 510.5122072 285.72098567 514.60912922 284.81945801 518.70602417 C282.37470987 529.81629966 279.93057252 540.92670919 277.48840332 552.03755188 C271.66052614 578.55175576 265.81711621 605.06252198 259.97064209 631.57263184 C258.38157065 638.77815958 256.79286298 645.98376749 255.20426106 653.18939877 C242.04813272 712.86321588 228.87993154 772.53436847 215.70753539 832.20459652 C213.21011277 843.51778944 210.7129568 854.83104118 208.21598387 866.14433336 C191.07819201 943.79199582 173.9202969 1021.4351687 156.71906614 1099.06880474 C156.1318606 1101.71903608 155.54467423 1104.36927167 154.95749283 1107.01950836 C152.90728495 1116.27301158 150.85678099 1125.52644909 148.80580968 1134.77978313 C147.74321721 1139.57405224 146.68108251 1144.36842247 145.61930746 1149.16287267 C142.20727408 1164.56896674 138.78630634 1179.97295308 135.33717275 1195.3707881 C134.33967631 1199.82563367 133.34420526 1204.28093241 132.34866655 1208.73621583 C131.41875036 1212.89628935 130.48504948 1217.0554893 129.54836845 1221.21404457 C128.84912324 1224.32327974 128.15523526 1227.43371116 127.46044922 1230.54394531 C127.2086578 1231.65576424 126.95686638 1232.76758316 126.69744492 1233.91309357 C126.47170918 1234.92800621 126.24597343 1235.94291885 126.01339722 1236.98858643 C125.81634123 1237.86589039 125.61928524 1238.74319435 125.41625786 1239.64708328 C124.88386246 1242.25823055 124.88386246 1242.25823055 125 1246 C125.45101074 1245.67427002 125.90202148 1245.34854004 126.36669922 1245.01293945 C127.7391657 1244.02171366 129.1116441 1243.03050437 130.48413086 1242.03930664 C132.10221768 1240.87064248 133.72021647 1239.70185644 135.33813477 1238.53295898 C139.40181394 1235.59731798 143.46652314 1232.66314716 147.53515625 1229.734375 C155.2215785 1224.19820936 162.88083462 1218.62844652 170.5 1213 C180.35407821 1205.72057378 190.28574334 1198.55169676 200.22949219 1191.39550781 C208.68593036 1185.3076125 217.11888909 1179.19131259 225.5 1173 C233.87948458 1166.80988881 242.31107363 1160.69525691 250.76611328 1154.60888672 C254.51359769 1151.90987882 258.25661201 1149.20468506 262 1146.5 C266.48610379 1143.25868547 270.97304831 1140.01858046 275.46484375 1136.78515625 C283.17462973 1131.23195376 290.85757631 1125.64562795 298.5 1120 C308.35407821 1112.72057378 318.28574334 1105.55169676 328.22949219 1098.39550781 C336.68593036 1092.3076125 345.11888909 1086.19131259 353.5 1080 C363.35407821 1072.72057378 373.28574334 1065.55169676 383.22949219 1058.39550781 C391.68593036 1052.3076125 400.11888909 1046.19131259 408.5 1040 C416.87948458 1033.80988881 425.31107363 1027.69525691 433.76611328 1021.60888672 C437.51359769 1018.90987882 441.25661201 1016.20468506 445 1013.5 C449.48610379 1010.25868547 453.97304831 1007.01858046 458.46484375 1003.78515625 C466.98003171 997.65183905 475.45450184 991.46739321 483.89428711 985.23071289 C489.23835846 981.28592789 494.60913731 977.38054764 500 973.5 C511.50267223 965.21550246 522.92738974 956.82455563 534.25952148 948.30810547 C535.572974 947.3212037 536.88756756 946.33581845 538.20336914 945.35205078 C541.51650729 942.87441419 544.81079954 940.37651772 548.08203125 937.84375 C549.40867017 936.83309177 550.73548665 935.82266655 552.0625 934.8125 C552.65772461 934.34239502 553.25294922 933.87229004 553.86621094 933.38793945 C558.01712557 930.25719462 560.94917735 929.32814262 566 929 C568.22848536 932.34272804 568.39342427 933.93149271 568.6875 937.875 C568.77386719 938.90367187 568.86023437 939.93234375 568.94921875 940.9921875 C569.08005597 944.3212556 568.80985506 947.5607633 568.51635742 950.87768555 C567.95704099 957.91303141 567.83182194 964.91003732 567.7890625 971.96484375 C567.76103189 974.58399103 567.73236779 977.2031316 567.703125 979.82226562 C567.66063856 983.89946292 567.6236598 987.97661125 567.59863281 992.05395508 C567.57363515 996.02446721 567.52525806 999.99454986 567.4765625 1003.96484375 C567.47330963 1005.18364731 567.47005676 1006.40245087 567.46670532 1007.65818787 C567.3544642 1015.37386116 566.72920627 1020.12735533 561.25 1025.89453125 C560.17561081 1026.87705817 559.09180728 1027.84936546 558 1028.8125 C557.42185547 1029.33457031 556.84371094 1029.85664062 556.24804688 1030.39453125 C551.88909991 1034.29892282 547.37653153 1037.99441075 542.8125 1041.65625 C539.60150066 1044.33208278 536.54972364 1047.14359707 533.5 1050 C528.73911006 1054.45874444 523.8353218 1058.6379783 518.74609375 1062.72265625 C515.73681042 1065.2182639 512.86059714 1067.83763481 510 1070.5 C506.29138312 1073.95161936 502.51494105 1077.26522148 498.5625 1080.4375 C494.37762693 1083.80346265 490.41685602 1087.33176017 486.5 1091 C481.73908666 1095.45872195 476.83532437 1099.63797624 471.74609375 1103.72265625 C468.73681042 1106.2182639 465.86059714 1108.83763481 463 1111.5 C459.29138312 1114.95161936 455.51494105 1118.26522148 451.5625 1121.4375 C447.37762693 1124.80346265 443.41685602 1128.33176017 439.5 1132 C434.73908666 1136.45872195 429.83532437 1140.63797624 424.74609375 1144.72265625 C421.73681042 1147.2182639 418.86059714 1149.83763481 416 1152.5 C412.29138312 1155.95161936 408.51494105 1159.26522148 404.5625 1162.4375 C399.78378372 1166.28110057 395.30842313 1170.36960164 390.83618164 1174.55834961 C386.64670474 1178.4599667 382.27827064 1182.07324797 377.8125 1185.65625 C374.60150066 1188.33208278 371.54972364 1191.14359707 368.5 1194 C363.73911006 1198.45874444 358.8353218 1202.6379783 353.74609375 1206.72265625 C350.73681042 1209.2182639 347.86059714 1211.83763481 345 1214.5 C341.29138312 1217.95161936 337.51494105 1221.26522148 333.5625 1224.4375 C328.78378372 1228.28110057 324.30842313 1232.36960164 319.83618164 1236.55834961 C315.64670474 1240.4599667 311.27827064 1244.07324797 306.8125 1247.65625 C303.60150066 1250.33208278 300.54972364 1253.14359707 297.5 1256 C292.73911006 1260.45874444 287.8353218 1264.6379783 282.74609375 1268.72265625 C279.73681042 1271.2182639 276.86059714 1273.83763481 274 1276.5 C270.29138312 1279.95161936 266.51494105 1283.26522148 262.5625 1286.4375 C258.37762693 1289.80346265 254.41685602 1293.33176017 250.5 1297 C245.73908666 1301.45872195 240.83532437 1305.63797624 235.74609375 1309.72265625 C232.73681042 1312.2182639 229.86059714 1314.83763481 227 1317.5 C223.29138312 1320.95161936 219.51494105 1324.26522148 215.5625 1327.4375 C211.37762693 1330.80346265 207.41685602 1334.33176017 203.5 1338 C198.73908666 1342.45872195 193.83532437 1346.63797624 188.74609375 1350.72265625 C185.73681042 1353.2182639 182.86059714 1355.83763481 180 1358.5 C176.29138312 1361.95161936 172.51494105 1365.26522148 168.5625 1368.4375 C163.78378372 1372.28110057 159.30842313 1376.36960164 154.83618164 1380.55834961 C150.64670474 1384.4599667 146.27827064 1388.07324797 141.8125 1391.65625 C138.60150066 1394.33208278 135.54972364 1397.14359707 132.5 1400 C127.73911006 1404.45874444 122.8353218 1408.6379783 117.74609375 1412.72265625 C114.73681042 1415.2182639 111.86059714 1417.83763481 109 1420.5 C105.29138312 1423.95161936 101.51494105 1427.26522148 97.5625 1430.4375 C93.37762693 1433.80346265 89.41685602 1437.33176017 85.5 1441 C80.73908666 1445.45872195 75.83532437 1449.63797624 70.74609375 1453.72265625 C67.73680569 1456.21826783 64.86067879 1458.83771794 62 1461.5 C57.33233208 1465.84185881 52.52014098 1469.93454143 47.5390625 1473.91796875 C44.50823311 1476.40324885 41.66238956 1479.05481543 38.8515625 1481.78515625 C36.43868649 1483.36828798 34.82977347 1483.29811995 32 1483 C30.12508032 1481.12508032 30.85336213 1478.43050905 30.83994043 1475.93585324 C30.84456039 1474.6458435 30.84456039 1474.6458435 30.84927368 1473.32977295 C30.8515867 1472.4321753 30.85389972 1471.53457765 30.85628283 1470.60978007 C30.93893911 1460.28390359 31.65750603 1450.01826496 32.41162109 1439.72363281 C32.56486877 1437.56011211 32.71752047 1435.39654913 32.86963272 1433.2329483 C33.28364211 1427.37111926 33.70661886 1421.50996891 34.13142061 1415.64891338 C34.49406876 1410.62949004 34.85141538 1405.6096946 35.20877826 1400.58989263 C36.40867332 1383.73734426 37.62722263 1366.88617534 38.85205817 1350.03542471 C38.99864581 1348.01863132 39.14517403 1346.00183362 39.29168892 1343.98503494 C41.79997232 1309.46460496 44.33583296 1274.94622104 46.88018793 1240.42843453 C49.24377813 1208.36297774 51.59953706 1176.29694771 53.94921875 1144.23046875 C54.03132864 1143.11000539 54.03132864 1143.11000539 54.11509731 1141.9669064 C58.31368392 1084.67182142 62.4130031 1027.37009052 66.4375 970.0625 C66.71949023 966.0475862 67.0014966 962.03267353 67.2835083 958.01776123 C67.35303711 957.02789789 67.42256592 956.03803456 67.49420166 955.01817536 C68.25461101 944.1930616 69.01562961 933.36799078 69.77734375 922.54296875 C69.84456918 921.58742474 69.91179461 920.63188072 69.98105717 919.64738083 C73.07220174 875.71725 76.27583568 831.79554029 79.5 787.875 C79.56593023 786.97687513 79.63186046 786.07875026 79.69978857 785.15340948 C79.76549756 784.25830113 79.83120654 783.36319278 79.89890671 782.44095993 C80.82920998 769.76798818 81.75902873 757.09498112 82.6875 744.421875 C82.7536794 743.51865108 82.8198588 742.61542716 82.88804364 741.68483281 C85.20723301 710.02653667 87.48804078 678.36555918 89.75 646.703125 C89.82862085 645.602617 89.90724171 644.502109 89.98824501 643.36825228 C91.52920453 621.79548281 93.06676265 600.22247099 94.60104799 578.64922583 C94.95634588 573.65349762 95.31184371 568.65778385 95.66786957 563.66210747 C95.8074388 561.70333805 95.94699829 559.74456794 96.08654785 557.78579712 C96.15496997 556.82540382 96.2233921 555.86501052 96.29388762 554.87551439 C96.69862814 549.18947765 97.10061599 543.50325427 97.5003562 537.81686389 C98.74224961 520.15882177 100.01719618 502.50578511 101.45334339 484.86235547 C101.84490947 480.03025737 102.2265128 475.19735868 102.60864019 470.36450613 C102.96301695 465.90417646 103.33638819 461.44598303 103.72498417 456.98851109 C103.89987896 454.94572407 104.06520079 452.90243948 104.22613525 450.85850906 C104.41971197 448.40270187 104.62887811 445.9480523 104.85675049 443.49518967 C104.97630096 441.88892653 104.97630096 441.88892653 105.0982666 440.25021362 C105.21541897 438.86379575 105.21541897 438.86379575 105.33493805 437.44936943 C104.884606 434.1561349 103.51897211 433.07295841 101 431 C99.12759105 429.8967873 99.12759105 429.8967873 97.10986328 429.1315918 C96.35045944 428.8193718 95.5910556 428.50715179 94.80863953 428.18547058 C93.57691765 427.69727592 93.57691765 427.69727592 92.3203125 427.19921875 C91.45247635 426.84600052 90.5846402 426.49278229 89.69050598 426.12886047 C86.83932081 424.97160053 83.98241152 423.82929032 81.125 422.6875 C79.13457015 421.88414915 77.14442014 421.08010464 75.15454102 420.27539062 C70.08046803 418.22729994 65.00096771 416.19310129 59.91888428 414.16497803 C57.15823778 413.06315548 54.39856442 411.95893308 51.63916016 410.85400391 C31.30861579 402.70615874 31.30861579 402.70615874 10.8125 394.98828125 C10.17639297 394.75623993 9.54028595 394.52419861 8.88490295 394.28512573 C5.96300885 393.22177481 3.0372856 392.17207184 0.10327148 391.14257812 C-11.33648836 387.04037253 -11.33648836 387.04037253 -14.10629368 381.97804546 C-15.38081295 377.7310392 -15.25302601 373.71873516 -15.2094574 369.30830383 C-15.20775185 368.33098419 -15.20604631 367.35366455 -15.20428908 366.34672916 C-15.19599452 363.08040378 -15.17312501 359.81434838 -15.15014648 356.5480957 C-15.14089908 354.21185506 -15.1324583 351.87561111 -15.12477016 349.53936481 C-15.10127149 343.29298205 -15.06460073 337.04674674 -15.02406836 330.80045366 C-15.00054574 327.08617421 -14.97987986 323.37189137 -14.96034622 319.65758896 C-14.87553479 303.6026722 -14.76560734 287.54798715 -14.6446769 271.4933071 C-14.60734172 266.53661737 -14.5707403 261.57992265 -14.53457451 256.62322426 C-14.52931251 255.90235268 -14.52405051 255.1814811 -14.51862906 254.43876493 C-14.50792051 252.97172393 -14.49721224 251.50468293 -14.48650425 250.03764192 C-14.38728844 236.45858722 -14.28560687 222.87955186 -14.1831094 209.30052159 C-14.09060776 197.03520224 -14.00131931 184.76986197 -13.91354198 172.50450798 C-13.82204084 159.72326851 -13.7282421 146.9420476 -13.63215441 134.16084176 C-13.5788088 127.05999236 -13.52626392 119.95913964 -13.4761219 112.85826683 C-13.37528661 98.65202056 -13.26144749 84.44602962 -13.11254519 70.2401939 C-13.04575271 63.83968028 -12.98666209 57.43923254 -12.94327927 51.038517 C-12.89912006 44.54186325 -12.8340648 38.04561413 -12.75594413 31.54927886 C-12.72991303 29.11426003 -12.71066218 26.67915824 -12.69856083 24.24403036 C-12.68085384 20.90761772 -12.63877793 17.5723733 -12.59056091 14.23628235 C-12.59103027 13.25148396 -12.59149962 12.26668556 -12.5919832 11.2520448 C-12.45966493 4.61963143 -12.45966493 4.61963143 -10.08808994 1.42273235 C-6.22213811 -1.21135665 -4.58906985 -1.16581451 0 0 Z " fill="#FFFFFF" transform="translate(1026,295)"/>
<path d="M0 0 C2.64871819 2.64871819 2.22749845 4.56381489 2.23755693 8.16602886 C2.23145135 9.05384111 2.22534577 9.94165336 2.21905518 10.85636902 C2.22723742 12.85170542 2.23698466 14.8470358 2.24799728 16.84235859 C2.25178186 17.93542619 2.25556643 19.0284938 2.25946569 20.15468466 C2.40542287 47.0852013 3.76587698 73.92094328 5.37011719 100.7980957 C5.42970673 101.79845288 5.48929626 102.79881005 5.55069155 103.82948108 C6.32086299 116.73679253 7.11163506 129.64280518 7.91018601 142.54838857 C8.41411385 150.69654844 8.91245124 158.84503568 9.40752411 166.99373817 C9.47957175 168.17944236 9.5516194 169.36514655 9.6258503 170.58678116 C9.69834847 171.77990966 9.77084664 172.97303816 9.84554172 174.20232207 C15.4743363 266.83563519 21.32627119 359.45552041 30.5574579 504.60164183 C31.838452 524.71451724 33.11704516 544.8275443 34.39404297 564.94067383 C34.4383658 565.6387631 34.48268863 566.33685238 34.52835457 567.05609587 C34.92974555 573.37806381 35.33112056 579.70003275 35.73248149 586.02200259 C37.34657193 611.44572938 38.96216469 636.86936075 40.578125 662.29296875 C40.65891316 663.56405573 40.73970132 664.8351427 40.82293761 666.14474747 C41.82317885 681.88183695 42.82410929 697.61888231 43.82626152 713.35585022 C44.10345217 717.70888078 44.38039766 722.06192683 44.65711403 726.41498756 C44.97567083 731.42605622 45.29474711 736.43709152 45.61423394 741.44810096 C45.72912285 743.25139591 45.84383369 745.05470221 45.95834139 746.8580214 C46.0384413 748.11921314 46.0384413 748.11921314 46.12015939 749.40588349 C46.19751706 750.62502759 46.19751706 750.62502759 46.27643751 751.86880087 C46.42394065 754.1658234 46.57693001 756.46243389 46.73023081 758.75907552 C46.91363766 761.53678859 47.06582142 764.31341169 47.19148779 767.09431136 C47.25637097 768.33755938 47.32125415 769.58080741 47.38810349 770.86172962 C47.43519604 771.93356741 47.4822886 773.00540519 47.53080821 774.10972291 C48.06139885 777.37822422 49.07264176 779.32745236 51 782 C53.07499585 783.5344523 53.07499585 783.5344523 55.515625 784.65625 C56.87965454 785.34352173 56.87965454 785.34352173 58.27124023 786.04467773 C59.74572632 786.76506226 59.74572632 786.76506226 61.25 787.5 C63.35200992 788.56034098 65.45222406 789.62424815 67.55078125 790.69140625 C69.16267334 791.50955811 69.16267334 791.50955811 70.80712891 792.34423828 C75.75872532 794.91204122 80.59836563 797.66503561 85.4375 800.4375 C93.27951934 804.91721838 101.17019485 809.28621746 109.125 813.5625 C117.4851953 818.06248937 125.76800351 822.67437537 133.99658203 827.41040039 C140.80229226 831.32583018 147.64426687 835.1728998 154.5 839 C162.18935025 843.29452468 169.86026595 847.61780637 177.5 852 C186.1561279 856.96422723 194.85255998 861.85355646 203.56469727 866.71875 C208.64738806 869.55828565 213.72488933 872.40581504 218.78515625 875.28515625 C231.82809258 882.70646674 244.98632292 889.88455083 258.22045898 896.95874023 C261.08508577 898.49863003 263.93478268 900.06421436 266.78149414 901.63696289 C281.12105514 909.54586344 295.65696915 917.00772384 310.3125 924.3125 C311.5081826 924.90952788 312.70384069 925.50660486 313.8994751 926.10372925 C332.02780748 935.1515582 350.26111653 943.85879348 368.79974365 952.02996826 C375.86315954 955.14403159 382.91954875 958.27367363 389.9697876 961.41744995 C392.62064266 962.59529355 395.27657098 963.7610607 397.93310547 964.92602539 C399.56370979 965.65067985 401.19409196 966.37583446 402.82421875 967.1015625 C403.56327957 967.42177872 404.30234039 967.74199493 405.063797 968.07191467 C405.75905991 968.38414474 406.45432281 968.69637482 407.1706543 969.01806641 C407.76839157 969.28148834 408.36612885 969.54491028 408.98197937 969.8163147 C413.376712 972.39407844 416.40651996 974.34155647 418.12985229 979.15730286 C418.30984772 980.37101059 418.48984314 981.58471832 418.67529297 982.83520508 C418.83797071 983.86992935 418.83797071 983.86992935 419.00393486 984.92555714 C419.36440799 987.28044474 419.68371211 989.6387927 420 992 C420.24906811 993.7498757 420.49878794 995.49965872 420.74908447 997.24935913 C421.60864129 1003.37281963 422.4015616 1009.50444593 423.1953125 1015.63671875 C423.50311281 1017.98674992 423.81138963 1020.33671871 424.12010193 1022.68663025 C424.78095041 1027.7221239 425.43937804 1032.7579251 426.09573364 1037.79400635 C427.76622003 1050.61050161 429.44743077 1063.42558763 431.13296914 1076.24011135 C431.31818096 1077.64833783 431.50333322 1079.05657215 431.68842673 1080.46481419 C434.57684293 1102.43974005 437.54237695 1124.40320802 440.56819344 1146.35962415 C440.96929217 1149.2714862 441.36961898 1152.18345413 441.7698977 1155.095429 C443.50708227 1167.73290109 445.24595702 1180.37009858 447.00931567 1193.00394875 C447.82633274 1198.86118835 448.63377845 1204.7197229 449.43797493 1210.57873726 C449.7699673 1212.98432881 450.10539433 1215.3894492 450.44448662 1217.79405022 C450.90738659 1221.07851819 451.35851921 1224.36440011 451.80688477 1227.65087891 C451.94434175 1228.60472819 452.08179874 1229.55857748 452.2234211 1230.54133129 C452.90621224 1235.6475776 453.01886898 1239.94053286 452 1245 C441.40109423 1245.6765259 433.47495738 1240.81635871 424.6875 1235.375 C423.60863525 1234.71693359 422.52977051 1234.05886719 421.41821289 1233.38085938 C419.11970091 1231.97836631 416.82325168 1230.57297292 414.52929688 1229.16308594 C411.02436572 1227.01126298 407.50596789 1224.88222674 403.984375 1222.7578125 C390.80694514 1214.80270256 377.70515055 1206.73428421 364.66796875 1198.55078125 C359.2533561 1195.15292499 353.81605562 1191.79278364 348.375 1188.4375 C338.45339695 1182.31049797 328.61455557 1176.05741549 318.78808594 1169.77929688 C315.9677873 1167.97944255 313.14456727 1166.18426432 310.3203125 1164.390625 C299.8418197 1157.73548832 289.38953853 1151.04289247 278.97851562 1144.28271484 C277.08675564 1143.05624558 275.19240304 1141.83391688 273.296875 1140.61328125 C258.97185384 1131.38295608 244.74087373 1122.0082215 230.50238037 1112.64526367 C227.83471723 1110.89132998 225.16664317 1109.13802249 222.49853516 1107.38476562 C217.63005461 1104.18528555 212.76294795 1100.98372367 207.89663696 1097.78094482 C205.99316575 1096.52848856 204.08934718 1095.27656 202.18515015 1094.02520752 C192.03845503 1087.35629774 181.94099919 1080.6311005 171.95410156 1073.72509766 C165.41871077 1069.20991185 158.82275471 1064.78350457 152.23675537 1060.34265137 C148.17744329 1057.60525146 144.11989401 1054.86524182 140.0625 1052.125 C139.27036102 1051.59001892 138.47822205 1051.05503784 137.66207886 1050.50384521 C128.08623281 1044.03449588 118.53767981 1037.52547188 109 1031 C107.37370569 1029.88800946 105.7474036 1028.77603031 104.12109375 1027.6640625 C100.1931803 1024.97777419 96.26637108 1022.28987632 92.33984375 1019.6015625 C89.94576576 1017.96287806 87.55109346 1016.32506552 85.15625 1014.6875 C77.82716568 1009.67558039 70.50101352 1004.65961786 63.1875 999.625 C46.83946668 988.37846617 30.41553941 977.24446532 13.97717285 966.13061523 C-10.64577219 949.48285099 -35.23747124 932.79719164 -59.56005859 915.71240234 C-61.86740447 914.09305834 -64.17754023 912.47777503 -66.48828125 910.86328125 C-73.60821451 905.87932797 -80.6862284 900.83702128 -87.6875 895.6875 C-88.33493164 895.22005371 -88.98236328 894.75260742 -89.64941406 894.27099609 C-98.40407951 887.76352978 -102.87045498 881.38959748 -104.53533745 870.4977684 C-105.04408184 866.16315952 -105.48018627 861.82636566 -105.89428711 857.48193359 C-106.06179246 855.80611848 -106.23023024 854.13039635 -106.39951992 852.45476055 C-106.76263967 848.84058787 -107.11918851 845.22584878 -107.47062302 841.61052132 C-108.03488665 835.8060774 -108.61369229 830.00313623 -109.19424438 824.20030212 C-110.02253965 815.90655853 -110.84410499 807.61217314 -111.66091919 799.31729126 C-113.68327544 778.78455858 -115.73978965 758.25522672 -117.79482436 737.72574353 C-118.11773529 734.49843139 -118.44023608 731.27107849 -118.76262856 728.04371452 C-122.07807141 694.8616129 -125.54283783 661.7009724 -129.20468903 628.55519104 C-139.21327708 537.85154817 -147.24610763 446.96340955 -164.94454956 221.21026611 C-167.1539297 188.03764855 -170.74671784 155.49657088 -176.39916992 122.73339844 C-178.45314496 109.97054337 -178.45314496 109.97054337 -175 105 C-172.62890625 103.04296875 -172.62890625 103.04296875 -169.5625 101.1875 C-168.97033691 100.82333984 -168.37817383 100.45917969 -167.76806641 100.08398438 C-166.35924791 99.22134448 -164.94572102 98.36636974 -163.52880859 97.51708984 C-160.62064666 95.77241729 -157.72630006 94.00590426 -154.83203125 92.23828125 C-149.4312882 88.94482389 -144.02220782 85.66546206 -138.6089325 82.39265442 C-132.64641979 78.78747597 -126.6903572 75.17172978 -120.73535156 71.5541687 C-117.82638317 69.78706658 -114.91713168 68.02043078 -112.0078125 66.25390625 C-111.43065491 65.90344742 -110.85349731 65.55298859 -110.2588501 65.19190979 C-106.73972408 63.0553414 -103.21958186 60.92045784 -99.69866943 58.78683472 C-86.70897227 50.91516697 -73.74100005 43.01065847 -60.81494141 35.03466797 C-53.2579461 30.3761516 -45.6736252 25.76469392 -38.07836914 21.16900635 C-22.03719203 11.84180199 -22.03719203 11.84180199 -6.8203125 1.29296875 C-4.4102533 -0.41889733 -2.89190798 -0.38051421 0 0 Z " fill="#FFFFFF" transform="translate(586,545)"/>
<path d="M0 0 C3.97683224 1.16881808 7.15350308 3.07856348 10.58203125 5.3359375 C11.27498291 5.78074463 11.96793457 6.22555176 12.68188477 6.68383789 C14.88388474 8.1003103 17.07670952 9.53030835 19.26953125 10.9609375 C20.67775908 11.86946115 22.08660579 12.7770263 23.49609375 13.68359375 C27.05499383 15.97568257 30.60589353 18.27985602 34.15478516 20.58740234 C36.88123315 22.35824007 39.61223946 24.12197066 42.34326172 25.88574219 C52.82913835 32.66000288 63.28943202 39.47339306 73.73535156 46.30908203 C75.90441667 47.7229447 78.0802954 49.12486011 80.26171875 50.51953125 C81.31617188 51.20144531 82.370625 51.88335938 83.45703125 52.5859375 C84.31683594 53.13507812 85.17664062 53.68421875 86.0625 54.25 C89.94272823 57.25803534 91.98197383 59.5726666 92.99394226 64.45825195 C93.54757802 69.74928086 92.50124475 74.62065161 91.44067383 79.79296875 C91.12702472 81.39845109 91.12702472 81.39845109 90.80703926 83.03636742 C90.10435252 86.61779467 89.38412469 90.19546652 88.6640625 93.7734375 C88.15582 96.34642685 87.64873406 98.91964488 87.14271545 101.49307251 C86.04807312 107.05172173 84.94475061 112.60858955 83.83563232 118.16436768 C82.0554446 127.08279455 80.2931802 136.00471589 78.53369141 144.92724609 C77.92665931 148.00462485 77.3195203 151.0819825 76.71234131 154.15933228 C76.56055074 154.9287164 76.40876017 155.69810052 76.25236988 156.49079931 C75.15879432 162.03268892 74.06281328 167.57409978 72.96588135 173.11532593 C68.65367719 194.90254962 64.3830521 216.69756573 60.1484375 238.5 C60.00343599 239.24650023 59.85843447 239.99300046 59.70903897 240.76212192 C58.10162623 249.03793525 56.49549614 257.31399718 54.88998413 265.59017944 C52.13078994 279.81325534 49.36618519 294.03528021 46.60162282 308.25731349 C46.16885913 310.48370062 45.736141 312.7100966 45.30343437 314.93649483 C40.98085718 337.17687603 36.64848091 359.41533404 32.30859375 381.65234375 C32.09843132 382.72921904 32.09843132 382.72921904 31.88402319 383.82784939 C29.08100937 398.19037353 26.27681077 412.552666 23.47093773 426.91463184 C22.51268276 431.81984525 21.55477139 436.72512572 20.59690475 441.63041496 C19.95402989 444.92177997 19.31060629 448.21303736 18.66714478 451.50428772 C18.27217988 453.52652894 17.87727056 455.54878101 17.48242188 457.57104492 C17.20241616 459.00311893 17.20241616 459.00311893 16.91675377 460.46412373 C15.97001792 465.31841965 15.03812573 470.17504252 14.12768555 475.0362854 C13.94468651 476.01055387 13.76168747 476.98482233 13.57314301 477.98861408 C13.2268647 479.83720101 12.88314651 481.68626995 12.54239655 483.5358839 C12.38930779 484.35297486 12.23621902 485.17006582 12.07849121 486.01191711 C11.94578575 486.72914601 11.81308029 487.44637491 11.67635345 488.18533802 C11.26953125 489.9609375 11.26953125 489.9609375 10.26953125 491.9609375 C15.20497571 490.34230967 20.1341395 488.70620161 25.05834961 487.05371094 C26.7338272 486.49419187 28.41091122 485.93945934 30.08959961 485.38964844 C32.5042386 484.5978698 34.91255058 483.78897835 37.3203125 482.9765625 C38.07041092 482.73472229 38.82050934 482.49288208 39.59333801 482.24371338 C43.7614683 480.81597558 46.03701761 479.76574487 48.26953125 475.9609375 C49.1050677 472.85233399 49.1050677 472.85233399 49.59425354 469.30116272 C49.75429238 468.29490972 49.75429238 468.29490972 49.91756433 467.26832837 C50.27322484 465.01387459 50.61222454 462.75722998 50.95141602 460.50024414 C51.20476115 458.87228169 51.45913572 457.24447916 51.71445465 455.6168251 C52.41255673 451.14743205 53.09623834 446.67593355 53.77769017 442.20397592 C54.51117151 437.40794821 55.25819732 432.61403029 56.00376892 427.81987 C57.28787017 419.55146456 58.56389489 411.28184643 59.83447266 403.01135254 C61.83474335 389.99236588 63.85141343 376.9759487 65.87109375 363.95996094 C66.55515598 359.55039565 67.23912567 355.14081601 67.92306519 350.73123169 C68.17827779 349.08592356 68.17827779 349.08592356 68.4386462 347.40737689 C69.65472409 339.56628129 70.86860165 331.72484689 72.08157349 323.88327026 C78.48908332 282.46620849 84.98529473 241.06335854 91.51537651 199.66546482 C92.6188643 192.66880275 93.72015594 185.67179649 94.82080251 178.67468697 C95.86340307 172.04691961 96.90721075 165.41934319 97.95202178 158.79192394 C98.54645766 155.02126252 99.14052248 151.25054411 99.73328972 147.47961998 C100.89823995 140.07119089 102.07110035 132.66411986 103.26164049 125.25975245 C103.85835091 121.54468363 104.44813255 117.82864263 105.02963257 114.11116028 C105.68293919 109.9356596 106.34769886 105.76211555 107.0195837 101.58956575 C107.27641065 99.98210554 107.52927415 98.37400651 107.77795506 96.76526594 C108.12383109 94.53210755 108.48399163 92.30169074 108.84753418 90.0713501 C109.0499749 88.79323582 109.25241562 87.51512154 109.46099091 86.19827652 C110.2596254 83.00059983 110.95420098 81.27689747 113.26953125 78.9609375 C118.35289012 78.08991252 121.62169653 79.90356748 125.76953125 82.5859375 C126.40769775 82.98345215 127.04586426 83.3809668 127.70336914 83.79052734 C129.90160286 85.16614099 132.08571608 86.56255786 134.26953125 87.9609375 C135.94498382 89.02395571 137.62077971 90.08643296 139.296875 91.1484375 C142.98884521 93.49175668 146.67517298 95.84370921 150.359375 98.19921875 C156.47025475 102.09893163 162.61768086 105.9388002 168.76953125 109.7734375 C171.71959981 111.61693548 174.66920117 113.46117851 177.61865234 115.30566406 C179.28944052 116.34894494 180.96147162 117.39024044 182.63525391 118.42871094 C184.62186208 119.6618402 186.60272322 120.90363831 188.58203125 122.1484375 C189.63003906 122.80199219 190.67804688 123.45554687 191.7578125 124.12890625 C194.38194865 126.04293402 195.68791197 127.13625188 197.26953125 129.9609375 C197.5234263 132.92285625 197.5916774 135.65242807 197.515625 138.609375 C197.50373642 139.5210141 197.49184784 140.4326532 197.479599 141.37191772 C197.42976186 144.56898546 197.35215196 147.76455229 197.26953125 150.9609375 C197.24046692 152.1523938 197.21140259 153.3438501 197.18145752 154.57141113 C197.012512 161.3281467 196.82201956 168.08402709 196.61885738 174.83979988 C195.7247385 204.88598066 195.03313544 234.9313603 194.66967773 264.98876953 C194.65350616 266.29741108 194.65350616 266.29741108 194.63700788 267.63248983 C194.20025849 303.16779161 194.33120706 338.68566018 194.66600198 374.22097552 C194.78366123 386.80509096 194.86951219 399.38919012 194.93833923 411.97366333 C194.943465 412.9028919 194.94859076 413.83212048 194.95387185 414.78950749 C195.00082798 423.33189699 195.04593678 431.87429592 195.09012997 440.41670012 C195.11995192 446.15638696 195.15088375 451.89606696 195.18286133 457.63574219 C195.18814842 458.58725147 195.19343551 459.53876076 195.19888281 460.51910366 C195.28746479 476.13198365 195.43637123 491.74380506 195.60414607 507.35601006 C195.77684752 523.56636896 195.88094115 539.77615549 195.92245382 555.98738492 C195.95007309 565.90356354 196.03081089 575.81626782 196.18267416 585.73133595 C196.28102299 592.47853444 196.31300743 599.22401734 196.29304285 605.97189502 C196.2835264 609.8528053 196.30271434 613.72775203 196.40177155 617.60753822 C196.95140498 640.19592268 196.95140498 640.19592268 192.48769641 646.46241045 C188.30329502 650.59748796 183.6192949 653.4158826 178.33712757 655.94136071 C175.71960492 657.23211815 173.46937609 658.86163279 171.171875 660.65234375 C163.37254128 666.30195783 155.54166762 671.90203813 147.66381836 677.44165039 C142.5036293 681.07554436 137.38014976 684.75771824 132.26953125 688.4609375 C126.46386565 692.66779674 120.63431406 696.83689022 114.76953125 700.9609375 C105.87876553 707.21526626 97.07120124 713.5820928 88.26953125 719.9609375 C78.77270712 726.84358209 69.25796615 733.6951569 59.66381836 740.44165039 C54.5036293 744.07554436 49.38014976 747.75771824 44.26953125 751.4609375 C38.46386565 755.66779674 32.63431406 759.83689022 26.76953125 763.9609375 C17.87876553 770.21526626 9.07120124 776.5820928 0.26953125 782.9609375 C-9.22516062 789.84203677 -18.73811864 796.69154449 -28.32958984 803.43725586 C-33.55300942 807.11615492 -38.74195406 810.84068664 -43.91796875 814.5859375 C-44.66304687 815.12436279 -45.408125 815.66278809 -46.17578125 816.2175293 C-49.75735099 818.80653528 -53.33477382 821.40099474 -56.90625 824.00390625 C-58.18087375 824.92724325 -59.45560711 825.85042898 -60.73046875 826.7734375 C-61.31207764 827.20027832 -61.89368652 827.62711914 -62.49291992 828.06689453 C-66.50365299 830.9609375 -66.50365299 830.9609375 -68.73046875 830.9609375 C-66.88189294 823.86815484 -64.78845296 816.93815845 -62.31640625 810.0390625 C-61.82649704 808.65712456 -61.82649704 808.65712456 -61.32669067 807.24726868 C-60.25697496 804.23371009 -59.18132132 801.22231008 -58.10546875 798.2109375 C-57.3441715 796.07031274 -56.5831081 793.9296048 -55.82226562 791.78881836 C-51.02602196 778.31117816 -46.16403569 764.85788875 -41.27941895 751.41207886 C-25.22777234 707.20840699 -10.23151838 662.69271083 4.26953125 617.9609375 C-16.7609028 625.3227762 -37.74550666 632.81223803 -58.71673203 640.34080124 C-60.79444282 641.08646653 -62.87236985 641.83152639 -64.9503479 642.57644653 C-79.52354509 647.80176908 -94.07988945 653.06453336 -108.58203125 658.484375 C-109.72882858 658.91162872 -110.87562592 659.33888245 -112.05717468 659.77908325 C-117.41722347 661.77635275 -122.77235231 663.78503183 -128.11938477 665.81689453 C-130.00387193 666.52168604 -131.88854468 667.22598161 -133.7734375 667.9296875 C-134.61617218 668.25552826 -135.45890686 668.58136902 -136.32717896 668.91708374 C-143.47368056 671.55924393 -143.47368056 671.55924393 -147.73046875 669.9609375 C-148.73046875 668.9609375 -148.73046875 668.9609375 -148.87595177 665.83974457 C-148.73279063 662.0228426 -148.20347445 658.63067555 -147.40274048 654.90002441 C-147.1876549 653.88359021 -147.1876549 653.88359021 -146.96822417 652.84662199 C-146.48770617 650.58439442 -145.99702809 648.32449641 -145.50634766 646.06445312 C-145.15621954 644.42645154 -144.80672348 642.78831475 -144.45780563 641.15005493 C-143.50086618 636.66582775 -142.53505136 632.18355231 -141.56776381 627.70154762 C-140.53310116 622.89976244 -139.50672597 618.09620595 -138.47940063 613.29284668 C-136.70834067 605.01748477 -134.93215566 596.74323665 -133.15246582 588.46972656 C-130.5725042 576.47564721 -128.00068575 564.4798332 -125.43105984 552.48353577 C-121.60836728 534.63772914 -117.78143981 516.79283503 -113.95081043 498.94873047 C-108.77549395 474.84050539 -103.61150173 450.72987773 -98.45703125 426.6171875 C-98.27719074 425.7759049 -98.09735024 424.93462231 -97.91206002 424.0678463 C-96.30958806 416.57148772 -94.70724733 409.0751011 -93.1051302 401.57866669 C-90.84792543 391.01729609 -88.58909754 380.45627377 -86.32917702 369.89548397 C-79.66617656 338.75823883 -73.01410077 307.61874064 -66.39465332 276.47220469 C-28.32392446 97.34250379 -28.32392446 97.34250379 -13.25634766 36.47607422 C-12.97097137 35.32259491 -12.68559509 34.1691156 -12.39157104 32.98068237 C-11.85457048 30.8121248 -11.31617139 28.64391291 -10.77615356 26.47610474 C-9.07033015 19.56209294 -7.62005106 12.6463137 -6.45556641 5.62109375 C-5.37179769 1.64508568 -4.22417835 -0.06043174 0 0 Z " fill="#FFFFFF" transform="translate(1400.73046875,544.0390625)"/>
</svg>
