<svg xmlns="http://www.w3.org/2000/svg" viewBox="0 0 1773.24 300.72"><defs><style>.cls-1{fill:#fff;}</style></defs><g id="_480_logo" data-name="480 logo"><path class="cls-1" d="M268.68,179.68v12.79c0,55.85-46,101.8-101.8,101.8-50.36,0-92.67-37.37-100.5-85.67H0L62,0H90.88L37.52,179.68H65.9c6.37-49.9,49.47-89,101-89a101.69,101.69,0,0,1,47.28,11.65l-16,23.69A73.46,73.46,0,0,0,94.57,179.68h67.25L142.24,208.6h-47a73.44,73.44,0,0,0,143.32-.12l-.23.12H165.09l19.58-28.92Z"/><polygon class="cls-1" points="51.16 0 16.79 115.71 14.47 115.71 48.84 0 51.16 0"/><path class="cls-1" d="M204.52,300.72l-.73-2.1a112.55,112.55,0,0,0,75.46-106.15,113.93,113.93,0,0,0-.71-12.67l2.21-.25a116,116,0,0,1,.73,12.92A114.78,114.78,0,0,1,204.52,300.72Z"/><path class="cls-1" d="M380.4,228.28V53.2h22.19V208.55h97.65v19.73Z"/><path class="cls-1" d="M573.26,121.78h11.4l43.5,106.5h-14.4l-12-31.2H556l-12,31.2h-14.4Zm24.54,64.8L579,137.38,560,186.58Z"/><path class="cls-1" d="M657.41,228.28V121.78H703a28.44,28.44,0,0,1,12.9,2.93,33.82,33.82,0,0,1,10.2,7.8,36.42,36.42,0,0,1,6.75,11,33.39,33.39,0,0,1,2.4,12.37,35.63,35.63,0,0,1-2.78,13.95,32,32,0,0,1-7.8,11.25,27.48,27.48,0,0,1-11.77,6.45l25.8,40.8h-15.3L699.11,190h-28.2v38.25ZM670.91,178h32.25a15.72,15.72,0,0,0,9.67-3.07,20.66,20.66,0,0,0,6.45-8.18,26.09,26.09,0,0,0,2.33-10.95,22.9,22.9,0,0,0-2.7-11,22.48,22.48,0,0,0-7-8,16.54,16.54,0,0,0-9.6-3H670.91Z"/><path class="cls-1" d="M784.46,146.68v81.6H771V121.78h11.4L847.46,205v-83.1H861V228.28h-12.3Z"/><path class="cls-1" d="M944.21,229a42.86,42.86,0,0,1-19.58-4.57,51.79,51.79,0,0,1-15.82-12.3,58,58,0,0,1-10.5-17.4,55,55,0,0,1-3.75-20,56.5,56.5,0,0,1,14.17-37.65,48.59,48.59,0,0,1,15.75-11.77A45.69,45.69,0,0,1,944.21,121q15.43,0,25.5,6.45a41.62,41.62,0,0,1,15.15,16.8l-10.35,7.2a31.17,31.17,0,0,0-12.75-13.8,36.13,36.13,0,0,0-17.85-4.5,31.25,31.25,0,0,0-14.7,3.45A35.15,35.15,0,0,0,917.88,146a42.86,42.86,0,0,0-7.2,13.42,49.45,49.45,0,0,0-2.47,15.6A46.53,46.53,0,0,0,911,191.16a41.37,41.37,0,0,0,7.88,13.35,37.77,37.77,0,0,0,11.85,9.07,32.68,32.68,0,0,0,14.55,3.3,34.94,34.94,0,0,0,17.4-4.65q8.24-4.65,15.6-14.25v14Q963.86,229,944.21,229Zm32.4-43.65h-23v-10.2H988v53.1h-11.4Z"/><path class="cls-1" d="M1095.85,216.28v12h-72.3V121.78h71v12h-57.45v34.5h50v11.25h-50v36.75Z"/><path class="cls-1" d="M1161.7,121.78h11.4l43.5,106.5h-14.4l-11.94-31.2h-45.81l-12,31.2h-14.4Zm24.54,64.8-18.84-49.2-18.91,49.2Z"/><path class="cls-1" d="M1245.85,228.28V121.78h45.6a28.44,28.44,0,0,1,12.9,2.93,33.82,33.82,0,0,1,10.2,7.8,36.42,36.42,0,0,1,6.75,11,33.39,33.39,0,0,1,2.4,12.37,35.62,35.62,0,0,1-2.77,13.95,32.15,32.15,0,0,1-7.8,11.25,27.51,27.51,0,0,1-11.78,6.45l25.8,40.8h-15.3L1287.55,190h-28.2v38.25Zm13.5-50.25h32.25a15.75,15.75,0,0,0,9.68-3.07,20.75,20.75,0,0,0,6.45-8.18,26.08,26.08,0,0,0,2.32-10.95,22.9,22.9,0,0,0-2.7-11,22.48,22.48,0,0,0-7-8,16.54,16.54,0,0,0-9.6-3h-31.35Z"/><path class="cls-1" d="M1406.05,228.28a63,63,0,0,1,1-11.38,34.13,34.13,0,0,1,3.6-10.17,36.79,36.79,0,0,1,7.43-9.34,63,63,0,0,1,12.45-8.73q4.5-2.58,9.07-4.86a84.8,84.8,0,0,0,8.55-4.85,25.52,25.52,0,0,0,6.38-5.7,11.47,11.47,0,0,0,2.4-7.21,12.87,12.87,0,0,0-2-6.82,14.88,14.88,0,0,0-6-5.37,21.08,21.08,0,0,0-9.82-2.07,26.27,26.27,0,0,0-8.18,1.2,28.65,28.65,0,0,0-6.6,3.08,35.88,35.88,0,0,0-5.1,3.9q-2.18,2-3.67,3.67l-8.25-9.3a37.66,37.66,0,0,1,4-3.67,48.59,48.59,0,0,1,7.2-4.73,51.37,51.37,0,0,1,10.12-4.12,44.18,44.18,0,0,1,12.68-1.73,36,36,0,0,1,16,3.27,25,25,0,0,1,10.28,8.8,22.22,22.22,0,0,1,3.6,12.37,20.8,20.8,0,0,1-2.48,10.35,29.16,29.16,0,0,1-6.3,7.77,49.65,49.65,0,0,1-7.95,5.71q-4.12,2.35-7.42,4-6.75,3.35-11.55,6.09a49.77,49.77,0,0,0-7.88,5.41,26.29,26.29,0,0,0-5,5.55,21.07,21.07,0,0,0-2.77,6.85h53v12Z"/><path class="cls-1" d="M1578.85,185a52,52,0,0,1-4.95,23.12A39.7,39.7,0,0,1,1560.4,224a35.89,35.89,0,0,1-39,0,39.7,39.7,0,0,1-13.5-15.89,52,52,0,0,1-5-23.12,52,52,0,0,1,5-23.13,40.26,40.26,0,0,1,13.5-16,35.48,35.48,0,0,1,39,0,40.26,40.26,0,0,1,13.5,16A52,52,0,0,1,1578.85,185Zm-13.35,0a43,43,0,0,0-3.15-17,27.19,27.19,0,0,0-8.7-11.46,20.87,20.87,0,0,0-12.75-4.12,21.1,21.1,0,0,0-12.9,4.12,27.19,27.19,0,0,0-8.7,11.46,43,43,0,0,0-3.15,17,42.45,42.45,0,0,0,3.15,17,27.27,27.27,0,0,0,8.7,11.39,21.09,21.09,0,0,0,12.9,4.11,20.86,20.86,0,0,0,12.75-4.11,27.27,27.27,0,0,0,8.7-11.39A42.45,42.45,0,0,0,1565.5,185Z"/><path class="cls-1" d="M1653.1,224.83q-1.65.75-4.5,1.95a42.86,42.86,0,0,1-6.6,2.1,34,34,0,0,1-8,.9,22.35,22.35,0,0,1-8.85-1.72,14.17,14.17,0,0,1-6.45-5.4,16.56,16.56,0,0,1-2.4-9.23V160.78H1605.7V150.43h10.65v-26.1h13.2v26.1h17.55v10.35h-17.55v48.6q.3,4.2,2.85,6.23a9.36,9.36,0,0,0,6,2,18.84,18.84,0,0,0,7.2-1.35,45.23,45.23,0,0,0,4.35-1.95Z"/><path class="cls-1" d="M1748.35,228.28h-13.2V184.87q0-11.9-4.28-17.84t-12.22-5.95a22.25,22.25,0,0,0-10.28,2.67,30.05,30.05,0,0,0-9.07,7.19,28.3,28.3,0,0,0-5.7,10.45v46.89h-13.2V118.78h13.2v48.47a35,35,0,0,1,12.67-13.18,33,33,0,0,1,17.33-4.84,25.33,25.33,0,0,1,11.77,2.46,19.58,19.58,0,0,1,7.58,6.92,31.7,31.7,0,0,1,4.12,10.35,60.75,60.75,0,0,1,1.28,12.87Z"/></g></svg>