<?xml version="1.0" standalone="no"?>
<!DOCTYPE svg PUBLIC "-//W3C//DTD SVG 20010904//EN"
 "http://www.w3.org/TR/2001/REC-SVG-20010904/DTD/svg10.dtd">
<svg version="1.0" xmlns="http://www.w3.org/2000/svg"
 width="2048.000000pt" height="2048.000000pt" viewBox="0 0 2048.000000 2048.000000"
 preserveAspectRatio="xMidYMid meet">

<g transform="translate(0.000000,2048.000000) scale(0.100000,-0.100000)"
fill="#000000" stroke="none">
<path d="M10164 17505 c-24 -24 -25 -29 -22 -137 2 -62 -3 -906 -11 -1875 -13
-1645 -13 -1763 2 -1787 22 -34 38 -41 262 -126 310 -117 889 -352 909 -369
16 -14 18 -26 12 -96 -51 -675 -109 -1475 -161 -2220 -36 -506 -96 -1345 -134
-1865 -39 -520 -84 -1145 -101 -1390 -49 -712 -96 -1363 -165 -2295 -72 -963
-158 -2163 -176 -2438 -11 -180 -8 -207 24 -207 15 0 -31 -40 1677 1450 861
751 1993 1739 2515 2194 1136 992 1093 953 1113 984 14 21 16 73 20 351 2 179
5 372 6 428 1 85 -2 105 -16 119 -24 25 -39 17 -245 -139 -98 -73 -403 -297
-678 -497 -2326 -1692 -3498 -2541 -3502 -2537 -2 3 147 688 332 1523 395
1786 983 4446 1225 5549 94 429 223 1007 286 1285 114 503 143 638 249 1180
31 157 74 359 95 449 22 90 40 177 40 195 0 66 -19 81 -496 386 -253 162
-1025 658 -1718 1102 -930 597 -1266 808 -1288 808 -17 0 -39 -10 -54 -25z"/>
<path d="M9809 17462 c-13 -10 -166 -105 -339 -212 -173 -106 -661 -409 -1085
-673 -1238 -772 -1806 -1125 -2030 -1262 -115 -70 -215 -133 -221 -139 -9 -8
-7 -60 7 -201 24 -244 127 -1548 179 -2265 22 -305 69 -931 105 -1390 35 -459
85 -1114 110 -1455 25 -341 68 -912 95 -1270 27 -357 57 -753 65 -880 18 -264
26 -309 66 -364 26 -36 71 -61 481 -263 249 -122 951 -471 1561 -775 686 -343
1118 -553 1136 -553 31 0 45 12 54 48 3 13 -1 465 -8 1005 -41 2883 -75 5491
-75 5836 -1 145 -5 262 -11 273 -13 23 -43 23 -77 -1 -43 -31 -1639 -1026
-1827 -1140 -93 -57 -180 -112 -193 -124 -42 -39 -43 -66 -28 -639 9 -298 21
-784 27 -1078 13 -582 12 -570 69 -570 15 0 33 7 41 16 7 8 99 75 203 147 105
72 366 252 580 400 214 148 394 271 401 273 9 4 13 -41 18 -178 2 -101 24
-637 47 -1191 30 -711 40 -1011 32 -1019 -7 -7 -97 11 -304 61 -161 40 -486
120 -723 177 -287 71 -436 111 -448 123 -13 13 -20 38 -23 92 -8 132 -53 1135
-104 2344 -27 649 -55 1295 -61 1436 -8 184 -8 262 0 276 10 19 573 350 1760
1035 256 147 478 280 494 296 16 15 39 47 50 72 21 44 22 64 28 735 10 957 29
2278 38 2655 7 261 6 319 -6 338 -16 27 -52 29 -84 4z"/>
<path d="M5774 14992 c-27 -22 -76 -55 -109 -74 -74 -43 -1371 -832 -1475
-897 -45 -29 -81 -59 -89 -76 -15 -32 -12 -61 35 -321 35 -195 61 -446 89
-869 82 -1224 235 -2944 375 -4220 33 -297 98 -926 145 -1398 93 -941 90 -919
163 -989 68 -65 443 -327 1287 -899 154 -105 408 -278 565 -386 1195 -820
2169 -1455 3125 -2038 335 -204 394 -235 451 -235 41 0 44 2 44 26 0 14 -25
206 -55 427 -30 221 -109 806 -174 1299 -66 494 -124 906 -130 916 -19 35 -50
52 -306 165 -706 312 -1044 487 -2182 1130 -521 295 -950 533 -1101 612 -41
21 -80 48 -88 60 -10 16 -20 109 -34 331 -314 4894 -432 6829 -435 7173 -3
251 -4 276 -21 288 -25 18 -25 18 -80 -25z"/>
<path d="M13966 15021 c-4 -5 -15 -56 -27 -113 -11 -56 -49 -218 -84 -358 -73
-292 -203 -876 -369 -1655 -63 -297 -307 -1437 -541 -2533 -441 -2063 -433
-2022 -387 -2022 8 0 216 72 461 161 245 88 578 208 739 266 161 58 295 103
298 101 8 -9 -316 -971 -476 -1413 -166 -460 -252 -706 -247 -711 2 -2 588
415 1303 926 l1299 930 6 2153 c4 1269 11 2277 17 2457 20 549 21 526 -8 554
-35 33 -739 473 -770 481 -53 13 -57 1 -135 -492 -87 -542 -339 -2151 -460
-2928 -63 -405 -90 -556 -103 -573 -23 -32 -372 -148 -372 -125 0 8 67 360
150 782 82 421 213 1092 290 1491 77 399 195 1000 260 1336 66 336 120 628
120 648 0 27 -8 45 -32 71 -18 18 -222 156 -452 304 -406 263 -461 293 -480
262z"/>
</g>
</svg>
