<svg width="454" height="1066" viewBox="0 0 454 1066" fill="none" xmlns="http://www.w3.org/2000/svg">
<path d="M368.399 25.0667C345.599 38.8 321.466 53.3333 314.666 57.3333L302.399 64.6667V89.7333V114.8L312.133 108.267C317.333 104.667 341.733 89.6 366.133 74.9333L410.399 48.1333V87.7333V127.333L372.666 150L335.066 172.667L314.133 209.333L293.199 246L293.466 285.333L293.733 324.667L314.399 336.267C329.199 344.533 335.599 347.467 337.066 346.533C338.133 345.867 364.266 330.133 395.066 311.467L451.066 277.6L451.466 252.8L451.733 228L440.799 235.067C426.133 244.4 336.533 298.4 336.133 298.133C335.999 298 335.733 280.533 335.733 259.333L335.599 220.8L373.199 198.133L410.799 175.333L431.866 138.133L452.933 101.067L453.066 62.8C453.066 27.7333 452.933 24.2667 450.799 22.4C447.866 19.8667 412.399 0 410.799 0C410.266 0 391.066 11.2 368.399 25.0667Z" fill="#0B0A0A"/>
<path d="M167.466 147.867L113.066 180.667V205.733V230.8L123.199 223.867C128.799 220.133 153.066 205.067 177.199 190.533L221.066 164V203.733L220.933 243.333L183.333 266L145.733 288.667L124.799 325.867L103.733 362.933L103.999 401.6L104.399 440.267L124.399 451.467C135.466 457.6 145.066 462.667 145.866 462.667C146.533 462.667 173.333 446.933 205.199 427.6L263.066 392.667L263.466 368.267C263.599 354.933 263.466 344 263.066 344C262.799 344 258.133 346.8 252.799 350.133C247.599 353.467 221.466 369.333 194.799 385.467L146.399 414.533V375.6V336.667L183.999 314L221.466 291.333L242.666 254.133L263.733 217.067V178V138.8L245.466 128.533C235.333 122.8 225.866 117.467 224.399 116.667C221.999 115.2 215.466 118.8 167.466 147.867Z" fill="#0B0A0A"/>
<path d="M29.7326 231.867L0.399261 250.267V554.133V858L29.5993 874.267C45.7326 883.333 59.4659 890.667 60.2659 890.667C61.0659 890.667 84.5326 876.667 112.399 859.6L163.066 828.667L163.466 930.667L163.733 1032.8L193.066 1049.2C209.866 1058.67 223.466 1065.33 224.799 1065.07C225.999 1064.67 240.533 1056.13 257.066 1046C273.599 1035.87 304.133 1017.07 325.066 1004.27C345.999 991.467 369.466 977.067 377.333 972.133L391.733 963.333L421.733 909.867L451.733 856.4V687.867V519.333L423.199 501.733C407.599 492 393.866 483.733 392.799 483.333C391.199 482.667 348.266 507.6 340.799 513.6C339.599 514.533 325.333 539.067 309.199 568L279.733 620.533V653.467V686.267L254.799 701.6C240.933 710 228.399 717.6 226.799 718.533L223.733 720.133V614.933V509.733L246.799 495.733C259.333 488 277.866 476.8 287.733 470.667C297.599 464.667 319.599 451.2 336.399 440.933C353.333 430.533 375.199 417.2 385.066 411.067C394.933 405.067 414.266 393.333 427.999 385.067L452.933 370L453.066 334.133V298.4L450.133 300.267C446.933 302.267 316.399 382.267 257.733 418L224.399 438.4L194.133 492L163.733 545.733L163.466 651.733L163.066 757.733L111.999 788.933C83.8659 806 60.6659 820 60.2659 820C59.9993 820 59.5993 683.6 59.4659 516.8L59.0659 213.6L29.7326 231.867ZM391.733 722.933V892.667L387.999 894.8C385.999 896 357.733 913.333 325.066 933.333C241.199 984.8 225.066 994.667 224.399 994.667C223.999 994.667 223.733 948.933 223.733 892.933L223.866 791.333L251.466 774.533L279.066 757.867L309.333 703.867L339.599 650L339.733 617.333V584.667L365.466 569.067C379.466 560.4 391.199 553.333 391.466 553.333C391.599 553.333 391.733 629.733 391.733 722.933Z" fill="#0B0A0A"/>
</svg>
