<svg width="354" height="36" viewBox="0 0 354 36" fill="none" xmlns="http://www.w3.org/2000/svg">
<g clip-path="url(#clip0)">
<path d="M45.817 21.1436L42.8834 25.0778L41.272 27.2421L37.6999 32.0314L34.8049 35.9143H29.9427L32.8377 32.0314L38.0213 25.0778H23.2827L26.2163 21.1436H45.817Z" fill="white"/>
<path d="M31.599 32.0315L28.704 35.9144H1.53467L3.7461 32.9508L4.42967 32.0315L4.64824 31.7401L7.86038 27.4308L23.4368 6.53581L23.5504 6.38367H28.4747L27.459 7.74652L10.1725 30.9344L9.35395 32.0315H31.599Z" fill="white"/>
<path d="M40.7063 18.6259L35.5013 17.323C34.9853 15.4055 34.0887 13.6115 32.865 12.0477C31.6414 10.4838 30.1155 9.18215 28.3784 8.22016L29.7434 6.38802L30.472 5.41088H23.0599L22.3313 6.38802L22.3099 6.41802C22.1363 6.40517 21.9606 6.39445 21.7849 6.38802C21.6091 6.38159 21.4163 6.38802 21.2299 6.38802C21.0434 6.38802 20.8591 6.38802 20.6749 6.38802C19.5714 6.42893 18.4759 6.59354 17.4091 6.87874C14.9054 7.5512 12.6225 8.87014 10.7894 10.7033C8.95626 12.5364 7.63732 14.8193 6.96486 17.323C6.2991 19.8274 6.2991 22.4622 6.96486 24.9666C7.09557 25.4509 7.24772 25.9266 7.42343 26.3894L4.10843 30.8402C2.8413 28.6242 2.0222 26.1807 1.69772 23.6487L0.18486 23.263C0.10913 22.529 0.0712233 21.7916 0.0712891 21.0537C0.0712891 20.3659 0.10343 19.6845 0.169859 19.0137L1.69129 18.6323C1.91174 16.8778 2.3695 15.1614 3.052 13.5302L1.912 12.4287C2.49285 11.1379 3.20214 9.90889 4.02915 8.76016L5.557 9.18874C6.33836 8.16508 7.2175 7.21991 8.182 6.36659C8.53914 6.05945 8.90629 5.76302 9.28343 5.47731L9.26415 5.41088L8.85486 3.9473C10.0046 3.12074 11.2352 2.41284 12.5277 1.83445L13.627 2.97016C15.257 2.29057 16.9721 1.83639 18.7249 1.62016L19.1041 0.105161C19.7706 0.0408757 20.4477 0.0065918 21.1313 0.0065918C21.8764 0.006821 22.621 0.0461582 23.362 0.124446L23.737 1.62445C24.3784 1.7073 25.0099 1.82087 25.6313 1.96516C25.9741 2.0423 26.3149 2.13231 26.6534 2.22873C27.3881 2.4415 28.11 2.69621 28.8156 2.99159L29.872 1.89873C30.3549 2.12016 30.8277 2.35802 31.2906 2.61231C31.5892 2.77659 31.8827 2.94802 32.1713 3.12659C32.6513 3.42231 33.1177 3.73659 33.5706 4.06945L33.187 5.41088L33.157 5.51588C33.5213 5.79445 33.8727 6.08588 34.2156 6.38802C34.8221 6.92327 35.3946 7.49581 35.9299 8.10231C36.2491 8.46445 36.5556 8.83516 36.847 9.21873L38.2613 8.81374C39.102 9.98787 39.8201 11.2452 40.4041 12.5659L39.3584 13.5794C40.0315 15.1937 40.4848 16.891 40.7063 18.6259Z" fill="white"/>
</g>
<path d="M77.9442 27V6.392H81.4322V24.312H91.9922V27H77.9442ZM99.4927 27.32C98.5327 27.32 97.6367 27.1493 96.8047 26.808C95.9941 26.4667 95.3434 25.9547 94.8527 25.272C94.3621 24.568 94.1167 23.704 94.1167 22.68C94.1167 21.2293 94.6074 20.0667 95.5887 19.192C96.5914 18.296 98.1274 17.848 100.197 17.848H105.061V17.176C105.061 16.4507 104.943 15.8747 104.709 15.448C104.495 15.0213 104.09 14.712 103.493 14.52C102.917 14.328 102.063 14.232 100.933 14.232C99.1407 14.232 97.4661 14.4987 95.9087 15.032V12.44C96.5914 12.1627 97.4234 11.9387 98.4047 11.768C99.3861 11.5973 100.442 11.512 101.573 11.512C103.791 11.512 105.477 11.96 106.629 12.856C107.802 13.752 108.389 15.2133 108.389 17.24V27H105.413L105.189 25.464C104.57 26.0613 103.802 26.52 102.885 26.84C101.989 27.16 100.858 27.32 99.4927 27.32ZM100.421 24.824C101.466 24.824 102.373 24.6533 103.141 24.312C103.93 23.9493 104.57 23.4693 105.061 22.872V20.216H100.261C99.2367 20.216 98.4901 20.4187 98.0207 20.824C97.5727 21.208 97.3487 21.8053 97.3487 22.616C97.3487 23.4053 97.6154 23.9707 98.1487 24.312C98.6821 24.6533 99.4394 24.824 100.421 24.824ZM112.257 27V11.832H115.457L115.649 13.592C116.374 13.1227 117.238 12.696 118.241 12.312C119.243 11.928 120.235 11.6613 121.217 11.512V14.168C120.619 14.2747 119.969 14.4347 119.265 14.648C118.582 14.84 117.931 15.064 117.313 15.32C116.694 15.5547 116.171 15.8 115.745 16.056V27H112.257ZM123.757 27V11.832H126.957L127.117 13.432C127.799 12.8987 128.61 12.4507 129.549 12.088C130.509 11.704 131.565 11.512 132.717 11.512C134.679 11.512 136.109 11.9707 137.005 12.888C137.901 13.8053 138.349 15.2347 138.349 17.176V27H134.893V17.336C134.893 16.1627 134.647 15.3413 134.157 14.872C133.687 14.4027 132.791 14.168 131.469 14.168C130.679 14.168 129.901 14.328 129.133 14.648C128.386 14.968 127.757 15.384 127.245 15.896V27H123.757ZM148.401 32.632C147.27 32.632 146.139 32.5573 145.009 32.408C143.878 32.28 142.918 32.0773 142.129 31.8V29.112C142.982 29.3893 143.963 29.6027 145.073 29.752C146.182 29.9013 147.238 29.976 148.241 29.976C149.777 29.976 150.897 29.8907 151.601 29.72C152.305 29.5493 152.657 29.1653 152.657 28.568C152.657 28.12 152.486 27.8 152.145 27.608C151.803 27.4373 151.153 27.352 150.193 27.352H146.097C143.345 27.352 141.969 26.3813 141.969 24.44C141.969 23.8213 142.15 23.2453 142.513 22.712C142.875 22.1787 143.451 21.7733 144.241 21.496C143.366 21.0693 142.715 20.4827 142.289 19.736C141.883 18.9893 141.681 18.0933 141.681 17.048C141.681 15.1067 142.257 13.6987 143.409 12.824C144.582 11.9493 146.331 11.512 148.657 11.512C149.147 11.512 149.659 11.5547 150.193 11.64C150.726 11.704 151.142 11.768 151.441 11.832H157.009L156.913 14.104H154.353C154.758 14.4453 155.057 14.872 155.249 15.384C155.441 15.896 155.537 16.4507 155.537 17.048C155.537 18.6693 155.046 19.9493 154.065 20.888C153.083 21.8053 151.601 22.264 149.617 22.264C149.275 22.264 148.955 22.2533 148.657 22.232C148.379 22.1893 148.07 22.1467 147.729 22.104C147.089 22.168 146.513 22.3387 146.001 22.616C145.489 22.8933 145.233 23.2667 145.233 23.736C145.233 24.056 145.361 24.2907 145.617 24.44C145.873 24.568 146.299 24.632 146.897 24.632H151.153C152.667 24.632 153.83 24.9627 154.641 25.624C155.473 26.264 155.889 27.2027 155.889 28.44C155.889 29.9333 155.238 31 153.937 31.64C152.657 32.3013 150.811 32.632 148.401 32.632ZM148.657 20.056C150.043 20.056 151.003 19.8213 151.537 19.352C152.091 18.8827 152.369 18.0827 152.369 16.952C152.369 15.8213 152.091 15 151.537 14.488C151.003 13.976 150.043 13.72 148.657 13.72C147.355 13.72 146.406 13.9653 145.809 14.456C145.211 14.9467 144.913 15.7787 144.913 16.952C144.913 18.04 145.19 18.8293 145.745 19.32C146.321 19.8107 147.291 20.056 148.657 20.056ZM167.343 27.32C164.698 27.32 162.65 26.6693 161.199 25.368C159.748 24.0667 159.023 22.072 159.023 19.384C159.023 16.952 159.642 15.032 160.879 13.624C162.116 12.216 163.994 11.512 166.511 11.512C168.815 11.512 170.543 12.12 171.695 13.336C172.868 14.5307 173.455 16.0773 173.455 17.976V20.792H162.351C162.522 22.264 163.055 23.2773 163.951 23.832C164.847 24.3867 166.212 24.664 168.047 24.664C168.815 24.664 169.604 24.5893 170.415 24.44C171.226 24.2907 171.93 24.0987 172.527 23.864V26.424C171.844 26.7227 171.055 26.9467 170.159 27.096C169.284 27.2453 168.346 27.32 167.343 27.32ZM162.351 18.52H170.383V17.464C170.383 16.4187 170.095 15.608 169.519 15.032C168.943 14.4347 167.972 14.136 166.607 14.136C164.986 14.136 163.866 14.488 163.247 15.192C162.65 15.896 162.351 17.0053 162.351 18.52ZM181.586 27.32C180.626 27.32 179.73 27.1493 178.898 26.808C178.088 26.4667 177.437 25.9547 176.946 25.272C176.456 24.568 176.21 23.704 176.21 22.68C176.21 21.2293 176.701 20.0667 177.682 19.192C178.685 18.296 180.221 17.848 182.29 17.848H187.154V17.176C187.154 16.4507 187.037 15.8747 186.802 15.448C186.589 15.0213 186.184 14.712 185.586 14.52C185.01 14.328 184.157 14.232 183.026 14.232C181.234 14.232 179.56 14.4987 178.002 15.032V12.44C178.685 12.1627 179.517 11.9387 180.498 11.768C181.48 11.5973 182.536 11.512 183.666 11.512C185.885 11.512 187.57 11.96 188.722 12.856C189.896 13.752 190.482 15.2133 190.482 17.24V27H187.506L187.282 25.464C186.664 26.0613 185.896 26.52 184.978 26.84C184.082 27.16 182.952 27.32 181.586 27.32ZM182.514 24.824C183.56 24.824 184.466 24.6533 185.234 24.312C186.024 23.9493 186.664 23.4693 187.154 22.872V20.216H182.354C181.33 20.216 180.584 20.4187 180.114 20.824C179.666 21.208 179.442 21.8053 179.442 22.616C179.442 23.4053 179.709 23.9707 180.242 24.312C180.776 24.6533 181.533 24.824 182.514 24.824ZM194.35 27V11.832H197.55L197.742 13.592C198.468 13.1227 199.332 12.696 200.334 12.312C201.337 11.928 202.329 11.6613 203.31 11.512V14.168C202.713 14.2747 202.062 14.4347 201.358 14.648C200.676 14.84 200.025 15.064 199.406 15.32C198.788 15.5547 198.265 15.8 197.838 16.056V27H194.35ZM222.889 27.32C219.497 27.32 216.927 26.392 215.177 24.536C213.449 22.68 212.585 20.1733 212.585 17.016C212.585 14.7547 212.948 12.8133 213.673 11.192C214.42 9.54933 215.551 8.29067 217.065 7.416C218.58 6.52 220.511 6.072 222.857 6.072C224.052 6.072 225.14 6.168 226.121 6.36C227.124 6.53067 228.052 6.76533 228.905 7.064V10.104C228.052 9.76267 227.135 9.50667 226.153 9.336C225.193 9.144 224.18 9.048 223.113 9.048C220.553 9.048 218.74 9.73067 217.673 11.096C216.628 12.4613 216.105 14.4347 216.105 17.016C216.105 19.4267 216.681 21.2613 217.833 22.52C218.985 23.7573 220.767 24.376 223.177 24.376C224.159 24.376 225.14 24.3013 226.121 24.152C227.124 23.9813 228.063 23.7253 228.937 23.384V26.456C228.084 26.7333 227.156 26.9467 226.153 27.096C225.172 27.2453 224.084 27.32 222.889 27.32ZM237.055 27.32C236.095 27.32 235.199 27.1493 234.367 26.808C233.557 26.4667 232.906 25.9547 232.415 25.272C231.925 24.568 231.679 23.704 231.679 22.68C231.679 21.2293 232.17 20.0667 233.151 19.192C234.154 18.296 235.69 17.848 237.759 17.848H242.623V17.176C242.623 16.4507 242.506 15.8747 242.271 15.448C242.058 15.0213 241.653 14.712 241.055 14.52C240.479 14.328 239.626 14.232 238.495 14.232C236.703 14.232 235.029 14.4987 233.471 15.032V12.44C234.154 12.1627 234.986 11.9387 235.967 11.768C236.949 11.5973 238.005 11.512 239.135 11.512C241.354 11.512 243.039 11.96 244.191 12.856C245.365 13.752 245.951 15.2133 245.951 17.24V27H242.975L242.751 25.464C242.133 26.0613 241.365 26.52 240.447 26.84C239.551 27.16 238.421 27.32 237.055 27.32ZM237.983 24.824C239.029 24.824 239.935 24.6533 240.703 24.312C241.493 23.9493 242.133 23.4693 242.623 22.872V20.216H237.823C236.799 20.216 236.053 20.4187 235.583 20.824C235.135 21.208 234.911 21.8053 234.911 22.616C234.911 23.4053 235.178 23.9707 235.711 24.312C236.245 24.6533 237.002 24.824 237.983 24.824ZM249.819 27V11.832H253.019L253.179 13.432C253.926 12.8347 254.747 12.3653 255.643 12.024C256.539 11.6827 257.499 11.512 258.523 11.512C259.611 11.512 260.454 11.6933 261.051 12.056C261.67 12.3973 262.139 12.8773 262.459 13.496C263.163 12.92 263.974 12.4507 264.891 12.088C265.809 11.704 266.907 11.512 268.187 11.512C269.937 11.512 271.227 11.96 272.059 12.856C272.891 13.752 273.307 15.128 273.307 16.984V27H269.883V17.336C269.883 16.1627 269.638 15.3413 269.147 14.872C268.657 14.4027 267.857 14.168 266.747 14.168C266.022 14.168 265.329 14.296 264.667 14.552C264.027 14.808 263.473 15.192 263.003 15.704C263.067 15.9387 263.11 16.184 263.131 16.44C263.153 16.696 263.163 16.9733 263.163 17.272V27H259.931V17.368C259.931 16.2587 259.739 15.448 259.355 14.936C258.971 14.424 258.246 14.168 257.179 14.168C256.433 14.168 255.718 14.3493 255.035 14.712C254.374 15.0533 253.777 15.4693 253.243 15.96V27H249.819ZM277.225 33.912V11.832H280.233L280.425 13.336C281.108 12.7173 281.855 12.2587 282.665 11.96C283.476 11.6613 284.436 11.512 285.545 11.512C287.721 11.512 289.417 12.1093 290.633 13.304C291.849 14.4773 292.457 16.4293 292.457 19.16C292.457 21.8907 291.828 23.9387 290.569 25.304C289.311 26.648 287.593 27.32 285.417 27.32C283.583 27.32 282.015 26.8933 280.713 26.04V33.912H277.225ZM284.521 24.696C287.465 24.696 288.937 22.84 288.937 19.128C288.937 17.336 288.607 16.0667 287.945 15.32C287.284 14.552 286.175 14.168 284.617 14.168C283.06 14.168 281.759 14.7013 280.713 15.768V23.352C281.204 23.7573 281.748 24.088 282.345 24.344C282.964 24.5787 283.689 24.696 284.521 24.696ZM302.585 27V25.272C303.14 23.9707 303.908 22.7973 304.889 21.752C305.892 20.7067 306.959 19.6933 308.089 18.712C308.943 17.9653 309.647 17.336 310.201 16.824C310.777 16.2907 311.225 15.8107 311.545 15.384C311.865 14.9573 312.089 14.52 312.217 14.072C312.345 13.6027 312.409 13.0587 312.409 12.44C312.409 11.3307 312.089 10.488 311.449 9.912C310.809 9.336 309.743 9.048 308.249 9.048C307.439 9.048 306.607 9.13333 305.753 9.304C304.921 9.47467 304.121 9.70933 303.353 10.008V6.936C304.1 6.68 304.985 6.47733 306.009 6.328C307.033 6.15733 308.004 6.072 308.921 6.072C311.225 6.072 312.964 6.63733 314.137 7.768C315.311 8.89867 315.897 10.4453 315.897 12.408C315.897 13.3893 315.727 14.264 315.385 15.032C315.044 15.7787 314.575 16.4933 313.977 17.176C313.38 17.8373 312.687 18.52 311.897 19.224C310.916 20.0773 309.988 20.9093 309.113 21.72C308.26 22.5093 307.567 23.3733 307.033 24.312H316.121V27H302.585ZM322.195 27V9.464L318.867 10.04V7.128L325.651 6.072V27H322.195ZM334.781 27.32C333.736 27.32 332.733 27.2453 331.773 27.096C330.835 26.9467 330.056 26.7653 329.437 26.552V23.608C330.163 23.8853 330.963 24.0987 331.837 24.248C332.712 24.3973 333.544 24.472 334.333 24.472C335.528 24.472 336.381 24.3653 336.893 24.152C337.405 23.9387 337.661 23.5227 337.661 22.904C337.661 22.456 337.501 22.104 337.181 21.848C336.883 21.592 336.424 21.3573 335.805 21.144C335.208 20.9307 334.44 20.6747 333.501 20.376C332.605 20.0773 331.827 19.7573 331.165 19.416C330.504 19.0533 329.992 18.5947 329.629 18.04C329.267 17.4853 329.085 16.76 329.085 15.864C329.085 14.4773 329.587 13.4107 330.589 12.664C331.592 11.896 333.203 11.512 335.421 11.512C336.296 11.512 337.128 11.576 337.917 11.704C338.707 11.832 339.379 11.992 339.933 12.184V15.096C339.336 14.8613 338.675 14.68 337.949 14.552C337.245 14.424 336.584 14.36 335.965 14.36C334.856 14.36 334.013 14.456 333.437 14.648C332.883 14.84 332.605 15.224 332.605 15.8C332.605 16.3973 332.893 16.824 333.469 17.08C334.067 17.3147 335.016 17.6453 336.317 18.072C337.512 18.4347 338.461 18.8187 339.165 19.224C339.869 19.6293 340.371 20.12 340.669 20.696C340.989 21.2507 341.149 21.976 341.149 22.872C341.149 24.3653 340.605 25.4853 339.517 26.232C338.429 26.9573 336.851 27.32 334.781 27.32ZM349.892 27.32C348.271 27.32 347.055 26.8933 346.244 26.04C345.455 25.1653 345.06 23.9813 345.06 22.488V14.552H342.82V11.832H345.06V8.344L348.516 7.288V11.832H352.548L352.324 14.552H348.516V22.296C348.516 23.1707 348.719 23.7893 349.124 24.152C349.53 24.4933 350.191 24.664 351.108 24.664C351.684 24.664 352.292 24.5573 352.932 24.344V26.808C352.1 27.1493 351.087 27.32 349.892 27.32Z" fill="#E4E4E4"/>
<defs>
<clipPath id="clip0">
<rect width="45.8571" height="36" fill="white" transform="translate(0.0712891)"/>
</clipPath>
</defs>
</svg>
