<?xml version="1.0" standalone="no"?>
<!DOCTYPE svg PUBLIC "-//W3C//DTD SVG 20010904//EN"
 "http://www.w3.org/TR/2001/REC-SVG-20010904/DTD/svg10.dtd">
<svg version="1.0" xmlns="http://www.w3.org/2000/svg"
 width="1080.000000pt" height="1080.000000pt" viewBox="0 0 1080.000000 1080.000000"
 preserveAspectRatio="xMidYMid meet">

<g transform="translate(0.000000,1080.000000) scale(0.100000,-0.100000)"
fill="#000000" stroke="none">
<path d="M6335 10442 c-171 -103 -352 -212 -403 -242 l-92 -55 0 -188 0 -188
73 49 c39 27 222 140 405 250 l332 201 0 -297 0 -297 -283 -170 -282 -170
-157 -275 -157 -275 2 -295 2 -295 155 -87 c111 -62 159 -84 170 -77 8 5 204
123 435 263 l420 254 3 186 2 186 -82 -53 c-110 -70 -782 -475 -785 -473 -1 1
-3 132 -3 291 l-1 289 282 170 282 171 158 279 158 278 1 287 c0 263 -1 289
-17 303 -22 19 -288 168 -300 168 -4 0 -148 -84 -318 -188z"/>
<path d="M4828 9521 l-408 -246 0 -188 0 -188 76 52 c42 28 224 141 405 250
l329 199 0 -298 -1 -297 -282 -170 -282 -170 -157 -279 -158 -278 2 -290 3
-290 150 -84 c83 -46 155 -84 161 -84 5 0 206 118 445 263 l434 262 3 183 c1
100 0 182 -3 182 -2 0 -37 -21 -77 -46 -39 -25 -235 -144 -435 -265 l-363
-218 0 292 0 292 282 170 281 170 159 279 158 278 0 293 0 294 -137 77 c-76
43 -147 83 -158 89 -18 11 -67 -16 -427 -234z"/>
<path d="M3795 8891 l-220 -138 0 -2279 0 -2279 219 -122 c121 -68 224 -123
230 -123 6 0 182 105 391 233 l380 232 3 -765 2 -766 220 -123 c126 -71 228
-121 238 -119 9 3 118 67 242 143 124 76 353 217 510 313 157 96 333 204 392
241 l108 66 225 401 225 401 0 1264 0 1264 -214 132 c-117 73 -220 135 -228
138 -12 5 -334 -182 -390 -227 -9 -7 -116 -191 -237 -408 l-221 -394 0 -247 0
-246 -187 -115 c-104 -63 -198 -120 -210 -127 l-23 -12 0 789 0 789 173 105
c94 58 233 142 307 188 74 45 239 146 365 223 127 78 291 178 365 224 74 45
219 133 322 195 l187 113 1 269 0 268 -22 -14 c-24 -15 -1003 -615 -1443 -883
l-250 -153 -227 -402 -228 -403 -2 -795 -3 -795 -383 -234 c-211 -128 -385
-233 -388 -233 -2 0 -5 1023 -6 2274 l-3 2274 -220 -137z m2715 -3683 l0
-1273 -28 -16 c-15 -9 -227 -139 -472 -289 -629 -386 -750 -460 -755 -460 -3
0 -5 343 -5 763 l1 762 207 126 207 125 227 405 227 404 1 245 0 245 193 117
c105 65 193 118 195 118 1 0 2 -573 2 -1272z"/>
<path d="M6964 3555 c-4 -8 1 -26 10 -40 16 -24 16 -25 -9 -25 -25 0 -65 -31
-65 -50 0 -24 30 -79 48 -89 35 -19 70 -13 88 13 8 14 21 23 28 20 7 -3 17 1
23 8 8 10 -3 35 -39 96 -47 79 -72 99 -84 67z m54 -120 c8 -17 7 -27 -2 -41
-17 -22 -42 -13 -58 22 -10 22 -10 28 6 39 23 17 40 11 54 -20z"/>
<path d="M6807 3402 c-9 -10 -17 -24 -17 -32 0 -9 -4 -10 -13 -2 -8 7 -18 7
-27 2 -13 -8 -12 -16 8 -52 12 -24 31 -54 41 -68 16 -21 21 -22 35 -11 15 12
14 18 -9 57 -44 76 3 107 51 34 26 -39 53 -49 61 -24 2 6 -11 33 -29 60 -37
55 -72 68 -101 36z"/>
<path d="M6660 3218 c-76 -21 -130 -85 -130 -152 0 -38 25 -61 54 -50 14 5 36
61 36 91 0 22 57 45 80 33 35 -19 35 -56 1 -197 -27 -107 -31 -136 -21 -148 7
-8 18 -15 26 -15 19 0 225 130 231 146 7 18 -15 44 -36 44 -9 0 -41 -15 -71
-34 -30 -19 -56 -34 -57 -32 -1 1 7 35 17 76 36 138 23 202 -46 235 -36 17
-36 17 -84 3z"/>
<path d="M6345 3031 c-75 -34 -123 -119 -96 -170 24 -44 81 -9 81 51 0 47 62
75 94 42 23 -22 20 -62 -14 -199 -29 -117 -29 -120 -11 -138 18 -19 21 -18
132 50 92 56 114 74 114 93 0 44 -27 46 -91 7 -32 -19 -60 -34 -62 -32 -2 2 6
46 18 99 26 110 22 136 -25 183 -39 39 -78 43 -140 14z"/>
<path d="M5860 2732 c-121 -70 -121 -70 -24 -232 43 -72 89 -142 100 -155 26
-29 61 -24 76 11 9 19 7 30 -14 61 -48 74 -50 81 -28 93 17 9 33 4 95 -30 78
-43 110 -47 129 -17 16 26 -2 47 -72 85 -60 32 -62 34 -47 55 45 64 -21 176
-105 177 -14 0 -64 -22 -110 -48z m128 -54 c29 -29 12 -62 -49 -101 -27 -16
-27 -16 -54 24 -29 44 -29 44 12 70 33 21 74 24 91 7z"/>
<path d="M5553 2540 c-18 -11 -35 -31 -39 -45 -8 -33 61 -354 81 -374 14 -14
18 -14 43 0 24 14 27 20 24 65 l-2 49 54 33 c63 37 63 37 96 12 44 -34 90 -21
90 26 0 16 -30 48 -110 114 -120 99 -177 140 -194 140 -6 0 -26 -9 -43 -20z
m126 -143 c23 -21 39 -42 36 -46 -3 -5 -21 -18 -40 -30 -26 -15 -37 -17 -40
-8 -13 40 -35 127 -35 137 0 14 20 0 79 -53z"/>
<path d="M5329 2406 c-46 -24 -164 -98 -181 -114 -10 -8 -18 -25 -18 -36 0
-26 142 -262 176 -293 30 -28 39 -25 164 52 72 45 91 61 88 77 -7 46 -32 45
-112 -5 -42 -26 -78 -47 -80 -47 -4 0 -46 68 -46 75 0 2 29 22 65 44 67 43 76
58 49 86 -19 19 -26 17 -100 -30 -61 -39 -59 -40 -90 17 l-14 28 61 37 c93 58
102 66 95 90 -9 28 -28 34 -57 19z"/>
<path d="M4923 2160 c-69 -40 -105 -94 -105 -157 0 -122 98 -233 207 -233 77
0 175 69 194 136 13 46 -9 132 -39 156 -22 17 -24 17 -71 -8 -72 -39 -91 -61
-79 -84 13 -24 33 -25 65 -4 22 14 24 14 34 -5 16 -28 14 -36 -14 -69 -52 -62
-123 -47 -176 36 -67 106 -9 201 105 170 36 -9 48 -9 60 1 26 22 20 59 -14 76
-47 24 -108 19 -167 -15z"/>
<path d="M4656 1988 c-17 -24 -15 -28 40 -114 18 -29 39 -66 48 -82 l16 -31
-53 24 c-28 12 -87 39 -131 59 -43 20 -87 36 -97 36 -24 0 -49 -27 -49 -52 0
-11 39 -85 88 -165 95 -156 118 -177 153 -134 22 27 20 33 -47 141 -29 46 -52
86 -50 87 2 2 65 -24 140 -58 132 -58 138 -60 162 -45 23 16 28 27 25 53 -2
12 -152 265 -173 291 -16 19 -55 14 -72 -10z"/>
<path d="M4217 1725 c-94 -56 -115 -82 -95 -122 45 -87 170 -278 187 -284 23
-9 61 15 61 39 0 9 -16 43 -35 74 -33 56 -34 58 -14 68 16 9 33 4 94 -29 84
-46 108 -50 129 -20 21 31 12 44 -60 81 -61 31 -76 49 -54 63 6 3 10 27 10 52
0 39 -5 50 -39 84 -53 53 -84 52 -184 -6z m121 -57 c22 -22 13 -56 -20 -82
-48 -36 -55 -35 -82 9 l-25 40 37 22 c41 25 72 29 90 11z"/>
<path d="M3893 1520 c-12 -10 -24 -28 -28 -38 -6 -22 62 -351 77 -369 14 -18
43 -16 63 3 11 12 15 30 13 61 -3 44 -3 44 54 80 l57 35 29 -21 c39 -27 78
-27 92 0 7 11 9 26 6 34 -2 7 -66 63 -141 124 -148 120 -178 133 -222 91z
m139 -137 l47 -43 -42 -24 c-23 -14 -44 -22 -48 -18 -6 6 -39 132 -39 148 0 8
23 -9 82 -63z"/>
<path d="M3522 1298 c-22 -22 -12 -47 74 -189 85 -137 110 -164 145 -150 37
14 179 107 184 120 3 8 -3 24 -14 34 -20 20 -20 20 -92 -23 -57 -34 -73 -40
-80 -29 -5 8 -37 59 -71 114 -33 55 -68 108 -76 118 -17 20 -53 22 -70 5z"/>
</g>
</svg>
