<svg width="84" height="80" viewBox="0 0 84 80" fill="none" xmlns="http://www.w3.org/2000/svg">
<g clip-path="url(#clip0_2548_3856)">
<path d="M83.8783 38.7681L78.4994 45.9819L75.5447 49.9502L68.9949 58.7317L63.6867 65.8512H54.7716L60.0798 58.7317L69.5843 45.9819H42.5601L47.939 38.7681H83.8783Z" fill="#941014"/>
<path d="M57.8086 58.7317L52.5004 65.8512H2.68359L6.7384 60.4173L7.99178 58.7317L8.39255 58.1974L14.2822 50.296L42.8427 11.9836L43.051 11.7046H52.08L50.2176 14.2035L18.5217 56.7201L17.0208 58.7317H57.8086Z" fill="#941014"/>
<path d="M74.5071 34.1515L64.9634 31.7626C64.0172 28.2468 62.3734 24.9573 60.1297 22.0899C57.8859 19.2224 55.0883 16.8358 51.9031 15.0719L54.406 11.7125L55.7419 9.92086H42.1512L40.8153 11.7125L40.776 11.7675C40.4577 11.744 40.1355 11.7243 39.8134 11.7125C39.4912 11.7007 39.1376 11.7125 38.7957 11.7125C38.4539 11.7125 38.116 11.7125 37.7781 11.7125C35.7548 11.7875 33.7462 12.0893 31.7902 12.6123C27.1995 13.8453 23.0136 16.2637 19.6524 19.6248C16.2912 22.986 13.8729 27.1719 12.6398 31.7626C11.4191 36.3546 11.4191 41.1857 12.6398 45.7777C12.8795 46.6656 13.1585 47.5379 13.4807 48.3866L7.40239 56.5473C5.07901 52.4841 3.57713 48.0038 2.98217 43.3613L0.208241 42.654C0.0693845 41.3082 -0.000120652 39.9561 1.57213e-07 38.6031C1.57213e-07 37.3419 0.058933 36.0925 0.180734 34.8627L2.97038 34.1633C3.37459 30.9463 4.21393 27.7992 5.46535 24.8081L3.37508 22.7886C4.4401 20.4218 5.74063 18.1683 7.25701 16.062L10.0584 16.8478C11.4911 14.9709 13.1031 13.2378 14.8716 11.6732C15.5264 11.1101 16.1996 10.5665 16.8911 10.0427L16.8558 9.92086L16.1053 7.23729C18.2135 5.72173 20.4698 4.42375 22.8397 3.36322L24.8554 5.44563C27.8441 4.19955 30.9889 3.36678 34.2026 2.97032L34.8981 0.192453C36.12 0.0745807 37.3616 0.0117188 38.615 0.0117188C39.9812 0.012139 41.3465 0.0842666 42.7052 0.227813L43.3928 2.97817C44.5689 3.13009 45.7266 3.33833 46.8661 3.60289C47.4947 3.74434 48.1194 3.90936 48.7402 4.08617C50.0874 4.4763 51.411 4.94332 52.7047 5.48493L54.6417 3.48109C55.5271 3.8871 56.3941 4.32323 57.2428 4.78948C57.7902 5.09071 58.3285 5.40504 58.8576 5.73246C59.7377 6.27467 60.593 6.85093 61.4233 7.46125L60.72 9.92086L60.665 10.1134C61.3329 10.6242 61.9773 11.1585 62.6059 11.7125C63.718 12.6939 64.7678 13.7437 65.7492 14.8558C66.3346 15.5198 66.8965 16.1995 67.4309 16.9028L70.0241 16.1602C71.5656 18.3131 72.8822 20.6184 73.9531 23.0401L72.0357 24.8985C73.2698 27.8584 74.101 30.9705 74.5071 34.1515Z" fill="#941014"/>
<path d="M5.63831 73.0767H7.24138L6.25125 78.707H9.28057L9.0684 79.9211H4.43994L5.63831 73.0767Z" fill="#941014"/>
<path d="M14.1406 79.9211L13.9402 78.4948H11.4885L10.8048 79.9211H9.09961L12.6358 73.0767H14.6907L15.838 79.9211H14.1406ZM13.8341 77.3476L13.4412 74.4911H13.4019L12.0268 77.3476H13.8341Z" fill="#941014"/>
<path d="M20.0853 79.9216L19.1109 77.1712H18.3251L17.8457 79.9216H16.2466L17.445 73.0771H20.5411C20.819 73.0557 21.0984 73.0936 21.3606 73.1885C21.6227 73.2833 21.8617 73.4329 22.0616 73.6272C22.2311 73.8343 22.3485 74.079 22.4039 74.3409C22.4592 74.6027 22.451 74.874 22.3799 75.132C22.3099 75.5859 22.1108 76.0102 21.8062 76.354C21.493 76.6909 21.0798 76.9181 20.6275 77.0023L21.8062 79.9216H20.0853ZM18.5137 75.9728H19.6924C19.9699 75.984 20.2441 75.91 20.4782 75.7607C20.5841 75.6893 20.6738 75.5964 20.7415 75.4881C20.8091 75.3798 20.8533 75.2585 20.8711 75.132C20.8997 75.0247 20.9 74.9117 20.8717 74.8042C20.8435 74.6968 20.7877 74.5985 20.71 74.5191C20.5099 74.3609 20.257 74.285 20.0028 74.3069H18.8241L18.5137 75.9728Z" fill="#941014"/>
<path d="M29.637 73.0767L28.4347 79.9211H27.0477L24.8081 75.6266H24.7689L24.0184 79.9211H22.4468L23.6451 73.0767H25.0596L27.2756 77.3201H27.3149L28.0614 73.0767H29.637Z" fill="#941014"/>
<path d="M35.9708 77.0019C35.9107 77.3477 35.8105 77.6852 35.6722 78.0078C35.5197 78.3664 35.3026 78.694 35.0318 78.9743C34.7265 79.2862 34.3636 79.5357 33.9631 79.7091C33.4661 79.9179 32.9303 80.0184 32.3915 80.0038C31.9376 80.0135 31.4862 79.9334 31.0634 79.768C30.7024 79.6266 30.3871 79.3888 30.1519 79.0804C29.9106 78.7575 29.7539 78.3793 29.6961 77.9803C29.626 77.4865 29.6393 76.9845 29.7354 76.4951C29.8197 75.9754 29.9868 75.4727 30.2305 75.006C30.447 74.5938 30.7358 74.2238 31.0831 73.9137C31.4276 73.612 31.8281 73.381 32.2618 73.234C32.716 73.0737 33.1947 72.9939 33.6763 72.9982C34.0474 72.9947 34.4166 73.0531 34.7686 73.1711C35.0789 73.2765 35.3668 73.4391 35.6172 73.6504C35.8514 73.8563 36.0332 74.1148 36.1477 74.4048C36.2717 74.7166 36.324 75.0523 36.3009 75.3871H34.7018C34.6881 75.0788 34.5541 74.7882 34.3285 74.5777C34.0827 74.3718 33.7687 74.2653 33.4484 74.2791C33.1996 74.2763 32.9531 74.3267 32.7254 74.427C32.4977 74.5273 32.2941 74.6751 32.1282 74.8606C31.7283 75.3216 31.4728 75.89 31.3935 76.4951C31.2516 77.0443 31.3029 77.6256 31.5388 78.1414C31.6473 78.3263 31.8041 78.4782 31.9924 78.5807C32.1807 78.6831 32.3934 78.7323 32.6076 78.7229C32.8354 78.7275 33.0621 78.6889 33.2755 78.6089C33.4527 78.5388 33.6153 78.4362 33.7549 78.3064C33.8903 78.1816 34.001 78.0323 34.081 77.8663C34.1647 77.701 34.2306 77.5271 34.2774 77.3477H33.0083L33.2087 76.1886H36.1044L35.9708 77.0019Z" fill="#941014"/>
<path d="M38.7876 74.3065L38.5047 75.8782H41.3061L41.094 77.0923H38.2925L38.0136 78.6914H41.3611L41.149 79.9055H36.1865L37.3849 73.061H42.3473L42.1352 74.2908L38.7876 74.3065Z" fill="#941014"/>
<path d="M46.5083 79.9211L46.3079 78.4948H43.8562L43.1764 79.9211H41.4673L45.0035 73.0767H47.0584L48.2057 79.9211H46.5083ZM46.2018 77.3476L45.8089 74.4911H45.7696L44.3945 77.3476H46.2018Z" fill="#941014"/>
<path d="M52.4452 79.9216L51.4708 77.1712H50.685L50.2017 79.9216H48.6025L49.8048 73.0771H52.897C53.175 73.0557 53.4543 73.0936 53.7165 73.1885C53.9787 73.2833 54.2177 73.4329 54.4176 73.6272C54.5869 73.8344 54.7044 74.079 54.7604 74.3407C54.8165 74.6024 54.8094 74.8736 54.7398 75.132C54.6662 75.5849 54.4675 76.0081 54.1661 76.354C53.8524 76.6902 53.4394 76.9173 52.9874 77.0023L54.1661 79.9216H52.4452ZM50.8735 75.9728H52.0523C52.3298 75.9843 52.6041 75.9102 52.8381 75.7607C52.9408 75.6879 53.0271 75.5943 53.0914 75.486C53.1557 75.3777 53.1966 75.2571 53.2113 75.132C53.24 75.0247 53.2402 74.9117 53.2119 74.8042C53.1837 74.6968 53.128 74.5985 53.0503 74.5191C52.8501 74.3609 52.5972 74.285 52.343 74.3069H51.1643L50.8735 75.9728Z" fill="#941014"/>
<path d="M62.8379 78.6951L62.6218 79.921H57.6201L57.7694 79.0291C57.8284 78.9741 57.9777 78.8484 58.2095 78.6362C58.4413 78.4241 58.7045 78.2197 58.9953 77.9761C59.286 77.7325 59.5886 77.4811 59.8872 77.2257C60.1858 76.9703 60.4333 76.766 60.6298 76.6088C60.8773 76.3927 61.0816 76.2159 61.2427 76.0587C61.3824 75.9368 61.5137 75.8055 61.6356 75.6658C61.7162 75.5703 61.786 75.4662 61.8439 75.3554C61.8856 75.2717 61.9173 75.1834 61.9382 75.0922C61.9644 74.9801 61.9667 74.8638 61.945 74.7507C61.9234 74.6377 61.8782 74.5305 61.8125 74.436C61.7165 74.3449 61.6016 74.2761 61.4759 74.2347C61.3502 74.1932 61.2169 74.1801 61.0856 74.1964C60.9035 74.1922 60.7226 74.227 60.5551 74.2985C60.4086 74.3586 60.2751 74.4467 60.1622 74.5578C60.0564 74.6718 59.9737 74.8052 59.9186 74.9507C59.8547 75.0908 59.8097 75.2388 59.785 75.3908H58.3313C58.3906 75.0779 58.4938 74.775 58.6378 74.491C58.7774 74.204 58.9692 73.9455 59.2035 73.7288C59.4578 73.5009 59.7523 73.3224 60.0719 73.2023C60.458 73.061 60.867 72.993 61.2781 73.0019C61.6468 72.9932 62.0145 73.045 62.3664 73.1551C62.6322 73.2398 62.8753 73.3835 63.0776 73.5756C63.2533 73.7497 63.3782 73.9684 63.4391 74.2081C63.4971 74.4669 63.4971 74.7352 63.4391 74.994C63.4044 75.2075 63.3437 75.416 63.2584 75.6148C63.1742 75.8031 63.0645 75.979 62.9322 76.1373C62.7581 76.3423 62.569 76.534 62.3664 76.711C62.1307 76.9192 61.8321 77.1785 61.4667 77.4968L60.064 78.6755V78.703L62.8379 78.6951Z" fill="#941014"/>
<path d="M67.5057 73.0767L66.3034 79.9211H64.6924L65.6393 74.4793L63.9302 74.9587L64.1424 73.7328L66.3034 73.0767H67.5057Z" fill="#941014"/>
<path d="M69.4348 73.7371C69.6888 73.7726 69.9303 73.8698 70.1381 74.02C70.2107 74.0844 70.2636 74.168 70.2907 74.2612C70.3178 74.3543 70.318 74.4532 70.2914 74.5465C70.2654 74.6909 70.2102 74.8285 70.1291 74.9508C70.048 75.0731 69.9428 75.1775 69.8199 75.2577C69.5128 75.4515 69.153 75.5448 68.7905 75.5249C68.6335 75.527 68.4768 75.5125 68.3229 75.4816C68.1829 75.4533 68.0496 75.3987 67.93 75.3206C67.8205 75.2469 67.7313 75.147 67.6707 75.0298C67.6061 74.894 67.579 74.7434 67.5921 74.5937H68.4643C68.4645 74.6393 68.4756 74.6842 68.4968 74.7245C68.518 74.7649 68.5487 74.7995 68.5861 74.8255C68.6756 74.8881 68.7836 74.9186 68.8926 74.9119C68.9991 74.9145 69.1045 74.8902 69.1991 74.8412C69.2386 74.8222 69.273 74.7941 69.2996 74.7593C69.3263 74.7245 69.3443 74.6839 69.3523 74.6408C69.3573 74.6137 69.356 74.5857 69.3485 74.5592C69.341 74.5326 69.3275 74.5081 69.3091 74.4876C69.226 74.4242 69.1264 74.386 69.0223 74.3776L68.5665 74.2911C68.3396 74.2577 68.1291 74.1531 67.9653 73.9925C67.904 73.918 67.8611 73.8301 67.8399 73.7359C67.8188 73.6417 67.82 73.5439 67.8435 73.4503C67.8641 73.2976 67.9236 73.1528 68.0164 73.0299C68.1084 72.9117 68.2217 72.8118 68.3504 72.7352C68.4877 72.6562 68.6361 72.598 68.7905 72.5623C68.9517 72.5262 69.1164 72.5077 69.2816 72.5073C69.4336 72.5077 69.5852 72.5248 69.7334 72.5584C69.8641 72.5896 69.9871 72.6471 70.0949 72.7274C70.1934 72.8059 70.2716 72.907 70.3228 73.022C70.3771 73.1606 70.396 73.3105 70.3778 73.4582H69.5527C69.5527 73.2342 69.427 73.1242 69.1598 73.1242C69.0598 73.1234 68.9611 73.1477 68.873 73.1949C68.8316 73.2139 68.7955 73.2429 68.7681 73.2792C68.7407 73.3156 68.7227 73.3582 68.7158 73.4032C68.7158 73.4817 68.7433 73.5407 68.8494 73.5878C69.0396 73.6552 69.2355 73.7052 69.4348 73.7371Z" fill="#941014"/>
<path d="M72.1262 74.8176C72.216 74.8312 72.3074 74.8312 72.3973 74.8176L72.2833 75.4502L72.1144 75.4777L71.9494 75.4974C71.7918 75.5063 71.6338 75.4984 71.4779 75.4738C71.3521 75.4536 71.2348 75.3977 71.14 75.3127C71.0472 75.2265 70.9828 75.1142 70.9553 74.9905C70.9218 74.8206 70.9218 74.6457 70.9553 74.4758L71.1911 73.1871H70.7471L70.8492 72.5859H71.3286L71.4464 71.918H72.3266L72.2087 72.5859H72.747L72.6448 73.1871H72.1065L71.8983 74.4797C71.8758 74.5611 71.8842 74.6478 71.9219 74.7233C71.9473 74.7526 71.9787 74.7761 72.0139 74.7923C72.0491 74.8086 72.0874 74.8172 72.1262 74.8176Z" fill="#941014"/>
</g>
<defs>
<clipPath id="clip0_2548_3856">
<rect width="83.878" height="80" fill="white"/>
</clipPath>
</defs>
</svg>
