<?xml version="1.0" standalone="no"?>
<!DOCTYPE svg PUBLIC "-//W3C//DTD SVG 20010904//EN"
 "http://www.w3.org/TR/2001/REC-SVG-20010904/DTD/svg10.dtd">
<svg version="1.0" xmlns="http://www.w3.org/2000/svg"
 width="700.000000pt" height="700.000000pt" viewBox="0 0 700.000000 700.000000"
 preserveAspectRatio="xMidYMid meet">
<metadata>
Created by potrace 1.11, written by Peter Selinger 2001-2013
</metadata>
<g transform="translate(0.000000,700.000000) scale(0.100000,-0.100000)"
fill="#000000" stroke="none">
<path d="M3248 6995 c-2 -2 -37 -6 -78 -9 -73 -6 -144 -17 -245 -37 l-50 -9 1
-292 0 -291 -84 -121 c-149 -215 -236 -297 -375 -353 -95 -39 -181 -51 -324
-47 -138 5 -133 4 -240 24 l-72 13 -202 203 -203 203 -40 -32 c-23 -17 -43
-34 -46 -37 -3 -3 -17 -15 -32 -26 -141 -109 -383 -358 -518 -535 l-58 -76
193 -194 c192 -192 194 -195 225 -274 94 -250 88 -489 -18 -647 -84 -127 -212
-235 -402 -341 l-65 -36 -282 -2 c-224 -1 -283 -4 -287 -14 -3 -8 -13 -69 -22
-137 -24 -169 -24 -700 0 -825 2 -10 7 -54 11 -98 4 -44 9 -82 11 -85 3 -2
130 -5 282 -5 l277 -1 100 -47 c94 -45 163 -86 193 -114 7 -7 21 -18 30 -25
65 -49 156 -193 182 -287 33 -124 31 -314 -6 -469 -8 -37 -18 -78 -20 -91 -9
-45 -27 -66 -216 -254 -103 -104 -188 -192 -188 -196 0 -25 243 -304 393 -450
114 -111 287 -261 301 -261 2 0 91 87 198 194 107 106 203 198 214 203 50 26
395 22 529 -6 230 -47 415 -196 534 -431 l28 -55 -1 -278 c-1 -175 3 -282 9
-287 10 -7 43 -13 150 -25 28 -4 57 -8 65 -10 71 -18 535 -26 675 -12 122 13
170 19 238 33 l27 6 1 111 c0 62 0 193 0 292 l0 180 40 75 c93 173 224 293
389 358 139 54 237 69 439 66 235 -4 199 15 422 -210 245 -247 231 -234 244
-234 16 0 277 219 390 328 105 101 201 207 274 304 l43 57 -214 213 c-118 118
-218 222 -222 233 -4 11 -18 78 -31 148 -28 156 -32 327 -11 419 45 195 194
358 446 488 l65 34 315 2 c349 2 331 1 328 12 -2 6 8 107 18 177 13 97 16 163
18 365 3 245 -8 424 -35 557 l-10 52 -320 1 -320 0 -87 46 c-259 136 -379 289
-419 534 -12 75 -6 277 12 367 2 11 6 38 9 59 3 22 9 52 12 69 5 21 68 91 225
248 121 120 219 222 219 225 0 7 -135 188 -154 208 -6 6 -27 28 -47 50 -51 55
-187 184 -234 221 -22 18 -65 51 -95 75 -88 70 -178 130 -189 127 -5 -2 -96
-88 -203 -191 -106 -103 -203 -196 -216 -206 -71 -61 -389 -86 -546 -43 -205
56 -384 203 -519 426 l-36 60 0 185 c0 404 0 417 -13 417 -7 0 -62 6 -123 12
-60 7 -135 15 -165 17 -67 6 -488 13 -492 9z m427 -2295 c215 -27 459 -127
625 -258 129 -101 286 -300 357 -452 150 -321 156 -692 16 -1020 -104 -243
-307 -476 -513 -589 -233 -127 -380 -167 -617 -169 -301 -2 -517 65 -753 234
-233 167 -393 398 -475 688 -35 122 -40 168 -40 336 1 99 6 172 19 230 90 433
366 761 776 925 180 72 405 100 605 75z"/>
</g>
</svg>
