<svg width="1440" height="692" viewBox="0 0 1440 692" fill="none" xmlns="http://www.w3.org/2000/svg">
    <path fill="#941014"
        d="M 705.052,195.673 C 260.994,118.405 49.9931,199.51 0,249.721 L 0.08734536,665.31056 C 3.8082554,663.75256 76.2506,610.378 176.388,610.541 333.711,610.797 556.069,650.644 705.052,671.095 1349.61,759.573 1440,545.984 1440,426.378 V 0 c -4.34,29.6558 -19.93,167.932 -186.35,225.2 -114.23,39.307 -316.006,10.946 -548.598,-29.527 z" />
    <path
        d="m 867.0834,222.69664 c 281.206,8.774 538.548,-72.522 572.093,-221.936098 1.985,-21.6724 2.055,-43.9683 0.407,-66.5639 4.598,23.478 4.28,45.686 -0.407,66.5639 -16.683,182.145098 -168.602,320.239098 -572.093,221.936098 z"
        fill="#721c20" id="path120" />
    <path
        d="m 412.57209,628.53089 c -281.206,-8.774 -538.548,72.5224 -572.093,221.9364 -1.984,21.672 -2.055,43.968 -0.407,66.564 -4.597,-23.478 -4.28,-45.686 0.407,-66.564 16.6834,-182.1453 168.6022,-320.2399 572.093,-221.9364 z"
        fill="#721c20" id="path100" />
</svg>