<svg width="1440" height="692" fill="none" xmlns="http://www.w3.org/2000/svg"><path fill="#941014" d="M705.052 195.673C260.994 118.405 49.993 199.51 0 249.721l.087 415.59c3.721-1.558 76.164-54.933 176.301-54.77 157.323.256 379.681 40.103 528.664 60.554C1349.61 759.573 1440 545.984 1440 426.378V0c-4.34 29.656-19.93 167.932-186.35 225.2-114.23 39.307-316.006 10.946-548.598-29.527z"/><path d="M867.083 222.697C1148.29 231.47 1405.631 150.175 1439.176.76c1.985-21.673 2.055-43.969.407-66.564 4.598 23.478 4.28 45.686-.407 66.564C1422.493 182.906 1270.574 321 867.083 222.697zM412.572 628.53c-281.206-8.773-538.548 72.523-572.093 221.937-1.984 21.672-2.055 43.968-.407 66.564-4.597-23.478-4.28-45.686.407-66.564 16.683-182.145 168.602-320.24 572.093-221.936z" fill="#721c20"/></svg>