<svg width="1440" height="913" viewBox="0 0 1440 913" fill="none" xmlns="http://www.w3.org/2000/svg">
<g clip-path="url(#clip0)">
<path d="M705.052 195.673C260.994 118.405 49.9931 199.51 0 249.721V675.5C3.72091 673.943 76.2506 610.378 176.388 610.541C333.711 610.797 556.069 650.644 705.052 671.095C1349.61 759.573 1440 545.984 1440 426.378V0C1435.66 29.6558 1420.07 167.932 1253.65 225.2C1139.42 264.507 937.644 236.146 705.052 195.673Z" fill="#941014"/>
<path d="M496 640.5C211.346 631.618 -49.026 702.529 -77.4345 852.666C-78.5311 872.317 -78.2193 892.555 -76.7168 913.154C-80.9109 891.736 -81.0119 871.573 -77.4345 852.666C-67.2184 669.598 65.2377 537.551 496 640.5Z" fill="#721C20"/>
<path d="M864 222.653C1174.06 232.328 1447.42 119.718 1447.44 -44.2707C1447.22 -49.8248 1446.91 -55.4029 1446.5 -60.9999C1447.13 -55.3671 1447.44 -49.7898 1447.44 -44.2707C1455.38 161.046 1328.44 333.651 864 222.653Z" fill="#721C20"/>
<g opacity="0.1" clip-path="url(#clip1)">
<path d="M294.497 574.167C241.379 574.167 198.162 617.384 198.162 670.502C198.162 723.62 241.379 766.837 294.497 766.837C347.615 766.837 390.832 723.62 390.832 670.502C390.832 617.384 347.615 574.167 294.497 574.167ZM294.497 742.753C254.659 742.753 222.246 710.34 222.246 670.502C222.246 630.664 254.659 598.251 294.497 598.251C334.335 598.251 366.748 630.664 366.748 670.502C366.748 710.34 334.335 742.753 294.497 742.753V742.753Z" fill="#941014"/>
<path d="M486.518 624.614L455.544 617.881C452.85 609.634 449.514 601.591 445.576 593.843L462.723 567.17C465.785 562.405 465.112 556.148 461.109 552.145L412.855 503.891C408.852 499.888 402.595 499.215 397.83 502.277L371.157 519.424C363.409 515.486 355.366 512.15 347.119 509.456L340.386 478.482C339.184 472.948 334.283 469 328.619 469H260.381C254.717 469 249.816 472.948 248.614 478.482L241.881 509.456C233.634 512.15 225.591 515.486 217.843 519.424L191.17 502.277C186.405 499.215 180.148 499.888 176.145 503.891L127.891 552.145C123.888 556.148 123.215 562.405 126.277 567.17L143.424 593.843C139.486 601.591 136.15 609.634 133.456 617.881L102.482 624.614C96.9478 625.819 93 630.717 93 636.381V704.619C93 710.283 96.9478 715.181 102.482 716.386L133.456 723.119C136.15 731.366 139.486 739.409 143.424 747.157L126.277 773.83C123.215 778.595 123.888 784.852 127.891 788.855L176.145 837.109C180.148 841.112 186.405 841.785 191.17 838.723L217.843 821.576C225.591 825.514 233.634 828.85 241.881 831.544L248.614 862.518C249.816 868.052 254.717 872 260.381 872H328.619C334.283 872 339.184 868.052 340.386 862.518L347.119 831.544C355.366 828.85 363.409 825.514 371.157 821.576L397.83 838.723C402.595 841.785 408.852 841.115 412.855 837.109L461.109 788.855C465.112 784.852 465.785 778.595 462.723 773.83L445.576 747.157C449.514 739.409 452.85 731.366 455.544 723.119L486.518 716.386C492.052 715.181 496 710.283 496 704.619V636.381C496 630.717 492.052 625.819 486.518 624.614V624.614ZM471.916 694.913L443.516 701.087C439.153 702.037 435.672 705.32 434.473 709.619C431.352 720.814 426.864 731.639 421.132 741.795C418.937 745.684 419.072 750.468 421.489 754.226L437.216 778.688L402.691 813.216L378.226 797.489C374.468 795.072 369.684 794.937 365.798 797.132C355.639 802.864 344.814 807.352 333.619 810.473C329.32 811.672 326.037 815.153 325.087 819.516L318.913 847.916H270.087L263.913 819.516C262.963 815.153 259.68 811.672 255.381 810.473C244.186 807.352 233.361 802.864 223.205 797.132C219.316 794.937 214.532 795.075 210.774 797.489L186.312 813.216L151.787 778.688L167.511 754.226C169.928 750.468 170.066 745.684 167.871 741.795C162.14 731.639 157.651 720.814 154.527 709.619C153.328 705.32 149.85 702.037 145.487 701.087L117.084 694.913V646.087L145.484 639.913C149.847 638.963 153.328 635.68 154.527 631.381C157.648 620.186 162.136 609.361 167.868 599.205C170.063 595.316 169.928 590.532 167.511 586.774L151.784 562.312L186.309 527.784L210.774 543.511C214.532 545.928 219.316 546.063 223.202 543.868C233.361 538.136 244.186 533.648 255.381 530.527C259.68 529.328 262.963 525.847 263.913 521.484L270.087 493.084H318.913L325.087 521.484C326.037 525.847 329.32 529.328 333.619 530.527C344.814 533.648 355.639 538.136 365.795 543.868C369.684 546.063 374.468 545.925 378.226 543.511L402.688 527.784L437.213 562.312L421.489 586.774C419.072 590.532 418.934 595.316 421.129 599.205C426.864 609.361 431.349 620.186 434.473 631.381C435.672 635.68 439.15 638.963 443.513 639.913L471.916 646.087V694.913Z" fill="#941014"/>
</g>
</g>
<defs>
<clipPath id="clip0">
<rect width="1440" height="913" fill="white"/>
</clipPath>
<clipPath id="clip1">
<rect width="403" height="403" fill="white" transform="translate(93 469)"/>
</clipPath>
</defs>
</svg>
